<svg width="97" height="96" viewBox="0 0 97 96" fill="none" xmlns="http://www.w3.org/2000/svg">
<rect width="62.806" height="62.806" transform="matrix(-1 0 0 1 78.6375 16.7441)" fill="#010323"/>
<rect width="3.86404" height="55.0792" transform="matrix(-1 0 0 1 15.829 20.6016)" fill="#00D8C9"/>
<rect width="3.86404" height="55.0792" transform="matrix(4.37114e-08 1 1 -4.37114e-08 19.6915 79.5449)" fill="#00D8C9"/>
<rect width="3.86499" height="19.3249" transform="matrix(4.37114e-08 1 1 -4.37114e-08 19.6853 79.5449)" fill="#36F398"/>
<rect x="19.6915" y="16.7441" width="3.86404" height="55.0792" transform="rotate(-90 19.6915 16.7441)" fill="#010323"/>
<rect x="78.6375" y="20.6016" width="3.86404" height="55.0792" fill="#010323"/>
<rect width="3.86404" height="47.3522" transform="matrix(-1 0 0 1 11.9618 24.4629)" fill="#00D8C9"/>
<rect width="3.86404" height="47.3522" transform="matrix(4.37114e-08 1 1 -4.37114e-08 23.5525 83.416)" fill="#00D8C9"/>
<rect x="23.5525" y="12.8711" width="3.86404" height="47.3522" transform="rotate(-90 23.5525 12.8711)" fill="#010323"/>
<rect x="82.4953" y="24.4629" width="3.86404" height="47.3522" fill="#010323"/>
<rect width="3.86404" height="31.8987" transform="matrix(-1 0 0 1 8.10089 32.1914)" fill="#00D8C9"/>
<rect width="3.86404" height="31.8987" transform="matrix(4.37114e-08 1 1 -4.37114e-08 31.2822 87.2715)" fill="#00D8C9"/>
<rect x="31.2822" y="9.01758" width="3.86404" height="31.8987" transform="rotate(-90 31.2822 9.01758)" fill="#010323"/>
<rect x="86.3594" y="32.1914" width="3.86404" height="31.8987" fill="#010323"/>
<rect width="3.86404" height="14.0169" transform="matrix(-1 0 0 1 4.23529 42.3496)" fill="#00D8C9"/>
<rect width="3.86404" height="16.4262" transform="matrix(-1 0 0 1 94.0891 39.9297)" fill="#010323"/>
<rect width="3.86404" height="11.595" transform="matrix(4.37114e-08 1 1 -4.37114e-08 41.4302 91.1367)" fill="#00D8C9"/>
<rect width="3.86404" height="11.595" transform="matrix(4.37114e-08 1 1 -4.37114e-08 41.4302 1.28711)" fill="#010323"/>
<rect width="3.86404" height="3.86657" transform="matrix(4.37114e-08 1 1 -4.37114e-08 86.3594 28.3457)" fill="#010323"/>
<rect width="47.3523" height="3.86341" transform="matrix(-1 0 0 1 63.1796 75.6875)" fill="#00BBAF"/>
<rect width="37.2005" height="3.86355" transform="matrix(-1 0 0 1 53.027 71.8203)" fill="#00BBAF"/>
<rect width="15.4537" height="3.86328" transform="matrix(-1 0 0 1 31.2822 67.9609)" fill="#00BBAF"/>
<rect width="3.86341" height="7.72997" transform="matrix(-1 0 0 1 31.2822 60.2227)" fill="#00BBAF"/>
<rect width="3.86341" height="3.86499" transform="matrix(-1 0 0 1 35.14 64.0938)" fill="#00BBAF"/>
<rect width="3.86341" height="3.86499" transform="matrix(-1 0 0 1 36.4296 39.9297)" fill="#0F1576"/>
<rect width="3.86341" height="3.86499" transform="matrix(-1 0 0 1 48.0233 43.7949)" fill="#0F1576"/>
<rect width="3.86341" height="3.86499" transform="matrix(-1 0 0 1 80.5548 42.1953)" fill="#0C115D"/>
<rect width="3.86341" height="3.86499" transform="matrix(-1 0 0 1 36.4296 43.4746)" fill="#0F1576"/>
<rect width="3.86341" height="3.86499" transform="matrix(-1 0 0 1 36.4296 28.3457)" fill="#0F1576"/>
<rect width="3.86341" height="3.86499" transform="matrix(-1 0 0 1 72.8267 27.6973)" fill="#0C115D"/>
<rect width="3.86341" height="3.86499" transform="matrix(-1 0 0 1 72.8267 23.8301)" fill="#0C115D"/>
<rect width="3.86341" height="3.86499" transform="matrix(-1 0 0 1 68.9579 19.959)" fill="#0C115D"/>
<rect width="3.86341" height="3.86499" transform="matrix(-1 0 0 1 55.7546 55.4004)" fill="#0F1576"/>
<rect width="3.86341" height="3.86499" transform="matrix(-1 0 0 1 48.0233 51.5273)" fill="#0F1576"/>
<rect width="3.86341" height="3.86499" transform="matrix(-1 0 0 1 80.5548 49.9199)" fill="#0C115D"/>
<rect width="3.86341" height="3.86499" transform="matrix(-1 0 0 1 48.0233 47.668)" fill="#0F1576"/>
<rect width="3.86341" height="3.86499" transform="matrix(-1 0 0 1 80.5548 46.0469)" fill="#0C115D"/>
<rect width="3.86341" height="3.86499" transform="matrix(-1 0 0 1 76.6907 46.0469)" fill="#0C115D"/>
<rect width="3.86341" height="3.86499" transform="matrix(-1 0 0 1 76.6907 38.3164)" fill="#0C115D"/>
<rect width="3.86341" height="3.86499" transform="matrix(-1 0 0 1 76.6907 53.7852)" fill="#0C115D"/>
<rect width="3.86341" height="3.86499" transform="matrix(-1 0 0 1 51.8905 47.668)" fill="#0F1576"/>
<rect width="3.86341" height="3.86499" transform="matrix(-1 0 0 1 84.4204 46.0469)" fill="#0C115D"/>
<rect width="3.86341" height="3.86499" transform="matrix(-1 0 0 1 51.8905 51.5273)" fill="#0F1576"/>
<rect width="3.86341" height="3.86499" transform="matrix(-1 0 0 1 84.4204 49.9199)" fill="#0C115D"/>
<rect width="11.595" height="3.86499" transform="matrix(-1 0 0 1 53.027 91.1367)" fill="#D0FFFC"/>
<rect width="10.1519" height="3.86499" transform="matrix(-1 0 0 1 63.1796 87.2578)" fill="#D0FFFC"/>
<rect width="10.1519" height="3.86499" transform="matrix(-1 0 0 1 41.4302 87.2715)" fill="#D0FFFC"/>
<rect width="7.72683" height="3.86499" transform="matrix(-1 0 0 1 31.2822 83.416)" fill="#D0FFFC"/>
<rect width="3.86499" height="3.86499" transform="matrix(-1 0 0 1 23.5525 79.5449)" fill="#D0FFFC"/>
<rect width="3.86499" height="3.86499" transform="matrix(-1 0 0 1 19.6915 75.6875)" fill="#D0FFFC"/>
<rect width="3.86499" height="3.86499" transform="matrix(-1 0 0 1 15.829 71.8203)" fill="#D0FFFC"/>
<rect width="3.86499" height="7.7261" transform="matrix(-1 0 0 1 11.9618 64.0938)" fill="#D0FFFC"/>
<rect width="3.86499" height="7.7261" transform="matrix(-1 0 0 1 11.9618 24.4863)" fill="#D0FFFC"/>
<rect width="3.86499" height="3.86341" transform="matrix(-1 0 0 1 15.8322 20.6016)" fill="#D0FFFC"/>
<rect width="3.86499" height="7.7262" transform="matrix(-1 0 0 1 8.10089 56.3711)" fill="#D0FFFC"/>
<rect width="3.86499" height="10.1994" transform="matrix(-1 0 0 1 8.10089 32.1504)" fill="#D0FFFC"/>
<rect width="3.86499" height="14.0169" transform="matrix(-1 0 0 1 4.23529 42.3496)" fill="#D0FFFC"/>
<rect x="92.1702" y="52.6523" width="11.595" height="3.86499" transform="rotate(-90 92.1702 52.6523)" fill="#777EED"/>
<rect x="88.303" y="62.7969" width="10.1519" height="3.86499" transform="rotate(-90 88.303 62.7969)" fill="#777EED"/>
<rect x="88.3123" y="41.0625" width="10.1519" height="3.86499" transform="rotate(-90 88.3123 41.0625)" fill="#777EED"/>
<rect x="84.4389" y="30.9082" width="7.72683" height="3.86499" transform="rotate(-90 84.4389 30.9082)" fill="#777EED"/>
<rect x="80.5703" y="23.1758" width="3.86499" height="3.86499" transform="rotate(-90 80.5703 23.1758)" fill="#777EED"/>
<rect x="76.7155" y="19.3145" width="3.86499" height="3.86499" transform="rotate(-90 76.7155 19.3145)" fill="#777EED"/>
<rect x="72.8514" y="15.4512" width="3.86499" height="3.86499" transform="rotate(-90 72.8514 15.4512)" fill="#777EED"/>
<rect x="65.1218" y="11.5918" width="3.86499" height="7.7261" transform="rotate(-90 65.1218 11.5918)" fill="#777EED"/>
<rect x="25.5147" y="11.5977" width="3.86499" height="7.7261" transform="rotate(-90 25.5147 11.5977)" fill="#777EED"/>
<rect x="21.6367" y="15.457" width="3.86499" height="3.86341" transform="rotate(-90 21.6367 15.457)" fill="#777EED"/>
<rect x="57.3967" y="7.71875" width="3.86499" height="7.7262" transform="rotate(-90 57.3967 7.71875)" fill="#777EED"/>
<rect x="43.3769" y="3.86523" width="3.86499" height="14.0169" transform="rotate(-90 43.3769 3.86523)" fill="#777EED"/>
<rect width="3.86341" height="3.86499" transform="matrix(-1 0 0 1 78.6375 75.6797)" fill="#00BBAF"/>
<rect width="3.86341" height="3.86499" transform="matrix(-1 0 0 1 82.486 71.8203)" fill="#00BBAF"/>
<rect width="3.86341" height="3.86499" transform="matrix(-1 0 0 1 78.6251 71.8203)" fill="#00BBAF"/>
<rect width="3.86341" height="3.86499" transform="matrix(-1 0 0 1 74.7563 75.6875)" fill="#00BBAF"/>
<rect width="3.86341" height="3.86499" transform="matrix(-1 0 0 1 70.8954 75.6875)" fill="#00BBAF"/>
<rect width="3.86341" height="3.86499" transform="matrix(-1 0 0 1 86.3532 67.9609)" fill="#00BBAF"/>
<rect width="3.86499" height="14.0147" transform="matrix(-1 0 0 1 27.4166 53.9395)" fill="#00BBAF"/>
<rect width="10.1519" height="3.86328" transform="matrix(-1 0 0 1 41.4302 67.9609)" fill="#00BBAF"/>
<rect width="3.86499" height="7.73644" transform="matrix(-1 0 0 1 19.6915 32.1914)" fill="#00BBAF"/>
<rect width="7.72687" height="3.86341" transform="matrix(-1 0 0 1 23.5525 64.0938)" fill="#00BBAF"/>
<rect width="7.72687" height="24.1625" transform="matrix(-1 0 0 1 23.5525 39.9297)" fill="#00BBAF"/>
<rect width="7.72997" height="23.1899" transform="matrix(-1 0 0 1 44.1608 32.2051)" fill="#0F1576"/>
<rect width="3.86499" height="19.3249" transform="matrix(4.37114e-08 1 1 -4.37114e-08 19.6853 75.6875)" fill="#36F398"/>
<rect width="3.86499" height="19.3249" transform="matrix(4.37114e-08 1 1 -4.37114e-08 15.8167 71.8203)" fill="#36F398"/>
<rect width="3.86499" height="19.3249" transform="matrix(4.37114e-08 1 1 -4.37114e-08 11.9495 67.9609)" fill="#36F398"/>
<rect width="3.86499" height="11.595" transform="matrix(4.37114e-08 1 1 -4.37114e-08 11.9495 64.0938)" fill="#36F398"/>
<rect width="3.86499" height="11.595" transform="matrix(4.37114e-08 1 1 -4.37114e-08 8.08539 60.2227)" fill="#36F398"/>
<rect width="3.86499" height="7.72997" transform="matrix(4.37114e-08 1 1 -4.37114e-08 8.08539 56.3652)" fill="#36F398"/>
<rect width="3.86499" height="3.86499" transform="matrix(4.37114e-08 1 1 -4.37114e-08 4.2229 52.4922)" fill="#36F398"/>
<rect width="3.86499" height="3.86499" transform="matrix(4.37114e-08 1 1 -4.37114e-08 8.08539 52.4922)" fill="#36F398"/>
<rect width="3.86499" height="3.86499" transform="matrix(4.37114e-08 1 1 -4.37114e-08 4.2229 48.6328)" fill="#36F398"/>
<rect width="6.44164" height="3.86499" transform="matrix(4.37114e-08 1 1 -4.37114e-08 4.2229 42.1953)" fill="#36F398"/>
<rect width="9.98455" height="3.86499" transform="matrix(4.37114e-08 1 1 -4.37114e-08 8.08539 32.2051)" fill="#36F398"/>
<path d="M31.276 83.416L31.276 87.281L49.3126 87.281L49.3126 83.416L31.276 83.416Z" fill="#36F398"/>
<path d="M41.424 87.2832L41.424 91.1482L53.019 91.1482L53.019 87.2832L41.424 87.2832Z" fill="#36F398"/>
<path d="M53.1801 83.416L53.1801 87.281L63.1646 87.281L63.1646 83.416L53.1801 83.416Z" fill="#36F398"/>
<rect width="3.86341" height="3.86499" transform="matrix(-1 0 0 1 31.2976 71.8203)" fill="#00BBAF"/>
<rect width="3.86341" height="3.86499" transform="matrix(-1 0 0 1 23.5679 67.9609)" fill="#00BBAF"/>
</svg>
