<svg width="96" height="96" viewBox="0 0 96 96" fill="none" xmlns="http://www.w3.org/2000/svg">
<rect x="44.2367" y="43.543" width="7.91647" height="7.91647" fill="#FFF7FF"/>
<rect x="44.2367" y="35.627" width="7.91647" height="7.91647" fill="#FEDBFF"/>
<rect x="44.2367" y="27.7109" width="7.91647" height="7.91647" fill="#FEB8FF"/>
<rect x="44.2367" y="19.793" width="7.91647" height="7.91647" fill="#5E66EA"/>
<rect x="44.2367" y="15.8359" width="3.95823" height="3.95823" fill="#454EE7"/>
<rect x="44.2367" y="11.877" width="3.95823" height="3.95823" fill="#454EE7"/>
<rect x="48.1981" y="75.2109" width="3.95823" height="3.95823" fill="#454EE7"/>
<rect x="48.1981" y="79.168" width="3.95823" height="3.95823" fill="#454EE7"/>
<rect x="79.8663" y="43.543" width="3.95823" height="3.95823" transform="rotate(90 79.8663 43.543)" fill="#454EE7"/>
<rect x="83.8246" y="43.543" width="3.95823" height="3.95823" transform="rotate(90 83.8246 43.543)" fill="#454EE7"/>
<rect x="87.7799" y="43.543" width="3.95823" height="3.95823" transform="rotate(90 87.7799 43.543)" fill="#0C115D"/>
<rect x="12.5716" y="47.502" width="3.95823" height="3.95823" transform="rotate(90 12.5716 47.502)" fill="#0C115D"/>
<rect x="48.1981" y="7.91797" width="3.95823" height="3.95823" transform="rotate(90 48.1981 7.91797)" fill="#0C115D"/>
<rect x="56.1117" y="23.752" width="3.95823" height="3.95823" transform="rotate(90 56.1117 23.752)" fill="#0C115D"/>
<rect x="64.0345" y="31.668" width="3.95823" height="3.95823" transform="rotate(90 64.0345 31.668)" fill="#0C115D"/>
<rect x="71.9481" y="39.5859" width="3.95823" height="3.95823" transform="rotate(90 71.9481 39.5859)" fill="#0C115D"/>
<rect x="71.9481" y="51.4609" width="3.95823" height="3.95823" transform="rotate(90 71.9481 51.4609)" fill="#0C115D"/>
<rect x="75.9064" y="51.4609" width="3.95823" height="3.95823" transform="rotate(90 75.9064 51.4609)" fill="#0C115D"/>
<rect x="56.1117" y="19.793" width="3.95823" height="3.95823" transform="rotate(90 56.1117 19.793)" fill="#0C115D"/>
<rect x="24.4496" y="39.5859" width="3.95823" height="3.95823" transform="rotate(90 24.4496 39.5859)" fill="#0C115D"/>
<rect x="44.2367" y="71.252" width="3.95823" height="3.95823" transform="rotate(90 44.2367 71.252)" fill="#0C115D"/>
<rect x="64.0345" y="59.377" width="3.95823" height="3.95823" transform="rotate(90 64.0345 59.377)" fill="#0C115D"/>
<rect x="36.3231" y="59.377" width="3.95823" height="3.95823" transform="rotate(90 36.3231 59.377)" fill="#0C115D"/>
<rect x="28.408" y="51.4609" width="3.95823" height="3.95823" transform="rotate(90 28.408 51.4609)" fill="#0C115D"/>
<rect x="56.1117" y="67.293" width="3.95823" height="3.95823" transform="rotate(90 56.1117 67.293)" fill="#0C115D"/>
<rect x="44.2367" y="67.293" width="3.95823" height="3.95823" transform="rotate(90 44.2367 67.293)" fill="#0C115D"/>
<rect x="28.408" y="39.5859" width="3.95823" height="3.95823" transform="rotate(90 28.408 39.5859)" fill="#0C115D"/>
<rect x="36.3231" y="31.668" width="3.95823" height="3.95823" transform="rotate(90 36.3231 31.668)" fill="#0C115D"/>
<rect x="44.2367" y="23.752" width="3.95823" height="3.95823" transform="rotate(90 44.2367 23.752)" fill="#0C115D"/>
<rect x="52.1627" y="83.127" width="7.91647" height="3.95823" transform="rotate(90 52.1627 83.127)" fill="#0C115D"/>
<rect x="83.8246" y="43.543" width="7.91647" height="3.95823" fill="#0C115D"/>
<rect x="44.2429" y="11.877" width="7.91647" height="3.95823" transform="rotate(-90 44.2429 11.877)" fill="#0C115D"/>
<rect x="12.5746" y="51.4609" width="7.91646" height="3.95823" transform="rotate(180 12.5746 51.4609)" fill="#0C115D"/>
<rect x="48.1981" y="83.127" width="3.95823" height="3.95823" transform="rotate(90 48.1981 83.127)" fill="#0C115D"/>
<rect x="83.8246" y="47.502" width="3.95823" height="3.95823" fill="#0C115D"/>
<rect x="48.1981" y="11.877" width="3.95823" height="3.95823" transform="rotate(-90 48.1981 11.877)" fill="#0C115D"/>
<rect x="12.5746" y="47.502" width="3.95823" height="3.95823" transform="rotate(180 12.5746 47.502)" fill="#0C115D"/>
<rect x="56.1117" y="83.127" width="3.95823" height="3.95823" transform="rotate(90 56.1117 83.127)" fill="#0C115D"/>
<rect x="83.8246" y="39.5859" width="3.95823" height="3.95823" fill="#0C115D"/>
<rect x="40.2784" y="11.877" width="3.95823" height="3.95823" transform="rotate(-90 40.2784 11.877)" fill="#0C115D"/>
<rect x="12.5746" y="55.418" width="3.95823" height="3.95823" transform="rotate(180 12.5746 55.418)" fill="#0C115D"/>
<rect x="56.1117" y="71.252" width="11.8747" height="3.95823" transform="rotate(90 56.1117 71.252)" fill="#0C115D"/>
<rect x="71.9481" y="39.5859" width="11.8747" height="3.95823" fill="#0C115D"/>
<rect x="40.2784" y="23.752" width="11.8747" height="3.95823" transform="rotate(-90 40.2784 23.752)" fill="#0C115D"/>
<rect x="24.4496" y="55.418" width="11.8747" height="3.95823" transform="rotate(180 24.4496 55.418)" fill="#0C115D"/>
<rect x="48.1981" y="71.252" width="11.8747" height="3.95823" transform="rotate(90 48.1981 71.252)" fill="#0C115D"/>
<rect x="71.9481" y="47.502" width="11.8747" height="3.95823" fill="#0C115D"/>
<rect x="48.1981" y="23.752" width="11.8747" height="3.95823" transform="rotate(-90 48.1981 23.752)" fill="#0C115D"/>
<rect x="24.4496" y="47.502" width="11.8747" height="3.95823" transform="rotate(180 24.4496 47.502)" fill="#0C115D"/>
<rect x="44.2429" y="71.252" width="15.8329" height="3.95823" transform="rotate(90 44.2429 71.252)" fill="#0C115D"/>
<rect x="71.9481" y="51.4609" width="15.8329" height="3.95823" fill="#0C115D"/>
<rect x="52.1627" y="23.752" width="15.8329" height="3.95823" transform="rotate(-90 52.1627 23.752)" fill="#0C115D"/>
<rect x="24.4496" y="43.543" width="11.8747" height="3.95823" transform="rotate(180 24.4496 43.543)" fill="#0C115D"/>
<rect x="40.2845" y="67.293" width="15.8329" height="3.95823" transform="rotate(90 40.2845 67.293)" fill="#0C115D"/>
<rect x="67.9929" y="55.418" width="15.8329" height="3.95823" fill="#0C115D"/>
<rect x="56.1179" y="27.7109" width="15.8329" height="3.95823" transform="rotate(-90 56.1179 27.7109)" fill="#0C115D"/>
<rect x="28.4095" y="39.5859" width="15.8329" height="3.95823" transform="rotate(180 28.4095 39.5859)" fill="#0C115D"/>
<rect x="32.371" y="35.627" width="15.8329" height="3.95823" transform="rotate(180 32.371 35.627)" fill="#0C115D"/>
<rect x="60.0762" y="31.668" width="15.8329" height="3.95823" transform="rotate(-90 60.0762 31.668)" fill="#0C115D"/>
<rect x="36.3231" y="63.3359" width="15.8329" height="3.95823" transform="rotate(90 36.3231 63.3359)" fill="#0C115D"/>
<rect x="36.3231" y="31.668" width="15.8329" height="3.95823" transform="rotate(180 36.3231 31.668)" fill="#0C115D"/>
<rect x="64.0377" y="35.627" width="15.8329" height="3.95823" transform="rotate(-90 64.0377 35.627)" fill="#0C115D"/>
<rect x="32.371" y="59.377" width="15.8329" height="3.95823" transform="rotate(90 32.371 59.377)" fill="#0C115D"/>
<rect x="40.2845" y="27.7109" width="15.8329" height="3.95823" transform="rotate(180 40.2845 27.7109)" fill="#0C115D"/>
<rect x="67.9929" y="39.5859" width="15.8329" height="3.95823" transform="rotate(-90 67.9929 39.5859)" fill="#0C115D"/>
<rect x="28.4095" y="55.418" width="15.8329" height="3.95823" transform="rotate(90 28.4095 55.418)" fill="#0C115D"/>
<rect x="64.0377" y="59.377" width="15.8329" height="3.95823" fill="#0C115D"/>
<rect x="60.0762" y="63.3359" width="15.8329" height="3.95823" fill="#0C115D"/>
<rect x="56.1179" y="67.293" width="15.8329" height="3.95823" fill="#0C115D"/>
<rect x="56.1117" y="87.0859" width="3.95823" height="3.95823" transform="rotate(90 56.1117 87.0859)" fill="#0C115D"/>
<rect x="87.7799" y="39.5859" width="3.95823" height="3.95823" fill="#0C115D"/>
<rect x="40.2784" y="7.91797" width="3.95823" height="3.95823" transform="rotate(-90 40.2784 7.91797)" fill="#0C115D"/>
<rect x="8.61633" y="55.418" width="3.95823" height="3.95823" transform="rotate(180 8.61633 55.418)" fill="#0C115D"/>
<rect x="60.0731" y="87.0859" width="3.95823" height="3.95823" transform="rotate(90 60.0731 87.0859)" fill="#0C115D"/>
<rect x="87.7799" y="35.627" width="3.95823" height="3.95823" fill="#0C115D"/>
<rect x="36.3231" y="7.91797" width="3.95823" height="3.95823" transform="rotate(-90 36.3231 7.91797)" fill="#0C115D"/>
<rect x="8.61633" y="59.377" width="3.95823" height="3.95823" transform="rotate(180 8.61633 59.377)" fill="#0C115D"/>
<rect x="71.9481" y="87.0859" width="3.95823" height="7.91647" transform="rotate(90 71.9481 87.0859)" fill="#0C115D"/>
<rect x="87.783" y="23.752" width="3.95823" height="7.91647" fill="#0C115D"/>
<rect x="24.4496" y="7.91797" width="3.95823" height="7.91647" transform="rotate(-90 24.4496 7.91797)" fill="#0C115D"/>
<rect x="8.61633" y="71.2461" width="3.95823" height="7.91647" transform="rotate(180 8.61633 71.2461)" fill="#0C115D"/>
<rect x="60.0731" y="75.2109" width="11.8747" height="3.95823" transform="rotate(90 60.0731 75.2109)" fill="#0C115D"/>
<rect x="75.9064" y="35.627" width="11.8747" height="3.95823" fill="#0C115D"/>
<rect x="36.3231" y="19.793" width="11.8747" height="3.95823" transform="rotate(-90 36.3231 19.793)" fill="#0C115D"/>
<rect x="20.4975" y="59.377" width="11.8747" height="3.95823" transform="rotate(180 20.4975 59.377)" fill="#0C115D"/>
<rect x="64.0345" y="83.127" width="7.91647" height="3.95823" transform="rotate(90 64.0345 83.127)" fill="#0C115D"/>
<rect x="83.8246" y="31.668" width="7.91647" height="3.95823" fill="#0C115D"/>
<rect x="32.3648" y="11.877" width="7.91647" height="3.95823" transform="rotate(-90 32.3648 11.877)" fill="#0C115D"/>
<rect x="12.5746" y="63.3359" width="7.91647" height="3.95823" transform="rotate(180 12.5746 63.3359)" fill="#0C115D"/>
<rect x="64.0345" y="95.002" width="7.91647" height="3.95823" transform="rotate(-180 64.0345 95.002)" fill="#0C115D"/>
<rect x="95.7028" y="31.668" width="7.91647" height="3.95823" transform="rotate(90 95.7028 31.668)" fill="#0C115D"/>
<rect x="32.3648" y="0.00195312" width="7.91647" height="3.95823" fill="#0C115D"/>
<rect x="0.702759" y="63.3359" width="7.91647" height="3.95823" transform="rotate(-90 0.702759 63.3359)" fill="#0C115D"/>
<rect x="20.4944" y="47.502" width="3.95823" height="3.95823" transform="rotate(90 20.4944 47.502)" fill="#454EE7"/>
<rect x="28.4095" y="39.5859" width="3.95823" height="3.95823" transform="rotate(90 28.4095 39.5859)" fill="#454EE7"/>
<rect x="44.2429" y="67.293" width="3.95823" height="3.95823" transform="rotate(90 44.2429 67.293)" fill="#454EE7"/>
<rect x="64.0377" y="59.377" width="3.95823" height="3.95823" transform="rotate(90 64.0377 59.377)" fill="#454EE7"/>
<rect x="71.9481" y="51.4609" width="3.95823" height="3.95823" transform="rotate(90 71.9481 51.4609)" fill="#454EE7"/>
<rect x="64.0377" y="31.668" width="3.95823" height="3.95823" transform="rotate(90 64.0377 31.668)" fill="#454EE7"/>
<rect x="16.533" y="47.502" width="3.95823" height="3.95823" transform="rotate(90 16.533 47.502)" fill="#454EE7"/>
<rect x="75.9064" y="43.543" width="7.91647" height="7.91646" transform="rotate(90 75.9064 43.543)" fill="#5E66EA"/>
<rect x="60.0731" y="43.543" width="7.91647" height="7.91646" transform="rotate(90 60.0731 43.543)" fill="#FEDBFF"/>
<rect x="67.9898" y="43.543" width="7.91647" height="7.91646" transform="rotate(90 67.9898 43.543)" fill="#FEB8FF"/>
<rect x="67.9898" y="51.4609" width="7.91647" height="7.91646" transform="rotate(90 67.9898 51.4609)" fill="#454EE7"/>
<rect x="67.9898" y="35.627" width="7.91647" height="7.91646" transform="rotate(90 67.9898 35.627)" fill="#454EE7"/>
<rect x="36.3231" y="35.627" width="7.91647" height="7.91646" transform="rotate(90 36.3231 35.627)" fill="#454EE7"/>
<rect x="36.3231" y="51.4609" width="7.91647" height="7.91646" transform="rotate(90 36.3231 51.4609)" fill="#454EE7"/>
<rect x="44.2367" y="59.377" width="7.91647" height="7.91646" transform="rotate(90 44.2367 59.377)" fill="#454EE7"/>
<rect x="60.0731" y="59.377" width="7.91647" height="7.91646" transform="rotate(90 60.0731 59.377)" fill="#454EE7"/>
<rect x="60.0731" y="27.7109" width="7.91647" height="7.91646" transform="rotate(90 60.0731 27.7109)" fill="#454EE7"/>
<rect x="44.2367" y="27.7109" width="7.91647" height="7.91646" transform="rotate(90 44.2367 27.7109)" fill="#454EE7"/>
<rect width="7.91647" height="7.91646" transform="matrix(4.37114e-08 1 1 -4.37114e-08 20.4944 43.543)" fill="#5E66EA"/>
<rect width="7.91647" height="7.91646" transform="matrix(4.37114e-08 1 1 -4.37114e-08 36.3231 43.543)" fill="#FEDBFF"/>
<rect width="7.91647" height="7.91646" transform="matrix(4.37114e-08 1 1 -4.37114e-08 28.408 43.543)" fill="#FEB8FF"/>
<rect x="60.0731" y="35.627" width="7.91647" height="7.91646" transform="rotate(90 60.0731 35.627)" fill="#FEB8FF"/>
<rect x="44.2367" y="35.627" width="7.91647" height="7.91646" transform="rotate(90 44.2367 35.627)" fill="#FEB8FF"/>
<rect width="7.91647" height="7.91647" transform="matrix(1 0 0 -1 44.2367 59.377)" fill="#FEDBFF"/>
<rect width="7.91647" height="7.91647" transform="matrix(1 0 0 -1 44.2367 67.293)" fill="#FEB8FF"/>
<rect width="7.91647" height="7.91647" transform="matrix(1 0 0 -1 44.2367 75.2109)" fill="#5E66EA"/>
<rect width="7.91647" height="7.91646" transform="matrix(-4.37114e-08 -1 -1 4.37114e-08 60.0731 59.377)" fill="#FEB8FF"/>
<rect width="7.91647" height="7.91646" transform="matrix(-4.37114e-08 -1 -1 4.37114e-08 44.2367 59.377)" fill="#FEB8FF"/>
<rect width="3.95823" height="3.95823" transform="matrix(1 0 0 -1 44.2367 63.3359)" fill="#FEDBFF"/>
<rect width="3.95823" height="3.95823" transform="matrix(1 0 0 -1 32.3648 47.502)" fill="#FEDBFF"/>
<rect width="3.95823" height="3.95823" transform="matrix(1 0 0 -1 24.4496 51.4609)" fill="#FEB8FF"/>
<rect width="3.95823" height="3.95823" transform="matrix(1 0 0 -1 48.1981 71.252)" fill="#FEB8FF"/>
<rect width="3.95823" height="3.95823" transform="matrix(1 0 0 -1 40.2784 63.3359)" fill="#FEB8FF"/>
<rect width="3.95823" height="3.95823" transform="matrix(1 0 0 -1 32.3648 55.418)" fill="#FEB8FF"/>
<rect width="3.95823" height="3.95823" transform="matrix(1 0 0 -1 32.3648 43.543)" fill="#FEB8FF"/>
<rect width="3.95823" height="3.95823" transform="matrix(1 0 0 -1 40.2784 35.627)" fill="#FEB8FF"/>
<rect width="3.95823" height="3.95823" transform="matrix(1 0 0 -1 52.1627 35.627)" fill="#FEB8FF"/>
<rect width="3.95823" height="3.95823" transform="matrix(1 0 0 -1 60.0731 43.543)" fill="#FEB8FF"/>
<rect width="3.95823" height="3.95823" transform="matrix(1 0 0 -1 60.0731 55.418)" fill="#FEB8FF"/>
<rect width="3.95823" height="3.95823" transform="matrix(1 0 0 -1 52.1627 63.3359)" fill="#FEB8FF"/>
<rect width="3.95823" height="3.95823" transform="matrix(1 0 0 -1 67.9898 47.502)" fill="#FEB8FF"/>
<rect width="3.95823" height="3.95823" transform="matrix(1 0 0 -1 44.2367 27.7109)" fill="#FEB8FF"/>
<rect width="3.95823" height="3.95823" transform="matrix(1 0 0 -1 48.1981 35.627)" fill="#FEDBFF"/>
<rect width="3.95823" height="3.95823" transform="matrix(1 0 0 -1 40.2784 43.543)" fill="#FEDBFF"/>
<rect width="3.95823" height="3.95823" transform="matrix(1 0 0 -1 52.1627 43.543)" fill="#FEDBFF"/>
<rect width="3.95823" height="3.95823" transform="matrix(1 0 0 -1 52.1627 55.418)" fill="#FEDBFF"/>
<rect width="3.95823" height="3.95823" transform="matrix(1 0 0 -1 40.2784 55.418)" fill="#FEDBFF"/>
<rect width="3.95823" height="3.95823" transform="matrix(1 0 0 -1 60.0731 51.4609)" fill="#FEDBFF"/>
<rect x="87.783" y="39.5859" width="3.95823" height="3.95823" transform="rotate(90 87.783 39.5859)" fill="#454EE7"/>
<rect x="44.2429" y="7.91797" width="3.95823" height="3.95823" transform="rotate(90 44.2429 7.91797)" fill="#454EE7"/>
<rect x="12.5746" y="51.4609" width="3.95823" height="3.95823" transform="rotate(90 12.5746 51.4609)" fill="#454EE7"/>
<rect x="56.1179" y="83.127" width="3.95823" height="3.95823" transform="rotate(90 56.1179 83.127)" fill="#454EE7"/>
</svg>
