<svg width="166" height="168" viewBox="0 0 166 168" fill="none" xmlns="http://www.w3.org/2000/svg">
<rect x="26.5505" y="27.5332" width="111.909" height="111.909" fill="#00FFEE"/>
<rect x="138.458" y="34.4297" width="6.88501" height="98.141" fill="#00D8C9"/>
<rect x="131.576" y="139.438" width="6.88501" height="98.141" transform="rotate(90 131.576 139.438)" fill="#00D8C9"/>
<rect width="6.88501" height="98.141" transform="matrix(-4.37114e-08 -1 -1 4.37114e-08 131.576 27.5332)" fill="#00FFEE"/>
<rect width="6.88501" height="98.141" transform="matrix(-1 8.74228e-08 8.74228e-08 1 26.5505 34.4297)" fill="#00FFEE"/>
<rect x="145.328" y="41.3164" width="6.88501" height="84.3729" fill="#00D8C9"/>
<rect x="124.682" y="146.334" width="6.88501" height="84.3729" transform="rotate(90 124.682 146.334)" fill="#00D8C9"/>
<rect width="6.88501" height="84.3729" transform="matrix(-4.37114e-08 -1 -1 4.37114e-08 124.682 20.6543)" fill="#00FFEE"/>
<rect width="6.88501" height="84.3729" transform="matrix(-1 8.74228e-08 8.74228e-08 1 20.6562 41.3203)" fill="#00FFEE"/>
<rect x="152.216" y="55.0918" width="6.88501" height="56.8376" fill="#00D8C9"/>
<rect x="110.92" y="153.213" width="6.88501" height="56.8376" transform="rotate(90 110.92 153.213)" fill="#00D8C9"/>
<rect width="6.88501" height="56.8376" transform="matrix(-4.37114e-08 -1 -1 4.37114e-08 110.92 13.7578)" fill="#00FFEE"/>
<rect width="6.88501" height="56.8376" transform="matrix(-1 8.74228e-08 8.74228e-08 1 13.7754 55.0703)" fill="#00FFEE"/>
<rect x="159.114" y="73.1543" width="6.88501" height="24.9755" fill="#00D8C9"/>
<rect y="68.8594" width="6.88501" height="29.2684" fill="#00FFEE"/>
<rect x="92.8386" y="160.119" width="6.88501" height="20.6601" transform="rotate(90 92.8386 160.119)" fill="#00D8C9"/>
<rect x="92.8386" width="6.88501" height="20.6601" transform="rotate(90 92.8386 0)" fill="#00FFEE"/>
<rect x="13.7754" y="48.2266" width="6.88501" height="6.88951" transform="rotate(90 13.7754 48.2266)" fill="#00FFEE"/>
<rect x="54.0883" y="132.559" width="84.3731" height="6.88389" fill="#00BBAF"/>
<rect x="72.1609" y="125.68" width="66.2844" height="6.88413" fill="#00BBAF"/>
<rect x="110.92" y="118.801" width="27.5356" height="6.88365" fill="#00BBAF"/>
<rect x="110.92" y="105.018" width="6.88389" height="13.7734" fill="#00BBAF"/>
<rect x="104.038" y="111.896" width="6.88389" height="6.88669" fill="#00BBAF"/>
<rect x="72.1609" y="160.119" width="20.6601" height="6.88669" fill="#D0FFFC"/>
<rect x="54.0883" y="153.213" width="18.0888" height="6.88669" fill="#D0FFFC"/>
<rect x="92.8386" y="153.213" width="18.0888" height="6.88669" fill="#D0FFFC"/>
<rect x="110.92" y="146.334" width="13.7678" height="6.88669" fill="#D0FFFC"/>
<rect x="124.682" y="139.438" width="6.88669" height="6.88669" fill="#D0FFFC"/>
<rect x="131.576" y="132.559" width="6.88669" height="6.88669" fill="#D0FFFC"/>
<rect x="138.449" y="125.68" width="6.88669" height="6.88669" fill="#D0FFFC"/>
<rect x="145.328" y="111.896" width="6.88669" height="13.7665" fill="#D0FFFC"/>
<rect x="145.328" y="41.3418" width="6.88669" height="13.7665" fill="#D0FFFC"/>
<rect x="138.449" y="34.4297" width="6.88669" height="6.88389" fill="#D0FFFC"/>
<rect x="152.216" y="98.1543" width="6.88669" height="13.7667" fill="#D0FFFC"/>
<rect x="152.216" y="54.9824" width="6.88669" height="18.1734" fill="#D0FFFC"/>
<rect x="159.114" y="73.1543" width="6.88669" height="24.9755" fill="#D0FFFC"/>
<rect x="26.5505" y="132.559" width="6.88389" height="6.88669" fill="#00BBAF"/>
<rect x="117.792" y="93.834" width="6.88669" height="24.9715" fill="#00BBAF"/>
<rect x="92.8386" y="118.783" width="18.0888" height="6.88365" fill="#00BBAF"/>
<rect x="131.576" y="55.0664" width="6.88669" height="13.7849" fill="#00BBAF"/>
<rect x="124.682" y="111.896" width="13.7679" height="6.88389" fill="#00BBAF"/>
<rect x="124.682" y="68.8594" width="13.7679" height="43.0532" fill="#00BBAF"/>
<rect x="90.2653" y="69.4434" width="13.7734" height="35.5812" fill="#00BBAF"/>
<rect x="83.3777" y="55.668" width="6.88669" height="13.7734" fill="#00BBAF"/>
<rect x="74.7617" y="41.3262" width="6.88669" height="13.7734" transform="rotate(90 74.7617 41.3262)" fill="#00BBAF"/>
<rect x="76.4795" y="69.4434" width="6.88669" height="6.88669" fill="#00BBAF"/>
<rect x="60.9866" y="34.4375" width="6.88669" height="6.88669" transform="rotate(90 60.9866 34.4375)" fill="#00BBAF"/>
<rect x="67.8762" y="48.1973" width="6.88669" height="6.88669" transform="rotate(90 67.8762 48.1973)" fill="#00BBAF"/>
<rect x="60.9866" y="54.5254" width="6.88669" height="6.88669" transform="rotate(90 60.9866 54.5254)" fill="#00BBAF"/>
<rect x="90.2505" y="62.5645" width="6.88669" height="6.88669" fill="#00BBAF"/>
<rect x="83.9431" y="105.602" width="6.88669" height="6.88669" fill="#00BBAF"/>
</svg>
