<svg width="121" height="73" viewBox="0 0 121 73" fill="none" xmlns="http://www.w3.org/2000/svg">
<rect x="35.3703" y="12.0469" width="48.9164" height="48.9164" fill="#0C115D"/>
<rect x="84.2869" y="15.0527" width="3.0095" height="42.8984" fill="#FD78FF"/>
<rect x="81.2771" y="60.957" width="3.0095" height="42.8984" transform="rotate(90 81.2771 60.957)" fill="#FD78FF"/>
<rect x="81.2815" y="60.9688" width="3.01024" height="15.0512" transform="rotate(90 81.2815 60.9688)" fill="#FC35FF"/>
<rect width="3.0095" height="42.8984" transform="matrix(-4.37114e-08 -1 -1 4.37114e-08 81.2771 12.0469)" fill="#0C115D"/>
<rect width="3.0095" height="42.8984" transform="matrix(-1 8.74228e-08 8.74228e-08 1 35.3703 15.0527)" fill="#0C115D"/>
<rect x="87.2924" y="18.0586" width="3.0095" height="36.8802" fill="#FD78FF"/>
<rect x="78.2657" y="63.9746" width="3.0095" height="36.8802" transform="rotate(90 78.2657 63.9746)" fill="#FD78FF"/>
<rect width="3.0095" height="36.8802" transform="matrix(-4.37114e-08 -1 -1 4.37114e-08 78.2657 9.03516)" fill="#0C115D"/>
<rect width="3.0095" height="36.8802" transform="matrix(-1 8.74228e-08 8.74228e-08 1 32.3649 18.0586)" fill="#0C115D"/>
<rect x="90.3037" y="24.0859" width="3.0095" height="24.8443" fill="#00D8C9"/>
<rect x="72.2504" y="66.9727" width="3.0095" height="24.8443" transform="rotate(90 72.2504 66.9727)" fill="#00D8C9"/>
<rect width="3.0095" height="24.8443" transform="matrix(-4.37114e-08 -1 -1 4.37114e-08 72.2504 6.02539)" fill="#0C115D"/>
<rect width="3.0095" height="24.8443" transform="matrix(-1 8.74228e-08 8.74228e-08 1 29.3461 24.0859)" fill="#0C115D"/>
<rect x="93.3136" y="31.9844" width="3.0095" height="10.917" fill="#00D8C9"/>
<rect x="23.3249" y="30.6074" width="3.01024" height="12.2918" fill="#0C115D"/>
<rect x="64.3449" y="69.9902" width="3.0095" height="9.03072" transform="rotate(90 64.3449 69.9902)" fill="#00D8C9"/>
<rect x="64.3419" y="0.00195312" width="3.0095" height="9.03072" transform="rotate(90 64.3419 0.00195312)" fill="#0C115D"/>
<rect x="29.3461" y="21.0879" width="3.0095" height="3.01147" transform="rotate(90 29.3461 21.0879)" fill="#0C115D"/>
<rect x="47.4068" y="57.9512" width="36.8803" height="3.00901" fill="#FD78FF"/>
<rect x="55.3153" y="54.9453" width="28.9735" height="3.00912" fill="#FD78FF"/>
<rect x="72.2504" y="51.9336" width="12.0361" height="3.00891" fill="#FD78FF"/>
<rect x="72.2504" y="45.918" width="3.00901" height="6.02048" fill="#FD78FF"/>
<rect x="69.2421" y="48.9238" width="3.00901" height="3.01024" fill="#FD78FF"/>
<rect x="68.2303" y="30.1035" width="3.01024" height="4.76621" fill="#FD9CFF"/>
<rect x="59.2037" y="33.8672" width="3.00901" height="3.01024" fill="#FD9CFF"/>
<rect x="68.2333" y="34.8789" width="3.00901" height="3.01024" fill="#FD9CFF"/>
<rect x="68.2333" y="22.832" width="3.00901" height="3.01024" fill="#FD9CFF"/>
<rect x="39.8917" y="20.5781" width="3.00901" height="3.01024" fill="#FEDBFF"/>
<rect x="39.8917" y="17.5664" width="3.00901" height="3.01024" fill="#FEDBFF"/>
<rect x="42.9016" y="14.5566" width="3.00901" height="3.01024" fill="#FEDBFF"/>
<rect x="59.2052" y="39.1367" width="3.00901" height="3.01024" fill="#0F1576"/>
<rect x="33.8735" y="37.8887" width="3.00901" height="3.01024" fill="#0C115D"/>
<rect x="59.2037" y="37.8887" width="3.00901" height="3.01024" fill="#0F1576"/>
<rect x="36.8834" y="40.8945" width="3.00901" height="3.01024" fill="#0C115D"/>
<rect x="56.185" y="37.8887" width="3.00901" height="3.01024" fill="#0F1576"/>
<rect x="56.1983" y="39.1367" width="3.00901" height="3.01024" fill="#0F1576"/>
<rect x="30.8592" y="37.8887" width="3.00901" height="3.01024" fill="#0C115D"/>
<rect x="55.3123" y="69.9902" width="9.03072" height="3.01024" fill="#D0FFFC"/>
<rect x="47.4068" y="66.9727" width="7.90678" height="3.01024" fill="#D0FFFC"/>
<rect x="64.3419" y="66.9727" width="7.90678" height="3.01024" fill="#D0FFFC"/>
<rect x="72.2504" y="63.9746" width="6.01803" height="3.01024" fill="#D0FFFC"/>
<rect x="78.2657" y="60.957" width="3.01024" height="3.01024" fill="#D0FFFC"/>
<rect x="81.2771" y="57.9512" width="3.01024" height="3.01024" fill="#D0FFFC"/>
<rect x="84.2869" y="54.9453" width="3.01024" height="3.01024" fill="#D0FFFC"/>
<rect x="87.2924" y="48.9238" width="3.01024" height="6.01747" fill="#D0FFFC"/>
<rect x="87.2924" y="18.0762" width="3.01024" height="6.01747" fill="#D0FFFC"/>
<rect x="84.281" y="15.0527" width="3.01024" height="3.00901" fill="#D0FFFC"/>
<rect x="90.3037" y="42.9062" width="3.01024" height="6.01754" fill="#D0FFFC"/>
<rect x="90.3037" y="24.0391" width="3.01024" height="7.94377" fill="#D0FFFC"/>
<rect x="93.3136" y="30.8613" width="3.01024" height="12.041" fill="#D0FFFC"/>
<rect width="6.02048" height="3.01024" transform="matrix(4.37114e-08 -1 -1 -4.37114e-08 24.8306 36.8828)" fill="#FEDBFF"/>
<rect width="7.90678" height="3.01024" transform="matrix(4.37114e-08 -1 -1 -4.37114e-08 27.8448 48.9238)" fill="#FEDBFF"/>
<rect width="9.78328" height="3.01024" transform="matrix(4.37114e-08 -1 -1 -4.37114e-08 27.8375 30.8613)" fill="#FEDBFF"/>
<rect width="6.01803" height="3.01024" transform="matrix(4.37114e-08 -1 -1 -4.37114e-08 30.8503 24.0859)" fill="#FEDBFF"/>
<rect width="3.01024" height="3.01024" transform="matrix(4.37114e-08 -1 -1 -4.37114e-08 33.8661 18.0586)" fill="#FEDBFF"/>
<rect width="3.01024" height="3.01024" transform="matrix(4.37114e-08 -1 -1 -4.37114e-08 36.8671 15.0527)" fill="#FEDBFF"/>
<rect width="3.01024" height="3.01024" transform="matrix(4.37114e-08 -1 -1 -4.37114e-08 39.8799 12.0469)" fill="#FEDBFF"/>
<rect width="3.01024" height="6.01747" transform="matrix(4.37114e-08 -1 -1 -4.37114e-08 45.8952 9.03516)" fill="#FEDBFF"/>
<rect width="3.01024" height="6.01747" transform="matrix(4.37114e-08 -1 -1 -4.37114e-08 78.2568 9.03516)" fill="#FEDBFF"/>
<rect width="3.01024" height="3.00901" transform="matrix(4.37114e-08 -1 -1 -4.37114e-08 81.2712 12.0469)" fill="#FEDBFF"/>
<rect width="3.01024" height="6.01754" transform="matrix(4.37114e-08 -1 -1 -4.37114e-08 51.9164 6.02539)" fill="#FEDBFF"/>
<rect width="3.01024" height="12.2918" transform="matrix(4.37114e-08 -1 -1 -4.37114e-08 64.2133 3.01367)" fill="#FEDBFF"/>
<rect x="35.3703" y="57.9512" width="3.00901" height="3.01024" fill="#FD78FF"/>
<rect x="32.3663" y="54.9453" width="3.00901" height="3.01024" fill="#FD78FF"/>
<rect x="35.3732" y="54.9453" width="3.00901" height="3.01024" fill="#FD78FF"/>
<rect x="38.3846" y="57.9512" width="3.00901" height="3.01024" fill="#FD78FF"/>
<rect x="41.4004" y="57.9512" width="3.00901" height="3.01024" fill="#FD78FF"/>
<rect x="29.3579" y="51.9277" width="3.00901" height="3.01024" fill="#FD78FF"/>
<rect x="75.2559" y="41.0195" width="3.01024" height="10.9153" fill="#FD78FF"/>
<rect x="64.3449" y="51.9277" width="7.90678" height="3.00891" fill="#FD78FF"/>
<rect x="81.2771" y="24.0859" width="3.01024" height="6.02552" fill="#FD78FF"/>
<rect x="78.2657" y="48.9238" width="6.01807" height="3.00901" fill="#FD78FF"/>
<rect x="78.2657" y="30.1035" width="6.01807" height="18.819" fill="#FD78FF"/>
<rect x="62.2092" y="25.8438" width="6.02048" height="18.0614" fill="#FD9CFF"/>
<rect x="81.2815" y="57.9512" width="3.01024" height="15.0512" transform="rotate(90 81.2815 57.9512)" fill="#FC35FF"/>
<rect x="84.2928" y="54.9453" width="3.01024" height="15.0512" transform="rotate(90 84.2928 54.9453)" fill="#FC35FF"/>
<rect x="87.3027" y="51.9277" width="3.01024" height="15.0512" transform="rotate(90 87.3027 51.9277)" fill="#FC35FF"/>
<rect x="87.3027" y="48.9238" width="3.01024" height="9.03072" transform="rotate(90 87.3027 48.9238)" fill="#FC35FF"/>
<rect x="90.317" y="45.9121" width="3.01024" height="9.03072" transform="rotate(90 90.317 45.9121)" fill="#FC35FF"/>
<rect x="90.317" y="42.9062" width="3.01024" height="6.02048" transform="rotate(90 90.317 42.9062)" fill="#FC35FF"/>
<rect x="93.321" y="39.8945" width="3.01024" height="3.01024" transform="rotate(90 93.321 39.8945)" fill="#FC35FF"/>
<rect x="90.317" y="39.8945" width="3.01024" height="3.01024" transform="rotate(90 90.317 39.8945)" fill="#FC35FF"/>
<rect x="93.321" y="36.8828" width="3.01024" height="3.01024" transform="rotate(90 93.321 36.8828)" fill="#FC35FF"/>
<rect x="93.321" y="31.8613" width="5.01706" height="3.01024" transform="rotate(90 93.321 31.8613)" fill="#FC35FF"/>
<rect x="90.317" y="24.0859" width="7.77645" height="3.01024" transform="rotate(90 90.317 24.0859)" fill="#FC35FF"/>
<path d="M72.2519 63.9746L72.2519 66.9848L58.2041 66.9848L58.2041 63.9746L72.2519 63.9746Z" fill="#FC35FF"/>
<path d="M64.3508 66.9902L64.3508 70.0005L55.3201 70.0005L55.3201 66.9902L64.3508 66.9902Z" fill="#FC35FF"/>
<path d="M55.197 63.9746L55.197 66.9848L47.4205 66.9848L47.4205 63.9746L55.197 63.9746Z" fill="#FC35FF"/>
<rect x="72.2386" y="54.9453" width="3.00901" height="3.01024" fill="#FD78FF"/>
<rect x="78.2568" y="51.9277" width="3.00901" height="3.01024" fill="#FD78FF"/>
<rect width="111.379" height="3.01024" transform="matrix(-1 0 0 1 111.379 36.8828)" fill="#DB00DE"/>
<rect width="33.1126" height="3.01024" transform="matrix(-1 0 0 1 111.379 36.8828)" fill="#E0FFFD"/>
<rect width="87.2969" height="3.01024" transform="matrix(-1 0 0 1 96.3221 39.8945)" fill="#FB18FF"/>
<rect width="53.4317" height="3.01024" transform="matrix(-1 0 0 1 69.2318 42.9062)" fill="#FC35FF"/>
<rect width="12.7935" height="3.01024" transform="matrix(-1 0 0 1 21.8179 33.8672)" fill="#DB00DE"/>
<rect width="6.02048" height="3.01024" transform="matrix(-1 0 0 1 21.8179 30.8613)" fill="#DB00DE"/>
<rect width="6.02048" height="3.01024" transform="matrix(-1 0 0 1 24.8307 27.8555)" fill="#DB00DE"/>
<rect width="24.0819" height="3.01024" transform="matrix(-1 0 0 1 120.406 33.8672)" fill="#E0FFFD"/>
<rect width="26.5904" height="3.01024" transform="matrix(-1 0 0 1 101.843 39.8945)" fill="#E0FFFD"/>
<rect width="59.4522" height="3.01024" transform="matrix(-1 0 0 1 84.2812 45.9121)" fill="#E0FFFD"/>
<rect width="9.03072" height="3.01024" transform="matrix(-1 0 0 1 24.8307 42.9062)" fill="#E0FFFD"/>
<rect width="9.03072" height="3.01024" transform="matrix(-1 0 0 1 18.061 39.8945)" fill="#E0FFFD"/>
<rect width="24.0819" height="3.01024" transform="matrix(-1 0 0 1 93.3167 42.9062)" fill="#E0FFFD"/>
<rect width="27.8447" height="3.01024" transform="matrix(-1 0 0 1 69.2318 48.918)" fill="#E0FFFD"/>
<rect width="12.041" height="3.01024" transform="matrix(-1 0 0 1 108.365 30.8613)" fill="#E0FFFD"/>
<rect width="6.02048" height="3.01024" transform="matrix(-1 0 0 1 99.3335 27.8555)" fill="#E0FFFD"/>
</svg>
