<svg width="1440" height="536" viewBox="0 0 1440 536" fill="none" xmlns="http://www.w3.org/2000/svg" shape-rendering="crispEdges">
<g clip-path="url(#clip0_1351_33709)">
<rect width="249.689" height="6.29469" transform="matrix(1 0 0 -1 1121.78 37.7832)" fill="#080B3E"/>
<rect width="204.053" height="6.29469" transform="matrix(1 0 0 -1 1135.94 44.0762)" fill="#080B3E"/>
<rect width="94.4203" height="6.29469" transform="matrix(1 0 0 -1 1188.93 50.3672)" fill="#080B3E"/>
<rect width="94.4203" height="12.5894" transform="matrix(1 0 0 -1 1232.99 56.6602)" fill="#080B3E"/>
<rect width="125.894" height="6.29469" transform="matrix(1 0 0 -1 1226.69 62.9629)" fill="#080B3E"/>
<rect width="69.2416" height="6.29469" transform="matrix(1 0 0 -1 1258.17 68.7363)" fill="#080B3E"/>
<rect width="44.0628" height="6.29469" transform="matrix(1 0 0 -1 1283.34 75.0273)" fill="#080B3E"/>
<rect width="6.29469" height="6.29469" transform="matrix(1 0 0 -1 1327.4 81.3203)" fill="#080B3E"/>
<rect width="12.5894" height="6.29469" transform="matrix(1 0 0 -1 1327.4 69.2539)" fill="#080B3E"/>
<rect width="6.29469" height="6.29469" transform="matrix(1 0 0 -1 1352.58 56.6602)" fill="#080B3E"/>
<rect width="6.29469" height="6.29469" transform="matrix(1 0 0 -1 1327.4 56.6602)" fill="#080B3E"/>
<rect width="6.29469" height="6.29469" transform="matrix(1 0 0 -1 1358.88 56.6602)" fill="#080B3E"/>
<rect width="6.29469" height="6.29469" transform="matrix(1 0 0 -1 1365.17 50.3672)" fill="#080B3E"/>
<rect width="249.689" height="6.29469" transform="matrix(1 0 0 -1 1102.89 31.4902)" fill="#080B3E"/>
<rect width="249.689" height="6.29469" transform="matrix(1 0 0 -1 1090.31 25.1992)" fill="#080B3E"/>
<rect width="62.9469" height="6.29469" transform="matrix(1 0 0 -1 1135.94 18.9062)" fill="#080B3E"/>
<rect x="1438.61" y="25.1855" width="249.689" height="6.29469" transform="rotate(-180 1438.61 25.1855)" fill="#080B3E"/>
<rect x="1424.45" y="31.4785" width="204.053" height="6.29469" transform="rotate(-180 1424.45 31.4785)" fill="#080B3E"/>
<rect x="1371.46" y="37.7812" width="94.4203" height="6.29469" transform="rotate(-180 1371.46 37.7812)" fill="#080B3E"/>
<rect x="1327.4" y="44.0723" width="94.4203" height="12.5894" transform="rotate(-180 1327.4 44.0723)" fill="#080B3E"/>
<rect x="1333.7" y="50.3652" width="125.894" height="6.29469" transform="rotate(-180 1333.7 50.3652)" fill="#080B3E"/>
<rect x="1302.22" y="56.1387" width="69.2416" height="6.29469" transform="rotate(-180 1302.22 56.1387)" fill="#080B3E"/>
<rect x="1277.05" y="62.4199" width="44.0628" height="6.29469" transform="rotate(-180 1277.05 62.4199)" fill="#080B3E"/>
<rect x="1232.99" y="68.7227" width="6.29469" height="6.29469" transform="rotate(-180 1232.99 68.7227)" fill="#080B3E"/>
<rect x="1232.99" y="56.6562" width="12.5894" height="6.29469" transform="rotate(-180 1232.99 56.6562)" fill="#080B3E"/>
<rect x="1207.81" y="44.0723" width="6.29469" height="6.29469" transform="rotate(-180 1207.81 44.0723)" fill="#080B3E"/>
<rect x="1232.99" y="44.0723" width="6.29469" height="6.29469" transform="rotate(-180 1232.99 44.0723)" fill="#080B3E"/>
<rect x="1201.51" y="44.0723" width="6.29469" height="6.29469" transform="rotate(-180 1201.51 44.0723)" fill="#080B3E"/>
<rect x="1195.22" y="37.7812" width="6.29469" height="6.29469" transform="rotate(-180 1195.22 37.7812)" fill="#080B3E"/>
<rect x="1457.5" y="18.8828" width="249.689" height="6.29469" transform="rotate(-180 1457.5 18.8828)" fill="#080B3E"/>
<rect x="1470.08" y="12.5898" width="249.689" height="6.29469" transform="rotate(-180 1470.08 12.5898)" fill="#080B3E"/>
<rect x="1424.45" y="6.29883" width="62.9469" height="6.29469" transform="rotate(-180 1424.45 6.29883)" fill="#080B3E"/>
<rect x="1327.4" y="107.02" width="249.689" height="6.29469" transform="rotate(-180 1327.4 107.02)" fill="#080B3E"/>
<rect x="1313.24" y="113.312" width="204.053" height="6.29469" transform="rotate(-180 1313.24 113.312)" fill="#080B3E"/>
<rect x="1260.26" y="119.604" width="94.4203" height="6.29469" transform="rotate(-180 1260.26 119.604)" fill="#080B3E"/>
<rect x="1216.19" y="125.896" width="94.4203" height="12.5894" transform="rotate(-180 1216.19 125.896)" fill="#080B3E"/>
<rect x="1222.49" y="132.199" width="125.894" height="6.29469" transform="rotate(-180 1222.49 132.199)" fill="#080B3E"/>
<rect x="1191.01" y="137.973" width="69.2416" height="6.29469" transform="rotate(-180 1191.01 137.973)" fill="#080B3E"/>
<rect x="1165.84" y="144.264" width="44.0628" height="6.29469" transform="rotate(-180 1165.84 144.264)" fill="#080B3E"/>
<rect x="1121.78" y="150.557" width="6.29469" height="6.29469" transform="rotate(-180 1121.78 150.557)" fill="#080B3E"/>
<rect x="1121.78" y="138.49" width="12.5894" height="6.29469" transform="rotate(-180 1121.78 138.49)" fill="#080B3E"/>
<rect x="1096.6" y="125.896" width="6.29469" height="6.29469" transform="rotate(-180 1096.6 125.896)" fill="#080B3E"/>
<rect x="1121.78" y="125.896" width="6.29469" height="6.29469" transform="rotate(-180 1121.78 125.896)" fill="#080B3E"/>
<rect x="1090.3" y="125.896" width="6.29469" height="6.29469" transform="rotate(-180 1090.3 125.896)" fill="#080B3E"/>
<rect x="1084.01" y="119.604" width="6.29469" height="6.29469" transform="rotate(-180 1084.01 119.604)" fill="#080B3E"/>
<rect x="1346.29" y="100.727" width="249.689" height="6.29469" transform="rotate(-180 1346.29 100.727)" fill="#080B3E"/>
<rect x="1358.88" y="94.4355" width="249.689" height="6.29469" transform="rotate(-180 1358.88 94.4355)" fill="#080B3E"/>
<rect x="1313.24" y="88.1426" width="62.9469" height="6.29469" transform="rotate(-180 1313.24 88.1426)" fill="#080B3E"/>
<rect width="249.689" height="6.29469" transform="matrix(1 0 0 -1 1008.48 75.5469)" fill="#080B3E"/>
<rect width="75.5362" height="6.29469" transform="matrix(1 0 0 -1 1008.48 50.8867)" fill="#080B3E"/>
<rect width="204.053" height="6.29469" transform="matrix(1 0 0 -1 1022.63 81.8281)" fill="#080B3E"/>
<rect width="94.4203" height="6.29469" transform="matrix(1 0 0 -1 1075.62 88.1309)" fill="#080B3E"/>
<rect width="94.4203" height="12.5894" transform="matrix(1 0 0 -1 1119.68 94.4238)" fill="#080B3E"/>
<rect width="125.894" height="6.29469" transform="matrix(1 0 0 -1 1113.39 100.727)" fill="#080B3E"/>
<rect width="69.2416" height="6.29469" transform="matrix(1 0 0 -1 1144.86 106.488)" fill="#080B3E"/>
<rect width="44.0628" height="6.29469" transform="matrix(1 0 0 -1 1170.04 112.781)" fill="#080B3E"/>
<rect width="6.29469" height="6.29469" transform="matrix(1 0 0 -1 1214.1 119.074)" fill="#080B3E"/>
<rect width="12.5894" height="6.29469" transform="matrix(1 0 0 -1 1214.1 107.008)" fill="#080B3E"/>
<rect width="6.29469" height="6.29469" transform="matrix(1 0 0 -1 1239.28 94.4238)" fill="#080B3E"/>
<rect width="6.29469" height="6.29469" transform="matrix(1 0 0 -1 1214.1 94.4238)" fill="#080B3E"/>
<rect width="6.29469" height="6.29469" transform="matrix(1 0 0 -1 1245.58 94.4238)" fill="#080B3E"/>
<rect width="6.29469" height="6.29469" transform="matrix(1 0 0 -1 1251.87 88.1309)" fill="#080B3E"/>
<rect width="249.689" height="6.29469" transform="matrix(1 0 0 -1 989.585 69.2441)" fill="#080B3E"/>
<rect width="260.705" height="12.5894" transform="matrix(1 0 0 -1 977 62.9512)" fill="#080B3E"/>
<rect width="62.9469" height="6.29469" transform="matrix(1 0 0 -1 1022.63 56.6484)" fill="#080B3E"/>
<rect width="6.29469" height="6.29469" transform="matrix(-1 0 0 1 1074.57 57.709)" fill="#D9D9D9"/>
<rect width="6.29469" height="6.29469" transform="matrix(-1 0 0 1 1221.44 50.8867)" fill="#FD9CFF"/>
<rect width="6.29469" height="6.29469" transform="matrix(4.37114e-08 -1 -1 -4.37114e-08 1358.88 62.9512)" fill="#FD9CFF"/>
<rect width="6.29469" height="6.29469" transform="matrix(-1 0 0 1 954.295 32.0039)" fill="#FD9CFF"/>
<rect width="6.29469" height="6.29469" transform="matrix(-1 0 0 1 1231.94 19.4141)" fill="#D9D9D9"/>
<rect width="6.29469" height="6.29469" transform="matrix(4.37114e-08 -1 -1 -4.37114e-08 1390.36 73.4395)" fill="#D9D9D9"/>
<rect width="6.29469" height="6.29469" transform="matrix(4.37114e-08 -1 -1 -4.37114e-08 1333.7 107.008)" fill="#D9D9D9"/>
<rect x="1299.06" y="44.5957" width="6.28945" height="6.28945" transform="rotate(90 1299.06 44.5957)" fill="white"/>
<rect opacity="0.6" x="1299.06" y="50.8867" width="6.28945" height="6.28945" transform="rotate(90 1299.06 50.8867)" fill="white"/>
<rect opacity="0.6" x="1299.06" y="38.3027" width="6.28945" height="6.28945" transform="rotate(90 1299.06 38.3027)" fill="white"/>
<rect opacity="0.6" x="1292.77" y="50.8867" width="6.28945" height="6.28945" transform="rotate(-180 1292.77 50.8867)" fill="white"/>
<rect opacity="0.6" x="1305.35" y="50.8867" width="6.28945" height="6.28945" transform="rotate(-180 1305.35 50.8867)" fill="white"/>
<rect opacity="0.3" x="1311.64" y="50.8867" width="6.28945" height="6.28945" transform="rotate(-180 1311.64 50.8867)" fill="white"/>
<rect opacity="0.3" x="1286.49" y="50.8867" width="6.28945" height="6.28945" transform="rotate(-180 1286.49 50.8867)" fill="white"/>
<rect opacity="0.3" x="1292.77" y="63.4609" width="6.28945" height="6.28945" transform="rotate(-90 1292.77 63.4609)" fill="white"/>
<rect opacity="0.3" x="1292.77" y="69.752" width="6.28945" height="6.28945" transform="rotate(-90 1292.77 69.752)" fill="white"/>
<rect opacity="0.3" x="1292.77" y="38.3027" width="6.28945" height="6.28945" transform="rotate(-90 1292.77 38.3027)" fill="white"/>
<rect opacity="0.3" x="1292.77" y="32.0215" width="6.28945" height="6.28945" transform="rotate(-90 1292.77 32.0215)" fill="white"/>
<rect x="1109.19" y="81.8281" width="62.9469" height="6.29469" fill="#0C115D"/>
<rect x="1120.73" y="88.1309" width="75.5362" height="6.29469" fill="#0C115D"/>
<rect x="1196.26" y="94.4238" width="50.3575" height="6.29469" fill="#0C115D"/>
<rect x="1145.91" y="100.727" width="50.3575" height="6.29469" fill="#0C115D"/>
<rect x="1157.45" y="69.2461" width="6.29469" height="6.29469" fill="#454EE7"/>
<rect x="1188.93" y="37.7637" width="6.29469" height="6.29469" fill="#07FFEE"/>
<rect x="1163.75" y="62.9531" width="6.29469" height="6.29469" fill="#5E66EA"/>
<rect x="1195.21" y="31.4707" width="6.29469" height="6.29469" fill="#5CFFF4"/>
<rect x="1170.03" y="56.6504" width="6.29469" height="6.29469" fill="#5CFFF4"/>
<rect x="1201.51" y="25.1797" width="6.29469" height="6.29469" fill="#5E66EA"/>
<rect x="1176.33" y="50.3691" width="6.29469" height="6.29469" fill="#07FFEE"/>
<rect x="1207.81" y="18.8867" width="6.29469" height="6.29469" fill="#454EE7"/>
<rect x="1182.63" y="44.0664" width="6.29469" height="6.29469" fill="white"/>
<rect x="1176.33" y="37.7637" width="6.29469" height="6.29469" fill="#07FFEE"/>
<rect x="1188.93" y="50.3691" width="6.29469" height="6.29469" fill="#07FFEE"/>
<path d="M574.109 436.882H599.815V443.309H553.544V448.45H538.12V453.591H522.696V458.732H527.838V463.874H553.544V469.063C553.544 469.071 574.109 469.063 574.109 469.063V474.165H610.098V479.298H646.087V484.439H666.223V489.58H676.506V494.73H702.212V499.867H712.495V505.004L0 504.79V41.0039H6.85503V51.2865H17.1376V56.4277H22.2789V61.569H53.1265V66.7103H63.409V71.8516H78.8329V76.9928H83.9741V82.1341H89.1154V87.2754H94.2567V92.479H99.398V97.5579H119.963V102.699H125.104V112.982H130.246V123.264H135.387V128.406H140.528V133.547H145.669V138.688H155.952V143.829H161.093V153.684H171.376V184.531H176.517V189.672H181.658V199.578V215.379H186.8V220.52H191.941V230.803H212.506V225.661H227.93V220.517H289.625V225.661H284.451V241.085H279.343L279.376 271.933H274.201V277.074H263.919V291.213H253.636V339.198H258.777V344.339H269.06V354.648L274.201 354.622V359.763H305.049V370.045H353.034V380.328H394.164V370.045H404.447V364.904H419.871V370.045H425.012V375.187H435.295V380.328H440.436V385.469H450.718V390.611H455.86V395.752H461.001V400.893H471.283V411.176H481.566V416.317H496.99V421.458H517.555V426.599H527.838V431.741H574.109V436.882Z" fill="#0C115D"/>
<rect x="394.164" y="390.609" width="5.14127" height="5.14127" fill="#00D8C9"/>
<rect x="389.023" y="390.609" width="5.14127" height="5.14127" fill="#00D8C9"/>
<rect x="399.305" y="385.469" width="5.14127" height="5.14127" fill="#00D8C9"/>
<rect x="404.438" y="390.609" width="5.14127" height="5.14127" fill="#00D8C9"/>
<rect x="378.742" y="385.469" width="10.2825" height="5.14127" fill="#5CFFF4"/>
<rect x="378.742" y="375.184" width="15.4238" height="5.14127" fill="#5CFFF4"/>
<rect x="368.453" y="380.328" width="10.2825" height="5.14127" fill="#5CFFF4"/>
<rect x="342.746" y="380.328" width="10.2825" height="5.14127" fill="#5CFFF4"/>
<rect x="294.758" y="359.762" width="10.2825" height="5.14127" fill="#5CFFF4"/>
<rect x="305.047" y="370.039" width="47.9852" height="5.14127" fill="#5CFFF4"/>
<rect x="358.176" y="385.469" width="10.2825" height="5.14127" fill="#5CFFF4"/>
<rect x="347.891" y="390.609" width="10.2825" height="5.14127" fill="#5CFFF4"/>
<rect x="378.742" y="380.328" width="15.4238" height="5.14127" fill="#5CFFF4"/>
<rect x="399.305" y="370.039" width="5.14127" height="5.14127" fill="#5CFFF4"/>
<rect x="394.164" y="370.039" width="5.14127" height="5.14127" fill="#5CFFF4"/>
<rect x="404.438" y="364.902" width="5.14127" height="5.14127" fill="#5CFFF4"/>
<rect x="404.438" y="380.328" width="5.14127" height="5.14127" fill="#00D8C9"/>
<rect x="409.586" y="385.469" width="5.14127" height="5.14127" fill="#00D8C9"/>
<rect x="409.586" y="375.184" width="5.14127" height="5.14127" fill="#00D8C9"/>
<rect x="414.727" y="380.328" width="5.14127" height="5.14127" fill="#00D8C9"/>
<rect x="414.727" y="370.039" width="5.14127" height="5.14127" fill="#00D8C9"/>
<rect x="409.586" y="370.039" width="5.14127" height="5.14127" fill="#00D8C9"/>
<rect x="404.438" y="375.184" width="5.14127" height="5.14127" fill="#00D8C9"/>
<rect x="399.305" y="380.328" width="5.14127" height="5.14127" fill="#00D8C9"/>
<rect x="394.164" y="385.469" width="5.14127" height="5.14127" fill="#00D8C9"/>
<rect x="394.164" y="380.328" width="5.14127" height="5.14127" fill="#07FFEE"/>
<rect x="389.023" y="385.469" width="5.14127" height="5.14127" fill="#07FFEE"/>
<rect x="337.609" y="375.184" width="5.14127" height="5.14127" fill="#07FFEE"/>
<rect x="289.621" y="364.902" width="5.14127" height="5.14127" fill="#07FFEE"/>
<rect x="383.879" y="390.609" width="5.14127" height="5.14127" fill="#07FFEE"/>
<rect x="332.465" y="380.328" width="5.14127" height="5.14127" fill="#07FFEE"/>
<rect x="284.48" y="370.039" width="5.14127" height="5.14127" fill="#07FFEE"/>
<rect x="399.305" y="375.184" width="5.14127" height="5.14127" fill="#07FFEE"/>
<rect x="394.164" y="375.184" width="5.14127" height="5.14127" fill="#07FFEE"/>
<rect x="404.438" y="370.039" width="5.14127" height="5.14127" fill="#07FFEE"/>
<rect x="409.586" y="364.902" width="5.14127" height="5.14127" fill="#5CFFF4"/>
<rect width="5.14127" height="5.14127" transform="matrix(-1 0 0 1 202.23 246.223)" fill="#00D8C9"/>
<rect width="5.14127" height="5.14127" transform="matrix(-1 0 0 1 207.371 246.223)" fill="#00D8C9"/>
<rect width="5.14127" height="5.14127" transform="matrix(-1 0 0 1 197.086 241.074)" fill="#00D8C9"/>
<rect width="5.14127" height="5.14127" transform="matrix(-1 0 0 1 191.941 246.223)" fill="#00D8C9"/>
<rect width="10.2825" height="5.14127" transform="matrix(-1 0 0 1 217.652 241.074)" fill="#5CFFF4"/>
<rect width="15.4238" height="5.14127" transform="matrix(-1 0 0 1 217.652 230.797)" fill="#5CFFF4"/>
<rect width="25.7064" height="5.14127" transform="matrix(-1 0 0 1 253.641 220.512)" fill="#5CFFF4"/>
<rect width="15.4238" height="5.14127" transform="matrix(-1 0 0 1 227.934 225.656)" fill="#5CFFF4"/>
<rect width="15.4238" height="5.14127" transform="matrix(-1 0 0 1 217.652 235.938)" fill="#5CFFF4"/>
<rect width="5.14127" height="5.14127" transform="matrix(-1 0 0 1 197.086 225.656)" fill="#5CFFF4"/>
<rect width="5.14127" height="5.14127" transform="matrix(-1 0 0 1 202.23 225.656)" fill="#5CFFF4"/>
<rect width="5.14127" height="5.14127" transform="matrix(-1 0 0 1 191.941 220.512)" fill="#5CFFF4"/>
<rect width="5.14127" height="5.14127" transform="matrix(-1 0 0 1 186.805 215.367)" fill="#5CFFF4"/>
<rect width="5.14127" height="5.14127" transform="matrix(-1 0 0 1 176.523 184.52)" fill="#5CFFF4"/>
<rect width="10.2825" height="5.14127" transform="matrix(-1 0 0 1 171.379 153.68)" fill="#5CFFF4"/>
<rect width="10.2825" height="5.14127" transform="matrix(-1 0 0 1 161.098 143.816)" fill="#5CFFF4"/>
<rect width="10.2825" height="5.14127" transform="matrix(-1 0 0 1 155.957 138.68)" fill="#5CFFF4"/>
<rect width="5.14127" height="5.14127" transform="matrix(-1 0 0 1 145.676 133.543)" fill="#5CFFF4"/>
<rect width="5.14127" height="5.14127" transform="matrix(-1 0 0 1 140.531 133.543)" fill="#07FFEE"/>
<rect width="5.14127" height="5.14127" transform="matrix(-1 0 0 1 150.816 148.961)" fill="#07FFEE"/>
<rect width="5.14127" height="5.14127" transform="matrix(-1 0 0 1 145.676 143.816)" fill="#07FFEE"/>
<rect width="5.14127" height="5.14127" transform="matrix(-1 0 0 1 140.531 138.68)" fill="#07FFEE"/>
<rect width="5.14127" height="5.14127" transform="matrix(-1 0 0 1 135.391 133.543)" fill="#07FFEE"/>
<rect width="5.14127" height="5.14127" transform="matrix(-1 0 0 1 130.25 128.398)" fill="#07FFEE"/>
<rect width="5.14127" height="5.14127" transform="matrix(-1 0 0 1 125.105 123.254)" fill="#07FFEE"/>
<rect width="5.14127" height="5.14127" transform="matrix(-1 0 0 1 130.25 118.113)" fill="#07FFEE"/>
<rect width="5.14127" height="5.14127" transform="matrix(-1 0 0 1 125.105 112.977)" fill="#07FFEE"/>
<rect width="5.14127" height="5.14127" transform="matrix(-1 0 0 1 119.969 118.113)" fill="#07FFEE"/>
<rect width="5.14127" height="5.14127" transform="matrix(-1 0 0 1 140.531 128.398)" fill="#5CFFF4"/>
<rect width="5.14127" height="5.14127" transform="matrix(-1 0 0 1 135.391 123.254)" fill="#5CFFF4"/>
<rect width="5.14127" height="5.14127" transform="matrix(-1 0 0 1 130.25 112.977)" fill="#5CFFF4"/>
<rect width="5.14127" height="10.2825" transform="matrix(-1 0 0 1 125.105 102.691)" fill="#5CFFF4"/>
<rect width="20.5651" height="5.14127" transform="matrix(-1 0 0 1 119.969 97.5508)" fill="#5CFFF4"/>
<rect width="5.14127" height="5.14127" transform="matrix(-1 0 0 1 99.3984 92.4102)" fill="#5CFFF4"/>
<rect width="5.14127" height="5.14127" transform="matrix(-1 0 0 1 94.2656 87.2656)" fill="#5CFFF4"/>
<rect width="5.14127" height="5.14127" transform="matrix(-1 0 0 1 89.1172 82.1211)" fill="#5CFFF4"/>
<rect width="5.14127" height="5.14127" transform="matrix(-1 0 0 1 83.9805 76.9844)" fill="#5CFFF4"/>
<rect width="5.14127" height="5.14127" transform="matrix(-1 0 0 1 78.8359 71.8438)" fill="#5CFFF4"/>
<rect width="5.14127" height="25.7064" transform="matrix(-1 0 0 1 181.668 189.664)" fill="#5CFFF4"/>
<rect width="5.14127" height="5.14127" transform="matrix(-1 0 0 1 191.941 235.938)" fill="#00D8C9"/>
<rect width="5.14127" height="5.14127" transform="matrix(-1 0 0 1 186.805 241.074)" fill="#00D8C9"/>
<rect width="5.14127" height="5.14127" transform="matrix(-1 0 0 1 186.805 230.797)" fill="#00D8C9"/>
<rect width="5.14127" height="5.14127" transform="matrix(-1 0 0 1 181.668 235.938)" fill="#00D8C9"/>
<rect width="5.14127" height="5.14127" transform="matrix(-1 0 0 1 181.668 225.656)" fill="#00D8C9"/>
<rect width="5.14127" height="5.14127" transform="matrix(-1 0 0 1 186.805 225.656)" fill="#00D8C9"/>
<rect width="5.14127" height="5.14127" transform="matrix(-1 0 0 1 191.941 230.797)" fill="#00D8C9"/>
<rect width="5.14127" height="5.14127" transform="matrix(-1 0 0 1 197.086 235.938)" fill="#00D8C9"/>
<rect width="5.14127" height="5.14127" transform="matrix(-1 0 0 1 202.23 241.074)" fill="#00D8C9"/>
<rect width="5.14127" height="5.14127" transform="matrix(-1 0 0 1 202.23 235.938)" fill="#07FFEE"/>
<rect width="5.14127" height="5.14127" transform="matrix(-1 0 0 1 207.371 241.074)" fill="#07FFEE"/>
<rect width="5.14127" height="5.14127" transform="matrix(-1 0 0 1 212.508 246.223)" fill="#07FFEE"/>
<rect width="5.14127" height="5.14127" transform="matrix(-1 0 0 1 197.086 230.797)" fill="#07FFEE"/>
<rect width="5.14127" height="5.14127" transform="matrix(-1 0 0 1 202.23 230.797)" fill="#07FFEE"/>
<rect width="5.14127" height="5.14127" transform="matrix(-1 0 0 1 191.941 225.656)" fill="#07FFEE"/>
<rect width="5.14127" height="5.14127" transform="matrix(-1 0 0 1 186.805 220.512)" fill="#5CFFF4"/>
<rect width="174.496" height="93.0647" transform="matrix(-1 0 0 1 559.342 413.988)" fill="#D0E2F4"/>
<rect width="83.3704" height="55.8388" transform="matrix(-1 0 0 1 373.213 451.219)" fill="#D0E2F4"/>
<rect width="93.0647" height="46.5323" transform="matrix(-1 0 0 1 612.857 460.523)" fill="#D0E2F4"/>
<rect width="69.7985" height="27.9194" transform="matrix(-1 0 0 1 589.592 432.605)" fill="#D0E2F4"/>
<rect width="83.7582" height="32.5726" transform="matrix(4.37114e-08 1 1 -4.37114e-08 449.99 330.234)" fill="#F4F6F8"/>
<rect width="27.9194" height="9.30647" transform="matrix(4.37114e-08 1 1 -4.37114e-08 459.303 330.234)" fill="#FD78FF"/>
<rect width="4.65323" height="9.30647" transform="matrix(4.37114e-08 1 1 -4.37114e-08 459.303 330.234)" fill="#FFF7FF"/>
<rect width="4.65323" height="4.65323" transform="matrix(4.37114e-08 1 1 -4.37114e-08 459.303 334.891)" fill="#FFF7FF"/>
<rect width="9.30647" height="9.30647" transform="matrix(4.37114e-08 1 1 -4.37114e-08 449.99 330.234)" fill="#FD78FF"/>
<rect width="4.65323" height="4.65323" transform="matrix(4.37114e-08 1 1 -4.37114e-08 454.646 339.535)" fill="#FD78FF"/>
<rect width="4.65323" height="9.30647" transform="matrix(4.37114e-08 1 1 -4.37114e-08 468.603 330.234)" fill="#FD78FF"/>
<rect width="4.65323" height="4.65323" transform="matrix(4.37114e-08 1 1 -4.37114e-08 468.603 334.891)" fill="#FD78FF"/>
<rect width="4.65323" height="4.65323" transform="matrix(4.37114e-08 1 1 -4.37114e-08 459.303 358.152)" fill="#FD78FF"/>
<rect width="4.65323" height="4.65323" transform="matrix(4.37114e-08 1 1 -4.37114e-08 454.646 362.805)" fill="#FD78FF"/>
<rect width="37.2259" height="27.9194" transform="matrix(4.37114e-08 1 1 -4.37114e-08 477.916 386.074)" fill="#F4F6F8"/>
<rect width="46.5323" height="27.9194" transform="matrix(-1 0 0 1 659.388 479.137)" fill="#D0E2F4"/>
<rect width="34.8993" height="69.7985" transform="matrix(-1 0 0 1 384.846 437.258)" fill="#D0E2F4"/>
<rect width="23.2662" height="23.2662" transform="matrix(-1 0 0 1 289.846 483.789)" fill="#D0E2F4"/>
<rect width="23.6539" height="13.9597" transform="matrix(-1 0 0 1 257.271 497.754)" fill="#D0E2F4"/>
<rect width="4.65323" height="4.65323" transform="matrix(-1 0 0 1 326.678 432.605)" fill="#D0E2F4"/>
<rect width="4.65323" height="4.65323" transform="matrix(-1 0 0 1 326.678 441.914)" fill="#D0E2F4"/>
<rect width="13.9597" height="4.65323" transform="matrix(-1 0 0 1 326.678 446.566)" fill="#D0E2F4"/>
<rect width="9.30647" height="9.30647" transform="matrix(-1 0 0 1 252.615 507.055)" fill="#D0E2F4"/>
<rect width="4.65323" height="4.65323" transform="matrix(-1 0 0 1 247.967 502.402)" fill="#D0E2F4"/>
<rect width="4.65323" height="4.65323" transform="matrix(-1 0 0 1 257.271 511.711)" fill="#D0E2F4"/>
<rect width="4.65323" height="18.6129" transform="matrix(-1 0 0 1 261.924 497.754)" fill="#D0E2F4"/>
<rect width="4.65323" height="13.9597" transform="matrix(-1 0 0 1 266.58 507.055)" fill="#D0E2F4"/>
<rect width="9.30647" height="9.30647" transform="matrix(-1 0 0 1 275.881 507.055)" fill="#D0E2F4"/>
<rect width="4.65323" height="4.65323" transform="matrix(-1 0 0 1 280.541 507.055)" fill="#D0E2F4"/>
<rect width="4.65323" height="4.65323" transform="matrix(-1 0 0 1 266.58 502.402)" fill="#D0E2F4"/>
<rect width="4.65323" height="4.65323" transform="matrix(-1 0 0 1 266.58 497.754)" fill="#D0E2F4"/>
<rect width="4.65323" height="4.65323" transform="matrix(-1 0 0 1 266.58 493.098)" fill="#D0E2F4"/>
<rect width="4.65323" height="4.65323" transform="matrix(-1 0 0 1 266.58 521.02)" fill="#D0E2F4"/>
<rect width="9.30647" height="4.65323" transform="matrix(-1 0 0 1 224.307 511.711)" fill="#D0E2F4"/>
<rect width="13.9597" height="4.65323" transform="matrix(-1 0 0 1 261.924 516.367)" fill="#D0E2F4"/>
<rect width="4.65323" height="13.9597" transform="matrix(-1 0 0 1 331.338 437.258)" fill="#D0E2F4"/>
<rect width="4.65323" height="9.30647" transform="matrix(-1 0 0 1 335.99 441.914)" fill="#D0E2F4"/>
<rect width="4.65323" height="4.65323" transform="matrix(-1 0 0 1 349.947 446.566)" fill="#D0E2F4"/>
<rect width="4.65323" height="4.65323" transform="matrix(-1 0 0 1 340.639 446.566)" fill="#D0E2F4"/>
<rect width="4.65323" height="4.65323" transform="matrix(-1 0 0 1 366.232 432.605)" fill="#D0E2F4"/>
<rect width="13.9597" height="4.65323" transform="matrix(-1 0 0 1 384.846 423.301)" fill="#D0E2F4"/>
<rect width="13.9597" height="4.65323" transform="matrix(-1 0 0 1 384.846 418.648)" fill="#D0E2F4"/>
<rect width="4.65323" height="4.65323" transform="matrix(-1 0 0 1 384.846 413.988)" fill="#D0E2F4"/>
<rect width="4.65323" height="9.30647" transform="matrix(-1 0 0 1 233.619 502.402)" fill="#D0E2F4"/>
<rect width="4.65323" height="4.65323" transform="matrix(-1 0 0 1 228.967 507.055)" fill="#D0E2F4"/>
<rect width="4.65323" height="4.65323" transform="matrix(-1 0 0 1 257.271 493.098)" fill="#D0E2F4"/>
<rect width="4.65323" height="4.65323" transform="matrix(-1 0 0 1 242.924 493.098)" fill="#D0E2F4"/>
<rect width="4.65323" height="4.65323" transform="matrix(-1 0 0 1 238.271 493.098)" fill="#D0E2F4"/>
<rect width="4.65323" height="4.65323" transform="matrix(-1 0 0 1 233.619 497.754)" fill="#D0E2F4"/>
<rect width="4.65323" height="4.65323" transform="matrix(-1 0 0 1 228.967 502.402)" fill="#D0E2F4"/>
<rect width="4.65323" height="4.65323" transform="matrix(-1 0 0 1 224.307 507.055)" fill="#D0E2F4"/>
<rect width="9.69424" height="4.65323" transform="matrix(-1 0 0 1 252.615 493.098)" fill="#D0E2F4"/>
<rect width="9.30647" height="4.65323" transform="matrix(-1 0 0 1 252.228 488.441)" fill="#D0E2F4"/>
<rect width="9.30647" height="23.2662" transform="matrix(-1 0 0 1 575.631 409.34)" fill="#D0E2F4"/>
<rect width="4.65323" height="13.9597" transform="matrix(-1 0 0 1 580.287 418.648)" fill="#D0E2F4"/>
<rect width="4.65323" height="9.30647" transform="matrix(-1 0 0 1 584.935 423.301)" fill="#D0E2F4"/>
<rect width="9.30647" height="18.6129" transform="matrix(-1 0 0 1 598.892 441.914)" fill="#D0E2F4"/>
<rect width="4.65323" height="9.30647" transform="matrix(-1 0 0 1 603.553 451.219)" fill="#D0E2F4"/>
<rect width="9.30647" height="9.30647" transform="matrix(-1 0 0 1 519.787 404.688)" fill="#D0E2F4"/>
<rect width="9.30647" height="9.30647" transform="matrix(-1 0 0 1 524.443 404.688)" fill="#D0E2F4"/>
<rect width="9.30647" height="9.30647" transform="matrix(-1 0 0 1 422.072 404.688)" fill="#D0E2F4"/>
<rect width="9.30647" height="18.6129" transform="matrix(-1 0 0 1 487.217 344.195)" fill="#F4F6F8"/>
<rect width="9.30647" height="23.2662" transform="matrix(-1 0 0 1 431.377 390.727)" fill="#F4F6F8"/>
<rect width="9.30647" height="9.30647" transform="matrix(-1 0 0 1 403.463 423.301)" fill="#F4F6F8"/>
<rect x="479.467" y="431.828" width="9.30647" height="9.30647" fill="#F4F6F8"/>
<rect width="4.65323" height="4.65323" transform="matrix(-1 0 0 1 394.154 427.953)" fill="#F4F6F8"/>
<rect x="488.771" y="436.48" width="4.65323" height="4.65323" fill="#F4F6F8"/>
<rect width="4.65323" height="4.65323" transform="matrix(-1 0 0 1 394.154 432.605)" fill="#F4F6F8"/>
<rect x="488.771" y="441.133" width="4.65323" height="4.65323" fill="#F4F6F8"/>
<rect width="4.65323" height="4.65323" transform="matrix(-1 0 0 1 529.099 409.34)" fill="#D0E2F4"/>
<rect width="27.9194" height="4.65323" transform="matrix(-1 0 0 1 412.767 409.34)" fill="#D0E2F4"/>
<rect width="4.65323" height="4.65323" transform="matrix(-1 0 0 1 422.072 400.035)" fill="#D0E2F4"/>
<rect width="4.65323" height="4.65323" transform="matrix(-1 0 0 1 431.377 386.074)" fill="#F4F6F8"/>
<rect width="4.65323" height="4.65323" transform="matrix(-1 0 0 1 519.787 400.035)" fill="#D0E2F4"/>
<rect width="4.65323" height="4.65323" transform="matrix(-1 0 0 1 491.873 358.152)" fill="#F4F6F8"/>
<rect width="4.65323" height="9.30647" transform="matrix(-1 0 0 1 431.377 358.152)" fill="#D0E2F4"/>
<rect width="4.65323" height="13.9597" transform="matrix(-1 0 0 1 449.99 334.891)" fill="#F4F6F8"/>
<rect width="4.65323" height="4.65323" transform="matrix(-1 0 0 1 445.342 344.195)" fill="#F4F6F8"/>
<rect width="4.65323" height="4.65323" transform="matrix(-1 0 0 1 510.486 409.34)" fill="#D0E2F4"/>
<rect width="9.30647" height="23.2662" transform="matrix(-1 0 0 1 515.138 390.727)" fill="#F4F6F8"/>
<rect width="18.6129" height="23.2662" transform="matrix(-1 0 0 1 496.525 362.805)" fill="#F4F6F8"/>
<rect width="18.6129" height="65.1453" transform="matrix(-1 0 0 1 449.99 348.848)" fill="#F4F6F8"/>
<rect width="4.65323" height="4.65323" transform="matrix(-1 0 0 1 529.099 390.727)" fill="#D0E2F4"/>
<rect width="4.65323" height="4.65323" transform="matrix(-1 0 0 1 561.67 390.727)" fill="#D0E2F4"/>
<rect width="27.9194" height="9.30647" transform="matrix(-1 0 0 1 557.017 386.074)" fill="#D0E2F4"/>
<rect width="9.30647" height="9.30647" transform="matrix(-1 0 0 1 622.162 469.832)" fill="#D0E2F4"/>
<rect width="27.9194" height="4.65323" transform="matrix(-1 0 0 1 650.076 474.484)" fill="#D0E2F4"/>
<rect width="27.9194" height="4.65323" transform="matrix(-1 0 0 1 687.306 502.402)" fill="#D0E2F4"/>
<rect width="9.30647" height="9.30647" transform="matrix(-1 0 0 1 668.693 493.098)" fill="#D0E2F4"/>
<rect width="4.65323" height="4.65323" transform="matrix(-1 0 0 1 673.346 497.754)" fill="#D0E2F4"/>
<rect width="18.6129" height="9.30647" transform="matrix(-1 0 0 1 384.846 427.953)" fill="#D0E2F4"/>
<rect width="13.9597" height="13.9597" transform="matrix(-1 0 0 1 289.846 469.832)" fill="#D0E2F4"/>
<rect width="9.30647" height="9.30647" transform="matrix(-1 0 0 1 289.846 460.523)" fill="#D0E2F4"/>
<rect width="46.5323" height="9.30647" transform="matrix(-1 0 0 1 566.322 423.301)" fill="#D0E2F4"/>
<rect width="46.5323" height="27.9194" transform="matrix(-1 0 0 1 566.322 395.379)" fill="#D0E2F4"/>
<rect width="46.5323" height="9.30647" transform="matrix(-1 0 0 1 489.541 507.055)" fill="#D0E2F4"/>
<rect width="18.6129" height="9.30647" transform="matrix(-1 0 0 1 443.014 507.055)" fill="#D0E2F4"/>
<rect width="9.30647" height="4.65323" transform="matrix(-1 0 0 1 424.396 507.055)" fill="#D0E2F4"/>
<rect width="23.2662" height="9.30647" transform="matrix(-1 0 0 1 466.279 516.367)" fill="#D0E2F4"/>
<rect width="9.30647" height="9.30647" transform="matrix(-1 0 0 1 452.322 525.668)" fill="#D0E2F4"/>
<rect width="32.5726" height="9.30647" transform="matrix(-1 0 0 1 615.181 507.055)" fill="#D0E2F4"/>
<rect width="9.30647" height="4.65323" transform="matrix(-1 0 0 1 602.002 516.367)" fill="#D0E2F4"/>
<rect width="4.65323" height="4.65323" transform="matrix(-1 0 0 1 606.65 521.02)" fill="#D0E2F4"/>
<rect width="4.65323" height="4.65323" transform="matrix(-1 0 0 1 582.611 507.055)" fill="#D0E2F4"/>
<rect width="46.5323" height="4.65323" transform="matrix(-1 0 0 1 536.08 507.055)" fill="#D0E2F4"/>
<rect width="4.65323" height="4.65323" transform="matrix(-1 0 0 1 443.014 530.324)" fill="#D0E2F4"/>
<rect width="4.65323" height="4.65323" transform="matrix(-1 0 0 1 470.931 516.367)" fill="#D0E2F4"/>
<rect width="4.65323" height="4.65323" transform="matrix(-1 0 0 1 456.971 525.668)" fill="#D0E2F4"/>
<rect width="4.65323" height="4.65323" transform="matrix(-1 0 0 1 611.306 525.668)" fill="#D0E2F4"/>
<rect width="4.65323" height="4.65323" transform="matrix(-1 0 0 1 619.838 507.055)" fill="#D0E2F4"/>
<rect width="4.65323" height="4.65323" transform="matrix(-1 0 0 1 691.963 507.055)" fill="#D0E2F4"/>
<rect width="4.65323" height="4.65323" transform="matrix(-1 0 0 1 687.306 507.055)" fill="#D0E2F4"/>
<rect width="4.65323" height="4.65323" transform="matrix(-1 0 0 1 691.963 511.711)" fill="#D0E2F4"/>
<rect width="4.65323" height="4.65323" transform="matrix(-1 0 0 1 696.615 511.711)" fill="#D0E2F4"/>
<rect width="4.65323" height="4.65323" transform="matrix(-1 0 0 1 701.267 511.711)" fill="#D0E2F4"/>
<rect width="85.3093" height="23.2662" transform="matrix(-1 0 0 1 488.771 409.34)" fill="#F4F6F8"/>
<rect width="4.65323" height="9.30647" transform="matrix(-1 0 0 1 389.502 432.605)" fill="#F4F6F8"/>
<rect x="493.424" y="441.133" width="4.65323" height="9.30647" fill="#F4F6F8"/>
<rect width="4.65323" height="9.30647" transform="matrix(-1 0 0 1 310.01 460.133)" fill="#F4F6F8"/>
<rect width="4.65323" height="4.65323" transform="matrix(-1 0 0 1 384.846 437.258)" fill="#F4F6F8"/>
<rect x="498.072" y="445.793" width="4.65323" height="4.65323" fill="#F4F6F8"/>
<rect width="4.65323" height="4.65323" transform="matrix(-1 0 0 1 305.353 464.789)" fill="#F4F6F8"/>
<rect width="4.65323" height="4.65323" transform="matrix(-1 0 0 1 380.197 441.914)" fill="#F4F6F8"/>
<rect x="502.732" y="450.445" width="4.65323" height="4.65323" fill="#F4F6F8"/>
<rect width="4.65323" height="4.65323" transform="matrix(-1 0 0 1 300.701 469.445)" fill="#F4F6F8"/>
<rect width="4.65323" height="4.65323" transform="matrix(-1 0 0 1 280.541 469.832)" fill="#F4F6F8"/>
<rect width="4.65323" height="4.65323" transform="matrix(-1 0 0 1 275.881 483.789)" fill="#F4F6F8"/>
<rect width="4.65323" height="4.65323" transform="matrix(-1 0 0 1 271.228 483.789)" fill="#F4F6F8"/>
<rect width="4.65323" height="4.65323" transform="matrix(-1 0 0 1 252.228 488.441)" fill="#F4F6F8"/>
<rect width="4.65323" height="4.65323" transform="matrix(-1 0 0 1 247.576 488.441)" fill="#F4F6F8"/>
<rect width="4.65323" height="4.65323" transform="matrix(-1 0 0 1 242.924 493.098)" fill="#F4F6F8"/>
<rect width="4.65323" height="4.65323" transform="matrix(-1 0 0 1 238.271 493.098)" fill="#F4F6F8"/>
<rect width="4.65323" height="4.65323" transform="matrix(-1 0 0 1 233.619 497.754)" fill="#F4F6F8"/>
<rect width="4.65323" height="4.65323" transform="matrix(-1 0 0 1 233.619 497.754)" fill="#F4F6F8"/>
<rect width="4.65323" height="4.65323" transform="matrix(-1 0 0 1 247.576 497.754)" fill="#F4F6F8"/>
<rect width="4.65323" height="4.65323" transform="matrix(-1 0 0 1 224.307 507.055)" fill="#F4F6F8"/>
<rect width="4.65323" height="4.65323" transform="matrix(-1 0 0 1 228.967 502.402)" fill="#F4F6F8"/>
<rect width="4.65323" height="4.65323" transform="matrix(-1 0 0 1 285.193 460.523)" fill="#F4F6F8"/>
<rect width="4.65323" height="4.65323" transform="matrix(-1 0 0 1 289.846 460.523)" fill="#F4F6F8"/>
<rect width="4.65323" height="4.65323" transform="matrix(-1 0 0 1 294.494 455.871)" fill="#F4F6F8"/>
<rect width="4.65323" height="4.65323" transform="matrix(-1 0 0 1 294.494 451.219)" fill="#F4F6F8"/>
<rect width="4.65323" height="4.65323" transform="matrix(-1 0 0 1 299.15 451.219)" fill="#F4F6F8"/>
<rect width="9.30647" height="4.65323" transform="matrix(-1 0 0 1 403.463 437.258)" fill="#F4F6F8"/>
<rect x="479.467" y="445.793" width="9.30647" height="4.65323" fill="#F4F6F8"/>
<rect x="403.463" y="441.914" width="4.65323" height="4.65323" fill="#F4F6F8"/>
<rect width="4.65323" height="4.65323" transform="matrix(-1 0 0 1 479.467 450.445)" fill="#F4F6F8"/>
<rect x="515.138" y="409.34" width="4.65323" height="4.65323" fill="#F4F6F8"/>
<rect x="510.486" y="390.727" width="4.65323" height="4.65323" fill="#D0E2F4"/>
<rect x="501.181" y="404.688" width="4.65323" height="9.30647" fill="#D0E2F4"/>
<rect x="496.525" y="404.688" width="4.65323" height="4.65323" fill="#D0E2F4"/>
<rect x="491.873" y="404.688" width="4.65323" height="4.65323" fill="#D0E2F4"/>
<rect x="487.217" y="400.035" width="4.65323" height="4.65323" fill="#D0E2F4"/>
<rect x="482.568" y="404.688" width="4.65323" height="4.65323" fill="#D0E2F4"/>
<rect x="477.916" y="409.34" width="4.65323" height="4.65323" fill="#D0E2F4"/>
<rect x="473.256" y="413.988" width="4.65323" height="4.65323" fill="#D0E2F4"/>
<rect x="487.217" y="395.379" width="4.65323" height="4.65323" fill="#D0E2F4"/>
<rect x="477.916" y="400.035" width="4.65323" height="4.65323" fill="#D0E2F4"/>
<rect x="505.83" y="390.727" width="4.65323" height="4.65323" fill="#D0E2F4"/>
<rect x="501.181" y="386.074" width="4.65323" height="4.65323" fill="#D0E2F4"/>
<rect x="496.525" y="386.074" width="4.65323" height="4.65323" fill="#D0E2F4"/>
<rect x="491.873" y="381.418" width="4.65323" height="4.65323" fill="#D0E2F4"/>
<rect width="9.30647" height="9.30647" transform="matrix(-1 0 0 1 412.767 409.34)" fill="#D0E2F4"/>
<rect width="4.65323" height="4.65323" transform="matrix(-1 0 0 1 412.767 413.988)" fill="#F4F6F8"/>
<rect width="4.65323" height="4.65323" transform="matrix(-1 0 0 1 384.846 413.988)" fill="#F4F6F8"/>
<rect x="543.056" y="413.988" width="4.65323" height="4.65323" fill="#F4F6F8"/>
<rect width="4.65323" height="4.65323" transform="matrix(-1 0 0 1 389.502 413.988)" fill="#F4F6F8"/>
<rect x="538.4" y="413.988" width="4.65323" height="4.65323" fill="#F4F6F8"/>
<rect width="4.65323" height="4.65323" transform="matrix(-1 0 0 1 529.099 390.727)" fill="#F4F6F8"/>
<rect width="4.65323" height="4.65323" transform="matrix(-1 0 0 1 533.752 386.074)" fill="#F4F6F8"/>
<rect width="4.65323" height="4.65323" transform="matrix(-1 0 0 1 543.056 376.766)" fill="#F4F6F8"/>
<rect width="13.9597" height="4.65323" transform="matrix(-1 0 0 1 547.709 381.418)" fill="#F4F6F8"/>
<rect width="9.30647" height="4.65323" transform="matrix(-1 0 0 1 398.803 405.07)" fill="#F4F6F8"/>
<rect x="529.099" y="405.07" width="9.30647" height="4.65323" fill="#F4F6F8"/>
<rect width="4.65323" height="4.65323" transform="matrix(-1 0 0 1 384.846 423.301)" fill="#F4F6F8"/>
<rect x="543.056" y="423.301" width="4.65323" height="4.65323" fill="#F4F6F8"/>
<rect width="4.65323" height="4.65323" transform="matrix(-1 0 0 1 380.197 418.648)" fill="#F4F6F8"/>
<rect x="547.709" y="418.648" width="4.65323" height="4.65323" fill="#F4F6F8"/>
<rect width="4.65323" height="4.65323" transform="matrix(-1 0 0 1 375.541 418.648)" fill="#F4F6F8"/>
<rect x="552.365" y="418.648" width="4.65323" height="4.65323" fill="#F4F6F8"/>
<rect width="4.65323" height="4.65323" transform="matrix(-1 0 0 1 375.541 423.301)" fill="#F4F6F8"/>
<rect x="552.365" y="423.301" width="4.65323" height="4.65323" fill="#F4F6F8"/>
<rect width="4.65323" height="4.65323" transform="matrix(-1 0 0 1 370.889 427.953)" fill="#F4F6F8"/>
<rect x="557.017" y="427.953" width="4.65323" height="4.65323" fill="#F4F6F8"/>
<rect width="23.2662" height="4.65323" transform="matrix(-1 0 0 1 408.115 409.34)" fill="#F4F6F8"/>
<rect x="519.787" y="409.34" width="23.2662" height="4.65323" fill="#F4F6F8"/>
<rect x="475.584" y="381.418" width="4.65323" height="4.65323" transform="rotate(90 475.584 381.418)" fill="#FD78FF"/>
<rect x="454.646" y="344.195" width="4.65323" height="4.65323" transform="rotate(90 454.646 344.195)" fill="#FD78FF"/>
<rect x="480.24" y="386.074" width="4.65323" height="4.65323" transform="rotate(90 480.24 386.074)" fill="#FD78FF"/>
<rect width="9.30647" height="9.30647" transform="matrix(-1 0 0 1 431.377 423.301)" fill="#D0E2F4"/>
<rect width="4.65323" height="4.65323" transform="matrix(-1 0 0 1 436.033 418.648)" fill="#D0E2F4"/>
<rect width="4.65323" height="4.65323" transform="matrix(-1 0 0 1 440.685 418.648)" fill="#D0E2F4"/>
<rect width="4.65323" height="4.65323" transform="matrix(-1 0 0 1 440.685 409.34)" fill="#D0E2F4"/>
<rect width="4.65323" height="4.65323" transform="matrix(-1 0 0 1 445.342 413.988)" fill="#D0E2F4"/>
<rect x="449.994" y="196.844" width="27.9194" height="133.393" fill="#0F1576"/>
<rect x="449.994" y="196.844" width="4.65323" height="133.393" fill="#D0E2F4"/>
<rect x="473.256" y="196.844" width="4.65323" height="133.393" fill="#454EE7"/>
<rect x="454.646" y="196.844" width="4.65323" height="133.393" fill="#777EED"/>
<rect x="449.994" y="154.965" width="27.9194" height="41.8791" fill="#0F1576"/>
<rect x="459.299" y="145.66" width="9.30647" height="4.65323" fill="#777EED"/>
<rect x="454.646" y="150.305" width="18.6129" height="4.65323" fill="#777EED"/>
<rect x="468.607" y="150.305" width="4.65323" height="4.65323" fill="#080B3E"/>
<rect x="473.256" y="150.305" width="4.65323" height="4.65323" fill="#777EED"/>
<rect width="4.65323" height="4.65323" transform="matrix(-1 0 0 1 459.299 150.305)" fill="#D0E2F4"/>
<rect x="468.607" y="145.66" width="4.65323" height="4.65323" fill="#777EED"/>
<rect width="4.65323" height="4.65323" transform="matrix(-1 0 0 1 463.955 145.66)" fill="#D0E2F4"/>
<rect x="449.994" y="185.602" width="18.6129" height="4.65323" transform="rotate(90 449.994 185.602)" fill="#080B3E"/>
<rect x="477.908" y="185.602" width="11.2453" height="27.9194" transform="rotate(90 477.908 185.602)" fill="#080B3E"/>
<rect x="477.908" y="325.578" width="4.65323" height="27.9194" transform="rotate(90 477.908 325.578)" fill="#0F1576"/>
<rect x="459.299" y="154.965" width="30.6338" height="4.65323" transform="rotate(90 459.299 154.965)" fill="#080B3E"/>
<rect x="454.646" y="154.965" width="30.6338" height="4.65323" transform="rotate(90 454.646 154.965)" fill="#D0E2F4"/>
<rect x="473.256" y="185.602" width="4.65323" height="18.6129" transform="rotate(90 473.256 185.602)" fill="#5E66EA"/>
<rect x="477.908" y="185.602" width="4.65323" height="4.65323" transform="rotate(90 477.908 185.602)" fill="#0F1576"/>
<rect width="18.6129" height="4.65323" transform="matrix(4.37114e-08 1 1 -4.37114e-08 477.908 185.602)" fill="#080B3E"/>
<rect x="449.994" y="311.625" width="18.6129" height="4.65323" transform="rotate(90 449.994 311.625)" fill="#080B3E"/>
<rect x="445.338" y="190.25" width="18.6129" height="4.65323" transform="rotate(90 445.338 190.25)" fill="#080B3E"/>
<rect x="445.338" y="190.25" width="4.65323" height="4.65323" transform="rotate(90 445.338 190.25)" fill="#454EE7"/>
<rect x="449.994" y="185.602" width="4.65323" height="4.65323" transform="rotate(90 449.994 185.602)" fill="#454EE7"/>
<rect x="454.646" y="185.602" width="4.65323" height="4.65323" transform="rotate(90 454.646 185.602)" fill="#777EED"/>
<rect x="445.338" y="194.902" width="4.65323" height="4.65323" transform="rotate(90 445.338 194.902)" fill="#454EE7"/>
<rect width="18.6129" height="4.65323" transform="matrix(4.37114e-08 1 1 -4.37114e-08 482.568 190.25)" fill="#080B3E"/>
<rect x="445.338" y="316.273" width="18.6129" height="4.65323" transform="rotate(90 445.338 316.273)" fill="#080B3E"/>
<rect x="440.685" y="325.578" width="18.6129" height="4.65323" transform="rotate(90 440.685 325.578)" fill="#080B3E"/>
<rect x="496.525" y="325.578" width="18.6129" height="4.65323" transform="rotate(90 496.525 325.578)" fill="#080B3E"/>
<rect x="436.033" y="325.578" width="18.6129" height="4.65323" transform="rotate(90 436.033 325.578)" fill="#080B3E"/>
<rect x="491.869" y="325.578" width="18.6129" height="4.65323" transform="rotate(90 491.869 325.578)" fill="#080B3E"/>
<rect width="18.6129" height="4.65323" transform="matrix(4.37114e-08 1 1 -4.37114e-08 477.908 311.625)" fill="#080B3E"/>
<rect width="18.6129" height="4.65323" transform="matrix(4.37114e-08 1 1 -4.37114e-08 482.568 316.273)" fill="#080B3E"/>
<rect x="463.955" y="141.004" width="4.65323" height="4.65323" fill="#D0E2F4"/>
<rect x="473.256" y="154.965" width="4.65323" height="30.6338" fill="#454EE7"/>
<rect x="449.994" y="311.625" width="4.65323" height="4.65323" transform="rotate(90 449.994 311.625)" fill="#D0E2F4"/>
<rect x="445.338" y="316.273" width="4.65323" height="4.65323" transform="rotate(90 445.338 316.273)" fill="#D0E2F4"/>
<rect x="440.685" y="325.578" width="4.65323" height="4.65323" transform="rotate(90 440.685 325.578)" fill="#D0E2F4"/>
<rect x="436.033" y="325.578" width="18.6129" height="4.65323" transform="rotate(90 436.033 325.578)" fill="#D0E2F4"/>
<path d="M608.327 259.142L615.99 257.314L616.904 261.146L620.735 260.232L621.649 264.064L625.481 263.15L627.308 270.814L631.14 269.9L632.967 277.563L648.294 273.908L649.207 277.74L653.039 276.826L662.1 314.823L658.269 315.737L660.096 323.4L656.264 324.314L657.178 328.145L653.347 329.059L655.174 336.722L647.511 338.55L649.338 346.213L645.507 347.127L652.207 375.226L633.049 379.794L628.176 359.359L624.344 360.273L618.862 337.283L615.03 338.196L607.873 308.182L604.041 309.096L601.3 297.601L608.963 295.773L602.491 268.633L606.322 267.719L605.409 263.887L609.24 262.974L608.327 259.142Z" fill="#0C115D"/>
<rect x="615.989" y="257.314" width="3.93908" height="3.93908" transform="rotate(-13.4129 615.989 257.314)" fill="#080B3E"/>
<rect x="617.212" y="313.379" width="3.93908" height="19.6954" transform="rotate(-13.4129 617.212 313.379)" fill="#080B3E"/>
<rect x="637.711" y="280.479" width="3.93908" height="11.8172" transform="rotate(-13.4129 637.711 280.479)" fill="#080B3E"/>
<rect x="624.389" y="275.562" width="3.93908" height="11.8172" transform="rotate(-13.4129 624.389 275.562)" fill="#080B3E"/>
<rect x="607.054" y="287.789" width="3.93908" height="16.0846" transform="rotate(-13.4129 607.054 287.789)" fill="#171FAF"/>
<rect x="611.699" y="307.266" width="3.93908" height="26.5888" transform="rotate(-13.4129 611.699 307.266)" fill="#171FAF"/>
<rect x="618.858" y="337.287" width="3.93908" height="15.7563" transform="rotate(-13.4129 618.858 337.287)" fill="#171FAF"/>
<rect x="628.177" y="359.359" width="3.93908" height="21.0084" transform="rotate(-13.4129 628.177 359.359)" fill="#171FAF"/>
<rect x="629.213" y="380.709" width="3.93908" height="3.93908" transform="rotate(-13.4129 629.213 380.709)" fill="#171FAF"/>
<rect x="626.302" y="385.453" width="3.93908" height="3.93908" transform="rotate(-13.4129 626.302 385.453)" fill="#171FAF"/>
<rect x="633.05" y="379.795" width="15.7563" height="3.93908" transform="rotate(-13.4129 633.05 379.795)" fill="#0C115D"/>
<rect x="630.127" y="384.541" width="19.6954" height="3.93908" transform="rotate(-13.4129 630.127 384.541)" fill="#0C115D"/>
<rect x="602.485" y="268.629" width="3.93908" height="3.93908" transform="rotate(-13.4129 602.485 268.629)" fill="#171FAF"/>
<rect x="605.41" y="263.889" width="3.93908" height="3.93908" transform="rotate(-13.4129 605.41 263.889)" fill="#171FAF"/>
<rect x="608.327" y="259.143" width="3.93908" height="3.93908" transform="rotate(-13.4129 608.327 259.143)" fill="#171FAF"/>
<rect x="642.281" y="299.641" width="3.93908" height="27.2453" transform="rotate(-13.4129 642.281 299.641)" fill="#080B3E"/>
<rect x="644.77" y="327.059" width="3.93908" height="11.8172" transform="rotate(-13.4129 644.77 327.059)" fill="#010323"/>
<rect x="639.846" y="340.379" width="3.93908" height="3.93908" transform="rotate(-13.4129 639.846 340.379)" fill="#010323"/>
<rect x="636.928" y="345.123" width="3.93908" height="3.93908" transform="rotate(-13.4129 636.928 345.123)" fill="#010323"/>
<rect x="639.67" y="356.619" width="3.93908" height="3.93908" transform="rotate(-13.4129 639.67 356.619)" fill="#010323"/>
<rect x="640.583" y="360.449" width="3.93908" height="3.93908" transform="rotate(-13.4129 640.583 360.449)" fill="#010323"/>
<rect x="641.673" y="348.041" width="3.93908" height="28.8866" transform="rotate(-13.4129 641.673 348.041)" fill="#010323"/>
<rect x="649.164" y="362.449" width="3.93908" height="13.1303" transform="rotate(-13.4129 649.164 362.449)" fill="#010323"/>
<rect x="629.447" y="330.713" width="3.93908" height="3.93908" transform="rotate(-13.4129 629.447 330.713)" fill="#D0E2F4"/>
<rect x="622.136" y="300.055" width="3.93908" height="11.8172" transform="rotate(-13.4129 622.136 300.055)" fill="#D0E2F4"/>
<rect x="644.463" y="274.82" width="3.93908" height="3.93908" transform="rotate(-13.4129 644.463 274.82)" fill="#D0E2F4"/>
<rect x="627.13" y="287.059" width="3.93908" height="3.93908" transform="rotate(-13.4129 627.13 287.059)" fill="#D0E2F4"/>
<rect x="640.629" y="275.734" width="3.93908" height="3.93908" transform="rotate(-13.4129 640.629 275.734)" fill="#D0E2F4"/>
<rect x="622.384" y="284.135" width="3.93908" height="3.93908" transform="rotate(-13.4129 622.384 284.135)" fill="#D0E2F4"/>
<rect x="649.207" y="277.738" width="3.93908" height="3.93908" transform="rotate(-13.4129 649.207 277.738)" fill="#D0E2F4"/>
<rect x="610.786" y="303.439" width="3.93908" height="3.93908" transform="rotate(-13.4129 610.786 303.439)" fill="#D0E2F4"/>
<rect x="632.359" y="325.963" width="3.93908" height="3.93908" transform="rotate(-13.4129 632.359 325.963)" fill="#D0E2F4"/>
<rect x="628.705" y="310.639" width="3.93908" height="15.7563" transform="rotate(-13.4129 628.705 310.639)" fill="#D0E2F4"/>
<rect x="607.874" y="308.178" width="3.93908" height="30.8561" transform="rotate(-13.4129 607.874 308.178)" fill="#D0E2F4"/>
<rect x="606.048" y="300.52" width="3.93908" height="3.93908" transform="rotate(-13.4129 606.048 300.52)" fill="#080B3E"/>
<rect x="606.962" y="304.35" width="3.93908" height="3.93908" transform="rotate(-13.4129 606.962 304.35)" fill="#080B3E"/>
<rect x="648.601" y="326.145" width="3.93908" height="11.8172" transform="rotate(-13.4129 648.601 326.145)" fill="#010323"/>
<rect x="634.188" y="333.631" width="3.93908" height="3.93908" transform="rotate(-13.4129 634.188 333.631)" fill="#D0E2F4"/>
<rect x="631.273" y="338.371" width="3.93908" height="3.93908" transform="rotate(-13.4129 631.273 338.371)" fill="#FEDBFF"/>
<rect x="632.187" y="342.205" width="3.93908" height="3.93908" transform="rotate(-13.4129 632.187 342.205)" fill="#FEDBFF"/>
<rect x="622.512" y="352.609" width="3.93908" height="7.87815" transform="rotate(-13.4129 622.512 352.609)" fill="#D0E2F4"/>
<rect x="638.931" y="336.545" width="3.93908" height="3.93908" transform="rotate(-13.4129 638.931 336.545)" fill="#D0E2F4"/>
<rect x="642.769" y="335.629" width="3.93908" height="3.93908" transform="rotate(-13.4129 642.769 335.629)" fill="#D0E2F4"/>
<rect x="651.517" y="321.395" width="3.93908" height="7.87815" transform="rotate(-13.4129 651.517 321.395)" fill="#010323"/>
<rect x="650.604" y="317.566" width="3.93908" height="3.93908" transform="rotate(-13.4129 650.604 317.566)" fill="#010323"/>
<rect x="649.69" y="313.734" width="3.93908" height="3.93908" transform="rotate(-13.4129 649.69 313.734)" fill="#010323"/>
<rect x="648.776" y="309.9" width="3.93908" height="3.93908" transform="rotate(-13.4129 648.776 309.9)" fill="#010323"/>
<rect x="647.863" y="306.07" width="3.93908" height="3.93908" transform="rotate(-13.4129 647.863 306.07)" fill="#010323"/>
<rect x="646.948" y="302.236" width="3.93908" height="3.93908" transform="rotate(-13.4129 646.948 302.236)" fill="#010323"/>
<rect x="646.035" y="298.408" width="3.93908" height="3.93908" transform="rotate(-13.4129 646.035 298.408)" fill="#010323"/>
<rect x="645.197" y="294.893" width="3.93908" height="3.93908" transform="rotate(-13.4129 645.197 294.893)" fill="#010323"/>
<rect x="640.453" y="291.975" width="3.93908" height="7.87815" transform="rotate(-13.4129 640.453 291.975)" fill="#010323"/>
<rect x="620.129" y="308.631" width="3.93908" height="23.6345" transform="rotate(-13.4129 620.129 308.631)" fill="#010323"/>
<rect x="636.622" y="292.889" width="3.93908" height="3.93908" transform="rotate(-13.4129 636.622 292.889)" fill="#010323"/>
<rect x="621.782" y="332.541" width="3.93908" height="3.93908" transform="rotate(-13.4129 621.782 332.541)" fill="#010323"/>
<rect x="617.944" y="333.455" width="3.93908" height="3.93908" transform="rotate(-13.4129 617.944 333.455)" fill="#010323"/>
<rect x="617.643" y="281.217" width="3.93908" height="3.93908" transform="rotate(-13.4129 617.643 281.217)" fill="#010323"/>
<rect x="620.558" y="276.477" width="3.93908" height="3.93908" transform="rotate(-13.4129 620.558 276.477)" fill="#010323"/>
<rect x="619.644" y="272.641" width="3.93908" height="3.93908" transform="rotate(-13.4129 619.644 272.641)" fill="#010323"/>
<rect x="623.475" y="271.729" width="3.93908" height="3.93908" transform="rotate(-13.4129 623.475 271.729)" fill="#010323"/>
<rect x="622.561" y="267.896" width="3.93908" height="3.93908" transform="rotate(-13.4129 622.561 267.896)" fill="#010323"/>
<rect x="621.646" y="264.061" width="3.93908" height="3.93908" transform="rotate(-13.4129 621.646 264.061)" fill="#010323"/>
<rect x="617.815" y="264.973" width="3.93908" height="3.93908" transform="rotate(-13.4129 617.815 264.973)" fill="#010323"/>
<rect x="616.903" y="261.148" width="3.93908" height="3.93908" transform="rotate(-13.4129 616.903 261.148)" fill="#010323"/>
<rect x="628.226" y="274.646" width="3.93908" height="3.93908" transform="rotate(-13.4129 628.226 274.646)" fill="#010323"/>
<rect x="627.312" y="270.812" width="3.93908" height="3.93908" transform="rotate(-13.4129 627.312 270.812)" fill="#010323"/>
<rect x="618.73" y="268.811" width="3.93908" height="3.93908" transform="rotate(-13.4129 618.73 268.811)" fill="#010323"/>
<rect x="613.987" y="265.887" width="3.93908" height="3.93908" transform="rotate(-13.4129 613.987 265.887)" fill="#010323"/>
<rect x="644.284" y="291.062" width="3.93908" height="3.93908" transform="rotate(-13.4129 644.284 291.062)" fill="#010323"/>
<rect x="643.37" y="287.23" width="3.93908" height="3.93908" transform="rotate(-13.4129 643.37 287.23)" fill="#010323"/>
<rect x="642.457" y="283.402" width="3.93908" height="3.93908" transform="rotate(-13.4129 642.457 283.402)" fill="#010323"/>
<rect x="641.542" y="279.566" width="3.93908" height="3.93908" transform="rotate(-13.4129 641.542 279.566)" fill="#010323"/>
<rect x="636.798" y="276.648" width="3.93908" height="3.93908" transform="rotate(-13.4129 636.798 276.648)" fill="#010323"/>
<rect x="603.4" y="272.467" width="3.93908" height="3.93908" transform="rotate(-13.4129 603.4 272.467)" fill="#FEDBFF"/>
<rect x="607.237" y="271.551" width="3.93908" height="3.93908" transform="rotate(-13.4129 607.237 271.551)" fill="white"/>
<rect x="611.068" y="270.639" width="3.93908" height="3.93908" transform="rotate(-13.4129 611.068 270.639)" fill="white"/>
<rect x="614.902" y="269.723" width="3.93908" height="3.93908" transform="rotate(-13.4129 614.902 269.723)" fill="#010323"/>
<rect x="604.314" y="276.297" width="3.93908" height="3.93908" transform="rotate(-13.4129 604.314 276.297)" fill="white"/>
<rect x="600.489" y="277.209" width="3.93908" height="3.93908" transform="rotate(-13.4129 600.489 277.209)" fill="#FEDBFF"/>
<rect x="608.151" y="275.383" width="3.93908" height="3.93908" transform="rotate(-13.4129 608.151 275.383)" fill="white"/>
<rect x="611.982" y="274.469" width="3.93908" height="3.93908" transform="rotate(-13.4129 611.982 274.469)" fill="white"/>
<rect x="615.816" y="273.555" width="3.93908" height="3.93908" transform="rotate(-13.4129 615.816 273.555)" fill="#D0E2F4"/>
<rect x="605.228" y="280.131" width="3.93908" height="3.93908" transform="rotate(-13.4129 605.228 280.131)" fill="white"/>
<rect x="601.404" y="281.043" width="3.93908" height="3.93908" transform="rotate(-13.4129 601.404 281.043)" fill="#FEDBFF"/>
<rect x="601.3" y="297.6" width="3.93908" height="3.93908" transform="rotate(-13.4129 601.3 297.6)" fill="#D0E2F4"/>
<rect x="605.134" y="296.686" width="3.93908" height="3.93908" transform="rotate(-13.4129 605.134 296.686)" fill="#D0E2F4"/>
<rect x="601.573" y="264.805" width="3.93908" height="3.93908" transform="rotate(-13.4129 601.573 264.805)" fill="#D0E2F4"/>
<rect x="604.496" y="260.055" width="3.93908" height="3.93908" transform="rotate(-13.4129 604.496 260.055)" fill="#D0E2F4"/>
<rect x="602.214" y="301.434" width="3.93908" height="3.93908" transform="rotate(-13.4129 602.214 301.434)" fill="#D0E2F4"/>
<rect x="609.065" y="279.217" width="3.93908" height="3.93908" transform="rotate(-13.4129 609.065 279.217)" fill="white"/>
<rect x="612.896" y="278.303" width="3.93908" height="3.93908" transform="rotate(-13.4129 612.896 278.303)" fill="white"/>
<rect x="606.141" y="283.959" width="3.93908" height="3.93908" transform="rotate(-13.4129 606.141 283.959)" fill="white"/>
<rect x="609.978" y="283.045" width="3.93908" height="3.93908" transform="rotate(-13.4129 609.978 283.045)" fill="white"/>
<rect x="613.809" y="282.131" width="3.93908" height="3.93908" transform="rotate(-13.4129 613.809 282.131)" fill="#D0E2F4"/>
<rect x="616.73" y="277.389" width="3.93908" height="3.93908" transform="rotate(-13.4129 616.73 277.389)" fill="#D0E2F4"/>
<rect width="4.65323" height="4.65323" transform="matrix(-1 0 0 1 384.451 218.535)" fill="#E1EDF9"/>
<rect width="4.65323" height="4.65323" transform="matrix(-1 0 0 1 384.451 223.188)" fill="#6E6E85"/>
<rect width="4.65323" height="4.65323" transform="matrix(-1 0 0 1 379.799 209.234)" fill="white"/>
<rect width="4.65323" height="4.65323" transform="matrix(-1 0 0 1 379.799 213.879)" fill="white"/>
<rect width="4.65323" height="4.65323" transform="matrix(-1 0 0 1 379.799 223.188)" fill="#303051"/>
<rect width="4.65323" height="4.65323" transform="matrix(-1 0 0 1 379.799 227.844)" fill="#6E6E85"/>
<rect width="4.65323" height="4.65323" transform="matrix(-1 0 0 1 375.146 204.574)" fill="white"/>
<rect width="4.65323" height="4.65323" transform="matrix(-1 0 0 1 370.49 199.922)" fill="white"/>
<rect width="4.65323" height="4.65323" transform="matrix(-1 0 0 1 370.49 204.574)" fill="#6E6E85"/>
<rect width="4.65323" height="4.65323" transform="matrix(-1 0 0 1 370.49 209.234)" fill="#6E6E85"/>
<rect width="4.65323" height="4.65323" transform="matrix(-1 0 0 1 375.146 209.234)" fill="#6E6E85"/>
<rect width="4.65323" height="4.65323" transform="matrix(-1 0 0 1 379.799 218.535)" fill="#6E6E85"/>
<rect width="4.65323" height="4.65323" transform="matrix(-1 0 0 1 370.49 213.879)" fill="#303051"/>
<rect width="4.65323" height="4.65323" transform="matrix(-1 0 0 1 375.146 213.879)" fill="#6E6E85"/>
<rect width="4.65323" height="4.65323" transform="matrix(-1 0 0 1 375.146 218.535)" fill="#303051"/>
<rect width="4.65323" height="4.65323" transform="matrix(-1 0 0 1 365.842 195.27)" fill="white"/>
<rect width="4.65323" height="4.65323" transform="matrix(-1 0 0 1 365.842 204.574)" fill="#303051"/>
<rect width="4.65323" height="4.65323" transform="matrix(-1 0 0 1 365.842 199.922)" fill="#6E6E85"/>
<rect width="4.65323" height="4.65323" transform="matrix(-1 0 0 1 365.842 209.234)" fill="#303051"/>
<rect width="4.65323" height="4.65323" transform="matrix(-1 0 0 1 342.572 223.188)" fill="#6E6E85"/>
<rect width="4.65323" height="4.65323" transform="matrix(-1 0 0 1 337.916 218.535)" fill="#6E6E85"/>
<rect width="4.65323" height="4.65323" transform="matrix(-1 0 0 1 337.916 223.188)" fill="#6E6E85"/>
<rect width="4.65323" height="4.65323" transform="matrix(-1 0 0 1 333.267 223.188)" fill="#6E6E85"/>
<rect width="4.65323" height="4.65323" transform="matrix(-1 0 0 1 333.267 227.844)" fill="#6E6E85"/>
<rect width="4.65323" height="4.65323" transform="matrix(-1 0 0 1 365.842 246.453)" fill="white"/>
<rect width="4.65323" height="4.65323" transform="matrix(-1 0 0 1 365.842 241.805)" fill="white"/>
<rect width="4.65323" height="4.65323" transform="matrix(-1 0 0 1 365.842 251.105)" fill="white"/>
<rect width="4.65323" height="4.65323" transform="matrix(-1 0 0 1 361.185 176.656)" fill="white"/>
<rect width="4.65323" height="4.65323" transform="matrix(-1 0 0 1 356.533 176.656)" fill="white"/>
<rect width="4.65323" height="4.65323" transform="matrix(-1 0 0 1 361.185 185.965)" fill="#6E6E85"/>
<rect width="4.65323" height="4.65323" transform="matrix(-1 0 0 1 361.185 181.305)" fill="#6E6E85"/>
<rect width="4.65323" height="4.65323" transform="matrix(-1 0 0 1 361.185 190.617)" fill="#6E6E85"/>
<rect width="4.65323" height="4.65323" transform="matrix(-1 0 0 1 361.185 195.27)" fill="#6E6E85"/>
<rect width="4.65323" height="4.65323" transform="matrix(-1 0 0 1 361.185 199.922)" fill="#6E6E85"/>
<rect width="4.65323" height="4.65323" transform="matrix(-1 0 0 1 361.185 204.574)" fill="#6E6E85"/>
<rect width="4.65323" height="4.65323" transform="matrix(-1 0 0 1 361.185 209.234)" fill="#6E6E85"/>
<rect width="4.65323" height="4.65323" transform="matrix(-1 0 0 1 361.185 213.879)" fill="#6E6E85"/>
<rect width="4.65323" height="4.65323" transform="matrix(-1 0 0 1 361.185 218.535)" fill="#6E6E85"/>
<rect width="4.65323" height="4.65323" transform="matrix(-1 0 0 1 351.881 218.535)" fill="#6E6E85"/>
<rect width="4.65323" height="4.65323" transform="matrix(-1 0 0 1 356.533 218.535)" fill="#6E6E85"/>
<rect width="4.65323" height="4.65323" transform="matrix(-1 0 0 1 347.228 218.535)" fill="#6E6E85"/>
<rect width="4.65323" height="4.65323" transform="matrix(-1 0 0 1 342.572 218.535)" fill="#6E6E85"/>
<rect width="4.65323" height="4.65323" transform="matrix(-1 0 0 1 361.185 223.188)" fill="#D0E2F4"/>
<rect width="4.65323" height="4.65323" transform="matrix(-1 0 0 1 361.185 232.492)" fill="white"/>
<rect width="4.65323" height="4.65323" transform="matrix(-1 0 0 1 361.185 227.844)" fill="white"/>
<rect width="4.65323" height="4.65323" transform="matrix(-1 0 0 1 361.185 237.148)" fill="white"/>
<rect width="4.65323" height="4.65323" transform="matrix(-1 0 0 1 361.185 241.805)" fill="white"/>
<rect width="4.65323" height="4.65323" transform="matrix(-1 0 0 1 361.185 246.453)" fill="#E1EDF9"/>
<rect width="4.65323" height="4.65323" transform="matrix(-1 0 0 1 361.185 251.105)" fill="#E1EDF9"/>
<rect width="4.65323" height="4.65323" transform="matrix(-1 0 0 1 361.185 255.758)" fill="#E1EDF9"/>
<rect width="4.65323" height="4.65323" transform="matrix(-1 0 0 1 361.185 260.418)" fill="white"/>
<rect width="4.65323" height="4.65323" transform="matrix(-1 0 0 1 361.185 265.066)" fill="#E1EDF9"/>
<rect width="4.65323" height="4.65323" transform="matrix(-1 0 0 1 361.185 269.719)" fill="#E1EDF9"/>
<rect width="4.65323" height="4.65323" transform="matrix(-1 0 0 1 361.185 274.375)" fill="#303051"/>
<rect width="4.65323" height="4.65323" transform="matrix(-1 0 0 1 356.533 279.027)" fill="#303051"/>
<rect width="4.65323" height="4.65323" transform="matrix(-1 0 0 1 356.533 181.305)" fill="#6E6E85"/>
<rect width="4.65323" height="4.65323" transform="matrix(-1 0 0 1 356.533 185.965)" fill="#6E6E85"/>
<rect width="4.65323" height="4.65323" transform="matrix(-1 0 0 1 356.533 190.617)" fill="#6E6E85"/>
<rect width="4.65323" height="4.65323" transform="matrix(-1 0 0 1 356.533 195.27)" fill="#6E6E85"/>
<rect width="4.65323" height="4.65323" transform="matrix(-1 0 0 1 356.533 199.922)" fill="#E1EDF9"/>
<rect width="4.65323" height="4.65323" transform="matrix(-1 0 0 1 356.533 204.574)" fill="#E1EDF9"/>
<rect width="4.65323" height="4.65323" transform="matrix(-1 0 0 1 356.533 209.234)" fill="#E1EDF9"/>
<rect width="4.65323" height="4.65323" transform="matrix(-1 0 0 1 356.533 213.879)" fill="#6E6E85"/>
<rect width="4.65323" height="4.65323" transform="matrix(-1 0 0 1 356.533 227.844)" fill="#D0E2F4"/>
<rect width="4.65323" height="4.65323" transform="matrix(-1 0 0 1 356.533 232.492)" fill="#D0E2F4"/>
<rect width="4.65323" height="4.65323" transform="matrix(-1 0 0 1 356.533 237.148)" fill="#D0E2F4"/>
<rect width="4.65323" height="4.65323" transform="matrix(-1 0 0 1 356.533 246.453)" fill="#E1EDF9"/>
<rect width="4.65323" height="4.65323" transform="matrix(-1 0 0 1 351.881 246.453)" fill="#6E6E85"/>
<rect width="4.65323" height="4.65323" transform="matrix(-1 0 0 1 356.533 241.805)" fill="#E1EDF9"/>
<rect width="4.65323" height="4.65323" transform="matrix(-1 0 0 1 356.533 251.105)" fill="#E1EDF9"/>
<rect width="4.65323" height="4.65323" transform="matrix(-1 0 0 1 356.533 255.758)" fill="#E1EDF9"/>
<rect width="4.65323" height="4.65323" transform="matrix(-1 0 0 1 356.533 260.418)" fill="#E1EDF9"/>
<rect width="4.65323" height="4.65323" transform="matrix(-1 0 0 1 356.533 265.066)" fill="#E1EDF9"/>
<rect width="4.65323" height="4.65323" transform="matrix(-1 0 0 1 356.533 269.719)" fill="#303051"/>
<rect width="4.65323" height="4.65323" transform="matrix(-1 0 0 1 356.533 274.375)" fill="#303051"/>
<rect width="4.65323" height="4.65323" transform="matrix(-1 0 0 1 351.881 176.656)" fill="#D0E2F4"/>
<rect width="4.65323" height="4.65323" transform="matrix(-1 0 0 1 351.881 181.305)" fill="#6E6E85"/>
<rect width="4.65323" height="4.65323" transform="matrix(-1 0 0 1 351.881 190.617)" fill="#6E6E85"/>
<rect width="4.65323" height="4.65323" transform="matrix(-1 0 0 1 351.881 195.27)" fill="#6E6E85"/>
<rect width="4.65323" height="4.65323" transform="matrix(-1 0 0 1 351.881 199.922)" fill="#E1EDF9"/>
<rect width="4.65323" height="4.65323" transform="matrix(-1 0 0 1 347.228 199.922)" fill="#E1EDF9"/>
<rect width="4.65323" height="4.65323" transform="matrix(-1 0 0 1 351.881 204.574)" fill="#E1EDF9"/>
<rect width="4.65323" height="4.65323" transform="matrix(-1 0 0 1 351.881 209.234)" fill="#E1EDF9"/>
<rect width="4.65323" height="4.65323" transform="matrix(-1 0 0 1 351.881 213.879)" fill="#6E6E85"/>
<rect width="4.65323" height="4.65323" transform="matrix(-1 0 0 1 356.533 223.188)" fill="#D0E2F4"/>
<rect width="4.65323" height="4.65323" transform="matrix(-1 0 0 1 351.881 227.844)" fill="#D0E2F4"/>
<rect width="4.65323" height="4.65323" transform="matrix(-1 0 0 1 351.881 232.492)" fill="#D0E2F4"/>
<rect width="4.65323" height="4.65323" transform="matrix(-1 0 0 1 351.881 237.148)" fill="#6E6E85"/>
<rect width="4.65323" height="4.65323" transform="matrix(-1 0 0 1 351.881 241.805)" fill="#6E6E85"/>
<rect width="4.65323" height="4.65323" transform="matrix(-1 0 0 1 351.881 172.004)" fill="white"/>
<rect width="4.65323" height="4.65323" transform="matrix(-1 0 0 1 356.533 172.004)" fill="white"/>
<rect width="4.65323" height="4.65323" transform="matrix(-1 0 0 1 351.881 172.004)" fill="white"/>
<rect width="4.65323" height="4.65323" transform="matrix(-1 0 0 1 347.228 176.656)" fill="#D0E2F4"/>
<rect width="4.65323" height="4.65323" transform="matrix(-1 0 0 1 347.228 181.305)" fill="#6E6E85"/>
<rect width="4.65323" height="4.65323" transform="matrix(-1 0 0 1 347.228 190.617)" fill="#6E6E85"/>
<rect width="4.65323" height="4.65323" transform="matrix(-1 0 0 1 347.228 195.27)" fill="#6E6E85"/>
<rect width="4.65323" height="4.65323" transform="matrix(-1 0 0 1 347.228 204.574)" fill="#E1EDF9"/>
<rect width="4.65323" height="4.65323" transform="matrix(-1 0 0 1 347.228 209.234)" fill="#E1EDF9"/>
<rect width="4.65323" height="4.65323" transform="matrix(-1 0 0 1 347.228 213.879)" fill="#6E6E85"/>
<rect width="4.65323" height="4.65323" transform="matrix(-1 0 0 1 351.881 223.188)" fill="#D0E2F4"/>
<rect width="4.65323" height="4.65323" transform="matrix(-1 0 0 1 347.228 227.844)" fill="#D0E2F4"/>
<rect width="4.65323" height="4.65323" transform="matrix(-1 0 0 1 347.228 232.492)" fill="#6E6E85"/>
<rect width="4.65323" height="4.65323" transform="matrix(-1 0 0 1 347.228 237.148)" fill="#D0E2F4"/>
<rect width="4.65323" height="4.65323" transform="matrix(-1 0 0 1 347.228 172.004)" fill="#D0E2F4"/>
<rect width="4.65323" height="4.65323" transform="matrix(-1 0 0 1 342.572 172.004)" fill="#D0E2F4"/>
<rect width="4.65323" height="4.65323" transform="matrix(-1 0 0 1 342.572 176.656)" fill="#D0E2F4"/>
<rect width="4.65323" height="4.65323" transform="matrix(-1 0 0 1 337.916 176.656)" fill="#D0E2F4"/>
<rect width="4.65323" height="4.65323" transform="matrix(-1 0 0 1 342.572 185.965)" fill="#6E6E85"/>
<rect width="4.65323" height="4.65323" transform="matrix(-1 0 0 1 351.881 185.965)" fill="#6E6E85"/>
<rect width="4.65323" height="4.65323" transform="matrix(-1 0 0 1 347.228 185.965)" fill="#6E6E85"/>
<rect width="4.65323" height="4.65323" transform="matrix(-1 0 0 1 342.572 181.305)" fill="#6E6E85"/>
<rect width="4.65323" height="4.65323" transform="matrix(-1 0 0 1 342.572 190.617)" fill="#6E6E85"/>
<rect width="4.65323" height="4.65323" transform="matrix(-1 0 0 1 337.916 190.617)" fill="#6E6E85"/>
<rect width="4.65323" height="4.65323" transform="matrix(-1 0 0 1 342.572 195.27)" fill="#6E6E85"/>
<rect width="4.65323" height="4.65323" transform="matrix(-1 0 0 1 342.572 199.922)" fill="#6E6E85"/>
<rect width="4.65323" height="4.65323" transform="matrix(-1 0 0 1 342.572 204.574)" fill="#E1EDF9"/>
<rect width="4.65323" height="4.65323" transform="matrix(-1 0 0 1 342.572 209.234)" fill="#E1EDF9"/>
<rect width="4.65323" height="4.65323" transform="matrix(-1 0 0 1 342.572 213.879)" fill="#6E6E85"/>
<rect width="4.65323" height="4.65323" transform="matrix(-1 0 0 1 347.228 223.188)" fill="#D0E2F4"/>
<rect width="4.65323" height="4.65323" transform="matrix(-1 0 0 1 342.572 227.844)" fill="#E1EDF9"/>
<rect width="4.65323" height="4.65323" transform="matrix(-1 0 0 1 342.572 232.492)" fill="#D0E2F4"/>
<rect width="4.65323" height="4.65323" transform="matrix(-1 0 0 1 342.572 237.148)" fill="#E1EDF9"/>
<rect width="4.65323" height="4.65323" transform="matrix(-1 0 0 1 337.916 237.148)" fill="#6E6E85"/>
<rect width="4.65323" height="4.65323" transform="matrix(-1 0 0 1 333.267 237.148)" fill="#6E6E85"/>
<rect width="4.65323" height="4.65323" transform="matrix(-1 0 0 1 342.572 241.805)" fill="#E1EDF9"/>
<rect width="4.65323" height="4.65323" transform="matrix(-1 0 0 1 337.916 241.805)" fill="#E1EDF9"/>
<rect width="4.65323" height="4.65323" transform="matrix(-1 0 0 1 337.916 246.453)" fill="white"/>
<rect width="4.65323" height="4.65323" transform="matrix(-1 0 0 1 337.916 260.418)" fill="white"/>
<rect width="4.65323" height="4.65323" transform="matrix(-1 0 0 1 337.916 265.066)" fill="white"/>
<rect width="4.65323" height="4.65323" transform="matrix(-1 0 0 1 337.916 251.105)" fill="white"/>
<rect width="4.65323" height="4.65323" transform="matrix(-1 0 0 1 337.916 255.758)" fill="white"/>
<rect width="4.65323" height="4.65323" transform="matrix(-1 0 0 1 337.916 269.719)" fill="white"/>
<rect width="4.65323" height="4.65323" transform="matrix(-1 0 0 1 365.842 269.719)" fill="white"/>
<rect width="4.65323" height="4.65323" transform="matrix(-1 0 0 1 365.842 265.066)" fill="white"/>
<rect width="4.65323" height="4.65323" transform="matrix(-1 0 0 1 365.842 260.418)" fill="white"/>
<rect width="4.65323" height="4.65323" transform="matrix(-1 0 0 1 365.842 255.758)" fill="white"/>
<rect width="4.65323" height="4.65323" transform="matrix(-1 0 0 1 337.916 274.375)" fill="white"/>
<rect width="4.65323" height="4.65323" transform="matrix(-1 0 0 1 337.916 185.965)" fill="#6E6E85"/>
<rect width="4.65323" height="4.65323" transform="matrix(-1 0 0 1 337.916 181.305)" fill="#6E6E85"/>
<rect width="4.65323" height="4.65323" transform="matrix(-1 0 0 1 337.916 195.27)" fill="#6E6E85"/>
<rect width="4.65323" height="4.65323" transform="matrix(-1 0 0 1 337.916 199.922)" fill="#6E6E85"/>
<rect width="4.65323" height="4.65323" transform="matrix(-1 0 0 1 337.916 204.574)" fill="#6E6E85"/>
<rect width="4.65323" height="4.65323" transform="matrix(-1 0 0 1 337.916 209.234)" fill="#6E6E85"/>
<rect width="4.65323" height="4.65323" transform="matrix(-1 0 0 1 337.916 213.879)" fill="#6E6E85"/>
<rect width="4.65323" height="4.65323" transform="matrix(-1 0 0 1 333.267 218.535)" fill="#6E6E85"/>
<rect width="4.65323" height="4.65323" transform="matrix(-1 0 0 1 337.916 227.844)" fill="#6E6E85"/>
<rect width="4.65323" height="4.65323" transform="matrix(-1 0 0 1 337.916 232.492)" fill="#E1EDF9"/>
<rect width="4.65323" height="4.65323" transform="matrix(-1 0 0 1 333.267 246.453)" fill="#E1EDF9"/>
<rect width="4.65323" height="4.65323" transform="matrix(-1 0 0 1 333.267 260.418)" fill="white"/>
<rect width="4.65323" height="4.65323" transform="matrix(-1 0 0 1 333.267 265.066)" fill="#E1EDF9"/>
<rect width="4.65323" height="4.65323" transform="matrix(-1 0 0 1 333.267 269.719)" fill="#303051"/>
<rect width="4.65323" height="4.65323" transform="matrix(-1 0 0 1 333.267 274.375)" fill="#303051"/>
<rect x="328.615" y="279.027" width="4.65323" height="4.65323" fill="#303051"/>
<rect width="4.65323" height="4.65323" transform="matrix(-1 0 0 1 333.267 190.617)" fill="#6E6E85"/>
<rect width="4.65323" height="4.65323" transform="matrix(-1 0 0 1 333.267 195.27)" fill="#6E6E85"/>
<rect width="4.65323" height="4.65323" transform="matrix(-1 0 0 1 333.267 199.922)" fill="#D0E2F4"/>
<rect width="5.041" height="4.65323" transform="matrix(-1 0 0 1 333.267 204.574)" fill="#D0E2F4"/>
<rect width="4.65323" height="4.65323" transform="matrix(-1 0 0 1 333.267 209.234)" fill="#6E6E85"/>
<rect width="4.65323" height="4.65323" transform="matrix(-1 0 0 1 333.267 213.879)" fill="#6E6E85"/>
<rect width="4.65323" height="4.65323" transform="matrix(-1 0 0 1 333.267 232.492)" fill="#6E6E85"/>
<rect width="4.65323" height="4.65323" transform="matrix(-1 0 0 1 333.267 241.805)" fill="#6E6E85"/>
<rect width="4.65323" height="4.65323" transform="matrix(-1 0 0 1 328.615 246.453)" fill="#E1EDF9"/>
<rect width="4.65323" height="4.65323" transform="matrix(-1 0 0 1 328.615 251.105)" fill="#E1EDF9"/>
<rect width="4.65323" height="4.65323" transform="matrix(-1 0 0 1 333.267 251.105)" fill="#E1EDF9"/>
<rect width="4.65323" height="4.65323" transform="matrix(-1 0 0 1 333.267 255.758)" fill="#E1EDF9"/>
<rect width="4.65323" height="4.65323" transform="matrix(-1 0 0 1 328.615 255.758)" fill="#E1EDF9"/>
<rect width="4.65323" height="4.65323" transform="matrix(-1 0 0 1 328.615 260.418)" fill="#E1EDF9"/>
<rect width="4.65323" height="4.65323" transform="matrix(-1 0 0 1 328.615 265.066)" fill="#E1EDF9"/>
<rect width="4.65323" height="4.65323" transform="matrix(-1 0 0 1 328.615 269.719)" fill="#E1EDF9"/>
<rect width="4.65323" height="4.65323" transform="matrix(-1 0 0 1 328.615 274.375)" fill="#303051"/>
<rect x="333.267" y="279.027" width="4.65323" height="4.65323" fill="#303051"/>
<rect x="333.267" y="283.676" width="4.65323" height="4.65323" fill="#303051"/>
<rect width="4.65323" height="4.65323" transform="matrix(-1 0 0 1 328.615 199.922)" fill="white"/>
<rect width="4.65323" height="4.65323" transform="matrix(-1 0 0 1 328.615 204.574)" fill="#D0E2F4"/>
<rect width="4.65323" height="4.65323" transform="matrix(-1 0 0 1 328.615 209.234)" fill="#6E6E85"/>
<rect width="5.041" height="4.65323" transform="matrix(-1 0 0 1 328.998 213.879)" fill="white"/>
<rect width="4.65323" height="4.65323" transform="matrix(-1 0 0 1 323.959 209.234)" fill="white"/>
<rect width="4.65323" height="4.65323" transform="matrix(-1 0 0 1 323.959 213.879)" fill="#6E6E85"/>
<rect width="4.65323" height="4.65323" transform="matrix(-1 0 0 1 323.959 218.535)" fill="#6E6E85"/>
<rect width="4.65323" height="4.65323" transform="matrix(-1 0 0 1 323.959 223.188)" fill="white"/>
<rect width="4.65323" height="4.65323" transform="matrix(-1 0 0 1 319.303 213.879)" fill="#D0E2F4"/>
<rect width="4.65323" height="4.65323" transform="matrix(-1 0 0 1 319.303 218.535)" fill="#D0E2F4"/>
<rect width="4.65323" height="4.65323" transform="matrix(-1 0 0 1 319.303 223.188)" fill="#6E6E85"/>
<rect width="4.65323" height="4.65323" transform="matrix(-1 0 0 1 319.303 227.844)" fill="white"/>
<rect width="4.65323" height="4.65323" transform="matrix(-1 0 0 1 314.654 223.188)" fill="#D0E2F4"/>
<rect width="4.65323" height="4.65323" transform="matrix(-1 0 0 1 314.654 227.844)" fill="#D0E2F4"/>
<rect width="4.65323" height="4.65323" transform="matrix(-1 0 0 1 314.654 232.492)" fill="#D0E2F4"/>
<rect x="541.363" y="148.367" width="4.45493" height="4.45493" fill="#5E66EA"/>
<rect x="541.363" y="143.912" width="4.45493" height="4.45493" fill="#1B24CE"/>
<rect x="541.363" y="139.459" width="4.45493" height="4.45493" fill="#303051"/>
<rect x="541.363" y="135.004" width="4.45493" height="4.45493" fill="#19193E"/>
<rect width="4.45493" height="4.45493" transform="matrix(1 0 0 -1 541.363 157.279)" fill="#1B24CE"/>
<rect width="4.45493" height="4.45493" transform="matrix(1 0 0 -1 541.363 161.732)" fill="#303051"/>
<rect width="4.45493" height="4.45493" transform="matrix(1 0 0 -1 541.363 166.188)" fill="#19193E"/>
<rect x="541.363" y="148.367" width="4.45493" height="4.45493" transform="rotate(90 541.363 148.367)" fill="#1B24CE"/>
<rect x="536.907" y="148.367" width="4.45493" height="4.45493" transform="rotate(90 536.907 148.367)" fill="#303051"/>
<rect x="532.455" y="148.367" width="4.45493" height="4.45493" transform="rotate(90 532.455 148.367)" fill="#19193E"/>
<rect x="550.275" y="148.367" width="4.45493" height="4.45493" transform="rotate(90 550.275 148.367)" fill="#1B24CE"/>
<rect x="554.727" y="148.367" width="4.45493" height="4.45493" transform="rotate(90 554.727 148.367)" fill="#303051"/>
<rect x="559.183" y="148.367" width="4.45493" height="4.45493" transform="rotate(90 559.183 148.367)" fill="#19193E"/>
<rect x="397.363" y="89.3672" width="4.45493" height="4.45493" fill="white"/>
<rect x="397.363" y="84.9121" width="4.45493" height="4.45493" fill="#D0E2F4"/>
<rect opacity="0.7" x="397.363" y="80.459" width="4.45493" height="4.45493" fill="#FEDBFF"/>
<rect opacity="0.2" x="397.363" y="76.0039" width="4.45493" height="4.45493" fill="#FEB8FF"/>
<rect width="4.45493" height="4.45493" transform="matrix(1 0 0 -1 397.363 98.2793)" fill="#D0E2F4"/>
<rect opacity="0.7" width="4.45493" height="4.45493" transform="matrix(1 0 0 -1 397.363 102.732)" fill="#FEDBFF"/>
<rect opacity="0.2" width="4.45493" height="4.45493" transform="matrix(1 0 0 -1 397.363 107.188)" fill="#FEB8FF"/>
<rect x="397.363" y="89.3672" width="4.45493" height="4.45493" transform="rotate(90 397.363 89.3672)" fill="#D0E2F4"/>
<rect opacity="0.7" x="392.907" y="89.3672" width="4.45493" height="4.45493" transform="rotate(90 392.907 89.3672)" fill="#FEDBFF"/>
<rect opacity="0.2" x="388.455" y="89.3672" width="4.45493" height="4.45493" transform="rotate(90 388.455 89.3672)" fill="#FEB8FF"/>
<rect x="406.275" y="89.3672" width="4.45493" height="4.45493" transform="rotate(90 406.275 89.3672)" fill="#D0E2F4"/>
<rect opacity="0.7" x="410.727" y="89.3672" width="4.45493" height="4.45493" transform="rotate(90 410.727 89.3672)" fill="#FEDBFF"/>
<rect opacity="0.7" x="406.275" y="84.9121" width="4.45493" height="4.45493" transform="rotate(90 406.275 84.9121)" fill="#FEDBFF"/>
<rect opacity="0.7" x="406.275" y="93.8242" width="4.45493" height="4.45493" transform="rotate(90 406.275 93.8242)" fill="#FEDBFF"/>
<rect opacity="0.7" x="397.363" y="93.8242" width="4.45493" height="4.45493" transform="rotate(90 397.363 93.8242)" fill="#FEDBFF"/>
<rect opacity="0.7" x="397.363" y="84.9121" width="4.45493" height="4.45493" transform="rotate(90 397.363 84.9121)" fill="#FEDBFF"/>
<rect opacity="0.2" x="415.183" y="89.3672" width="4.45493" height="4.45493" transform="rotate(90 415.183 89.3672)" fill="#FEB8FF"/>
<g opacity="0.5">
<rect width="5.22435" height="26.1217" transform="matrix(-1 0 0 1 1220.12 443.9)" fill="#FC35FF"/>
<rect width="5.22435" height="15.673" transform="matrix(-1 0 0 1 1214.9 449.117)" fill="#FC35FF"/>
<rect width="5.22435" height="15.673" transform="matrix(-1 0 0 1 1246.24 449.117)" fill="#FC35FF"/>
<rect width="5.22435" height="26.1217" transform="matrix(-1 0 0 1 1241.02 443.9)" fill="#FC35FF"/>
<rect width="5.22435" height="15.673" transform="matrix(4.37114e-08 1 1 -4.37114e-08 1220.12 470.014)" fill="#FC35FF"/>
<rect width="5.22435" height="15.673" transform="matrix(4.37114e-08 1 1 -4.37114e-08 1220.12 438.674)" fill="#FC35FF"/>
<rect width="5.22435" height="26.1217" transform="matrix(4.37114e-08 1 1 -4.37114e-08 1214.9 443.9)" fill="#FC35FF"/>
<rect width="26.1219" height="15.673" transform="matrix(4.37114e-08 1 1 -4.37114e-08 1220.12 443.9)" fill="#FC35FF"/>
<rect width="5.22435" height="15.673" transform="matrix(-1 0 0 1 1251.46 449.125)" fill="#222DE3"/>
<rect width="5.22435" height="5.22435" transform="matrix(-1 0 0 1 1246.24 443.898)" fill="#222DE3"/>
<rect width="5.22435" height="5.22435" transform="matrix(-1 0 0 1 1241.01 438.682)" fill="#222DE3"/>
<rect x="1204.45" y="449.125" width="5.22435" height="15.673" fill="#222DE3"/>
<rect x="1199.22" y="449.125" width="5.22435" height="15.673" fill="#FD9CFF"/>
<rect x="1194" y="443.898" width="5.22435" height="26.1214" fill="#5E66EA"/>
<rect x="1256.69" y="443.898" width="5.22435" height="26.1214" fill="#5E66EA"/>
<rect x="1251.47" y="449.125" width="5.22435" height="15.673" fill="#0F1576"/>
<rect x="1220.12" y="485.701" width="5.22435" height="15.673" transform="rotate(-90 1220.12 485.701)" fill="#0F1576"/>
<rect x="1220.12" y="433.443" width="5.22435" height="15.673" transform="rotate(-90 1220.12 433.443)" fill="#FD9CFF"/>
<rect x="1214.9" y="428.229" width="5.22435" height="26.1251" transform="rotate(-90 1214.9 428.229)" fill="#5E66EA"/>
<rect x="1214.9" y="490.918" width="5.22435" height="26.1251" transform="rotate(-90 1214.9 490.918)" fill="#5E66EA"/>
<rect x="1241.03" y="485.701" width="5.22435" height="5.21967" transform="rotate(-90 1241.03 485.701)" fill="#5E66EA"/>
<rect x="1246.24" y="485.701" width="5.22435" height="5.21967" transform="rotate(-90 1246.24 485.701)" fill="#5E66EA"/>
<rect x="1251.47" y="480.475" width="5.22435" height="5.21967" transform="rotate(-90 1251.47 480.475)" fill="#5E66EA"/>
<rect x="1256.69" y="475.248" width="5.22435" height="5.21967" transform="rotate(-90 1256.69 475.248)" fill="#5E66EA"/>
<rect width="5.22435" height="5.21967" transform="matrix(4.37114e-08 -1 -1 -4.37114e-08 1214.9 485.701)" fill="#5E66EA"/>
<rect x="1246.25" y="480.475" width="5.22435" height="5.21967" transform="rotate(-90 1246.25 480.475)" fill="#5E66EA"/>
<rect width="5.22435" height="5.21967" transform="matrix(4.37114e-08 -1 -1 -4.37114e-08 1209.66 480.475)" fill="#5E66EA"/>
<rect x="1251.46" y="475.248" width="5.22435" height="5.21967" transform="rotate(-90 1251.46 475.248)" fill="#5E66EA"/>
<rect width="5.22435" height="5.21967" transform="matrix(4.37114e-08 -1 -1 -4.37114e-08 1204.45 475.248)" fill="#5E66EA"/>
<rect width="5.22435" height="5.21967" transform="matrix(-4.37114e-08 1 1 4.37114e-08 1241.03 428.229)" fill="#5E66EA"/>
<rect x="1214.9" y="428.229" width="5.22435" height="5.21967" transform="rotate(90 1214.9 428.229)" fill="#5E66EA"/>
<rect width="5.22435" height="5.21967" transform="matrix(-4.37114e-08 1 1 4.37114e-08 1246.25 433.443)" fill="#5E66EA"/>
<rect x="1209.66" y="433.443" width="5.22435" height="5.21967" transform="rotate(90 1209.66 433.443)" fill="#5E66EA"/>
<rect width="5.22435" height="5.21967" transform="matrix(-4.37114e-08 1 1 4.37114e-08 1251.46 438.682)" fill="#5E66EA"/>
<rect x="1204.45" y="438.682" width="5.22435" height="5.21967" transform="rotate(90 1204.45 438.682)" fill="#5E66EA"/>
<rect x="1204.45" y="464.795" width="5.22435" height="5.22452" fill="#FD9CFF"/>
<rect x="1209.67" y="470.021" width="5.22435" height="5.22452" fill="#FD9CFF"/>
<rect x="1214.9" y="475.248" width="5.22435" height="5.22452" fill="#0F1576"/>
<rect x="1214.9" y="480.475" width="5.22435" height="5.22452" fill="#FD9CFF"/>
<rect x="1235.79" y="475.248" width="5.22435" height="5.22452" fill="#0F1576"/>
<rect x="1235.79" y="480.475" width="5.22435" height="5.22452" fill="#0F1576"/>
<rect x="1241.01" y="470.021" width="5.22435" height="5.22452" fill="#0F1576"/>
<rect x="1246.24" y="470.021" width="5.22435" height="5.22452" fill="#0F1576"/>
<rect x="1241.01" y="475.248" width="5.22435" height="5.22452" fill="#0F1576"/>
<rect x="1204.44" y="438.682" width="5.22435" height="5.22452" fill="#FD9CFF"/>
<rect width="5.22435" height="5.22452" transform="matrix(-1 0 0 1 1251.47 438.682)" fill="#FD9CFF"/>
<rect x="1209.67" y="433.443" width="5.22435" height="5.22452" fill="#FD9CFF"/>
<rect width="5.22435" height="5.22452" transform="matrix(-1 0 0 1 1246.24 433.443)" fill="#FD9CFF"/>
<rect x="1209.68" y="475.248" width="5.22435" height="5.22452" fill="#FD9CFF"/>
<rect x="1204.45" y="470.021" width="5.22435" height="5.22452" fill="#FD9CFF"/>
<rect x="1246.24" y="464.795" width="5.22435" height="5.22452" fill="#0F1576"/>
<rect x="1246.24" y="443.898" width="5.22435" height="5.22452" fill="#0F1576"/>
<rect x="1251.47" y="443.898" width="5.22435" height="5.22452" fill="#0F1576"/>
<rect x="1251.47" y="464.795" width="5.22435" height="5.22452" fill="#0F1576"/>
<rect x="1241.01" y="438.682" width="5.22435" height="5.22452" fill="#0F1576"/>
<rect x="1235.79" y="433.443" width="5.22435" height="5.22452" fill="#FD9CFF"/>
<rect x="1235.79" y="428.229" width="5.22435" height="5.22452" fill="#FD9CFF"/>
<rect x="1214.9" y="433.443" width="5.22435" height="5.22452" fill="#FD9CFF"/>
<rect x="1214.9" y="428.229" width="5.22435" height="5.22452" fill="#FD9CFF"/>
<rect x="1209.67" y="438.682" width="5.22435" height="5.22452" fill="#FEDBFF"/>
<rect x="1204.45" y="443.898" width="5.22435" height="5.22452" fill="#FEDBFF"/>
<rect x="1204.45" y="449.125" width="5.22435" height="5.22452" fill="#FC35FF"/>
<rect x="1199.22" y="443.898" width="5.22435" height="5.22452" fill="#FD9CFF"/>
<rect x="1199.22" y="464.795" width="5.22435" height="5.22452" fill="#FD9CFF"/>
<rect x="1209.68" y="443.898" width="5.22435" height="5.22435" fill="#222DE3"/>
<rect x="1214.9" y="438.682" width="5.22435" height="5.22435" fill="#222DE3"/>
<rect x="1220.12" y="480.475" width="5.22435" height="15.673" transform="rotate(-90 1220.12 480.475)" fill="#222DE3"/>
<rect x="1220.12" y="438.682" width="5.22435" height="15.673" transform="rotate(-90 1220.12 438.682)" fill="#222DE3"/>
<rect x="1214.9" y="475.248" width="5.22435" height="5.22435" transform="rotate(-90 1214.9 475.248)" fill="#222DE3"/>
<rect x="1209.68" y="470.021" width="5.22435" height="5.22435" transform="rotate(-90 1209.68 470.021)" fill="#222DE3"/>
<rect width="5.22435" height="5.22435" transform="matrix(4.37114e-08 -1 -1 -4.37114e-08 1241.01 475.248)" fill="#222DE3"/>
<rect width="5.22435" height="5.22435" transform="matrix(4.37114e-08 -1 -1 -4.37114e-08 1246.24 470.021)" fill="#222DE3"/>
<rect width="5.22435" height="5.22435" transform="matrix(4.37114e-08 -1 -1 -4.37114e-08 1241.01 470.021)" fill="#222DE3"/>
<rect width="5.22435" height="5.22435" transform="matrix(4.37114e-08 -1 -1 -4.37114e-08 1235.79 470.021)" fill="#FC35FF"/>
<rect width="5.22435" height="5.22435" transform="matrix(4.37114e-08 -1 -1 -4.37114e-08 1241.01 464.795)" fill="#FC35FF"/>
<rect width="5.22435" height="5.22435" transform="matrix(4.37114e-08 -1 -1 -4.37114e-08 1235.79 475.248)" fill="#222DE3"/>
<rect width="5.22435" height="5.22435" transform="matrix(4.37114e-08 -1 -1 -4.37114e-08 1230.57 475.248)" fill="#FC35FF"/>
<rect width="5.22435" height="5.22435" transform="matrix(4.37114e-08 -1 -1 -4.37114e-08 1246.24 464.795)" fill="#222DE3"/>
<rect width="5.22435" height="5.22435" transform="matrix(4.37114e-08 -1 -1 -4.37114e-08 1246.24 459.578)" fill="#FC35FF"/>
<rect width="5.22435" height="5.22435" transform="matrix(4.37114e-08 -1 -1 -4.37114e-08 1246.24 454.352)" fill="#FC35FF"/>
</g>
</g>
<defs>
<clipPath id="clip0_1351_33709">
<rect width="1440" height="535" fill="white" transform="translate(0 0.00390625)"/>
</clipPath>
</defs>
</svg>
