<svg width="1440" height="789" viewBox="0 0 1440 789" fill="none" xmlns="http://www.w3.org/2000/svg">
<g clip-path="url(#clip0_0_1)">
<mask id="mask0_0_1" style="mask-type:alpha" maskUnits="userSpaceOnUse" x="0" y="0" width="1440" height="789">
<path d="M1440 0H0V789H1440V0Z" fill="white"/>
</mask>
<g mask="url(#mask0_0_1)">
<mask id="mask1_0_1" style="mask-type:alpha" maskUnits="userSpaceOnUse" x="0" y="1" width="1440" height="789">
<path d="M1440 1H0V789.005H1440V1Z" fill="white"/>
</mask>
<g mask="url(#mask1_0_1)">
<mask id="mask2_0_1" style="mask-type:alpha" maskUnits="userSpaceOnUse" x="0" y="1" width="1440" height="789">
<path d="M1440 1H0V789.005H1440V1Z" fill="white"/>
</mask>
<g mask="url(#mask2_0_1)">
<g opacity="0.8">
<path d="M-40.4525 87.1797H323.462V43.6139H284.388L284.435 36.3004H250.769V29.031H51.5046V43.5682H0.547852V58.1053H-40.4525V87.1797Z" fill="#19193E"/>
<path d="M1310.42 552.789H845.871V588.746H1310.42V552.789Z" fill="#454EE7"/>
<path d="M1092.15 581.475H838.605V588.743H1092.15V581.475Z" fill="#454EE7"/>
<path d="M1103.79 588.746H838.605V596.014H1103.79V588.746Z" fill="#454EE7"/>
<path d="M1067.56 596.012H838.605V603.28H1067.56V596.012Z" fill="#454EE7"/>
<path d="M1003.79 610.551H831.925V617.819H1003.79V610.551Z" fill="#454EE7"/>
<path d="M1387 523.658H853.3V538.197H1387V523.658Z" fill="#454EE7"/>
<path d="M987.108 470.662H118.842V733.439H987.108V470.662Z" fill="#454EE7"/>
<path d="M1188.33 584.957H118.842V700.653H1188.33V584.957Z" fill="#454EE7"/>
<path d="M1191.85 479.982H940.293V487.251H1191.85V479.982Z" fill="#454EE7"/>
<path d="M1145.97 472.717H938.626V479.986H1145.97V472.717Z" fill="#454EE7"/>
<path d="M1454.24 487.311H955.075V494.58H1454.24V487.311Z" fill="#454EE7"/>
<path d="M161.499 409.166H51.8521V416.435H161.499V409.166Z" fill="#454EE7"/>
<path d="M249.434 65.0781H35.2898V212.277H249.434V65.0781Z" fill="#222DE3"/>
<path d="M51.5002 227.115H17.076V219.847H51.5002V227.115Z" fill="#222DE3"/>
<path d="M195.504 257.863H106.281V247.106H195.504V257.863Z" fill="#222DE3"/>
<path d="M263.972 181.344H271.241V108.906H263.972V181.344Z" fill="#222DE3"/>
<path d="M271.241 166.838H278.51V123.01H271.241V166.838Z" fill="#222DE3"/>
<path d="M283.854 57.8066H249.43V65.0742H283.854V57.8066Z" fill="#222DE3"/>
<path d="M263.969 72.3438H249.43V79.6114H263.969V72.3438Z" fill="#222DE3"/>
<path d="M278.041 205.25H248.963V212.518H278.041V205.25Z" fill="#222DE3"/>
<path d="M310.7 141.609H278.043V148.877H310.7V141.609Z" fill="#222DE3"/>
<path d="M263.969 101.42H249.43V197.748H263.969V101.42Z" fill="#222DE3"/>
<path d="M6.20972 130.496H20.7485V181.373H6.20972V130.496Z" fill="#222DE3"/>
<path d="M-25.9137 138.043H6.74329V130.775H-25.9137V138.043Z" fill="#222DE3"/>
<path d="M-1.11487 108.701H20.7478V101.433H-1.11487V108.701Z" fill="#222DE3"/>
<path d="M-15.1194 167.143H6.74331V159.875H-15.1194V167.143Z" fill="#222DE3"/>
<path d="M13.4782 101.428H35.3408V94.1603H13.4782V101.428Z" fill="#222DE3"/>
<path d="M-3.3194 130.512H18.5432V123.244H-3.3194V130.512Z" fill="#222DE3"/>
<path d="M21.8957 65.0781H50.9733V57.8105H21.8957V65.0781Z" fill="#222DE3"/>
<path d="M13.4782 79.6484H35.3408V72.3299H13.4782V79.6484Z" fill="#222DE3"/>
<path d="M-21.2434 58.1113H0.564812V50.8419H-21.2434V58.1113Z" fill="#0F1576"/>
<path d="M323.462 86.8418H396.156V65.0336H323.462V86.8418Z" fill="#19193E"/>
<path d="M323.461 65.0391H362.231V57.7697H323.461V65.0391Z" fill="#19193E"/>
<path d="M250.764 36.3008H323.458V28.9823H250.764V36.3008Z" fill="#080B3E"/>
<path d="M284.385 43.6211H323.458V36.3026H284.385V43.6211Z" fill="#080B3E"/>
<path d="M-59.5487 145.316H6.97863V138.048H-59.5487V145.316Z" fill="#222DE3"/>
<path d="M20.751 192.57H35.2898V101.408H20.751V192.57Z" fill="#222DE3"/>
<path d="M216.613 43.2676H91.2178V50.5352H216.613V43.2676Z" fill="#222DE3"/>
<path d="M180.278 36.002H120.282V43.2696H180.278V36.002Z" fill="#222DE3"/>
<path d="M217.146 21.7715H91.7512V29.0391H217.146V21.7715Z" fill="#19193E"/>
<path d="M815.079 567.066H243.082V574.335H815.079V567.066Z" fill="#777EED"/>
<path d="M713.367 545.459H294.165V552.728H713.367V545.459Z" fill="#777EED"/>
<path d="M634.009 538.186H381.397V545.455H634.009V538.186Z" fill="#777EED"/>
<path d="M707.751 487.244H227.94V494.513H707.751V487.244Z" fill="#777EED"/>
<path d="M712.472 574.34H165.139V581.609H712.472V574.34Z" fill="#777EED"/>
<path d="M751.371 581.604H165.139V596.143H751.371V581.604Z" fill="#777EED"/>
<path d="M873.462 625.086H824.094V632.355H873.462V625.086Z" fill="#777EED"/>
<path d="M854.458 617.812H824.094V625.081H854.458V617.812Z" fill="#777EED"/>
<path d="M838.126 639.623H824.094V646.892H838.126V639.623Z" fill="#777EED"/>
<path d="M866.62 671.656H824.094V678.925H866.62V671.656Z" fill="#777EED"/>
<path d="M856.941 664.188H822.411V675.092H856.941V664.188Z" fill="#777EED"/>
<path d="M866.62 632.357H824.094V639.626H866.62V632.357Z" fill="#777EED"/>
<path d="M1029.88 603.273H824.094V610.542H1029.88V603.273Z" fill="#777EED"/>
<path d="M895.657 610.539H824.094V617.808H895.657V610.539Z" fill="#777EED"/>
<path d="M751.534 552.725H205.117V561.812H751.534V552.725Z" fill="#777EED"/>
<path d="M1279.53 494.51H125.483V501.779H1279.53V494.51Z" fill="#777EED"/>
<path d="M824.095 596.01H101.416V703.544H824.095V596.01Z" fill="#777EED"/>
<path d="M1211.7 560.373H295.444V574.912H1211.7V560.373Z" fill="#777EED"/>
<path d="M1380.34 523.045H120.309V530.314H1380.34V523.045Z" fill="#777EED"/>
<path d="M879.024 678.869H517.195V700.677H879.024V678.869Z" fill="#FEB8FF"/>
<path d="M749.851 678.869H558.385V671.6H749.851V678.869Z" fill="#FEB8FF"/>
<path d="M692.953 671.604H587.971V664.335H692.953V671.604Z" fill="#FEB8FF"/>
<path d="M654.117 664.33H549.135V657.061H654.117V664.33Z" fill="#FEB8FF"/>
<path d="M678.709 657.057H573.727V649.788H678.709V657.057Z" fill="#FEB8FF"/>
<path d="M646.425 649.848H601.627V642.579H646.425V649.848Z" fill="#FEB8FF"/>
<path d="M249.433 65.0781H50.9733V50.5393H249.433V65.0781Z" fill="#222DE3"/>
<path d="M98.0682 79.607V65.0599H119.866V57.8066H179.885V68.7068H201.661V79.607H223.898V101.398H244.71V197.742H230.73V205.013H223.19V219.545H201.669V234.082H186.92V248.62H142.495H120.282V234.082H98.473V219.545H76.6783V197.742H62.1423V183.127H54.9V94.0617H62.1423V86.9586H76.262V79.607H98.0682Z" fill="#454EE7"/>
<path d="M1282.69 501.785H890.928V509.054H1282.69V501.785Z" fill="#454EE7"/>
<path d="M1362.77 538.189H969.613V552.728H1362.77V538.189Z" fill="#454EE7"/>
<path d="M1396.09 516.387H967.192V523.656H1396.09V516.387Z" fill="#454EE7"/>
<path d="M1092.15 509.059H967.004V516.328H1092.15V509.059Z" fill="#454EE7"/>
<path d="M646.44 674.943H614.887V700.684H646.44V674.943Z" fill="white"/>
<path d="M627.354 706.492H620.732V713.114H627.354V706.492Z" fill="white"/>
<path d="M627.354 668.322H620.732V674.944H627.354V668.322Z" fill="white"/>
<path d="M633.976 706.492H627.354V713.114H633.976V706.492Z" fill="white"/>
<path d="M633.976 668.322H627.354V674.944H633.976V668.322Z" fill="white"/>
<path d="M640.594 706.492H633.972V713.114H640.594V706.492Z" fill="white"/>
<path d="M640.594 668.322H633.972V674.944H640.594V668.322Z" fill="white"/>
<path d="M614.887 687.411V680.789H608.265V687.411H614.887Z" fill="white"/>
<path d="M653.061 687.411V680.789H646.439V687.411H653.061Z" fill="white"/>
<path d="M614.887 694.032V687.41H608.265V694.032H614.887Z" fill="white"/>
<path d="M653.061 694.032V687.41H646.439V694.032H653.061Z" fill="white"/>
<path d="M614.887 700.655V694.033H608.265V700.655H614.887Z" fill="white"/>
<path d="M608.258 700.686V686.736H601.636V700.686H608.258Z" fill="white"/>
<path d="M659.682 700.677V686.736H653.06V700.677H659.682Z" fill="white"/>
<path d="M653.061 700.691V692.73H646.439V700.691H653.061Z" fill="white"/>
<path d="M1523.39 700.65H103.771V982.245H1523.39V700.65Z" fill="#FEDBFF"/>
<path d="M1523.3 716.898H103.947V982.231H1523.3V716.898Z" fill="#FEB8FF"/>
<path d="M1523.3 767.785H103.947V982.232H1523.3V767.785Z" fill="#FC5CFF"/>
<path d="M209.346 94.1562H91.2179V212.284H209.346V94.1562Z" fill="#00FFEE"/>
<path d="M216.614 101.422H209.346V205.017H216.614V101.422Z" fill="#00D8C9"/>
<path d="M202.077 219.549V212.281H98.482V219.549H202.077Z" fill="#00D8C9"/>
<path d="M202.077 86.8886V94.1562H98.482V86.8886H202.077Z" fill="#00FFEE"/>
<path d="M83.9503 101.422H91.2179V205.017H83.9503V101.422Z" fill="#00FFEE"/>
<path d="M223.88 108.693H216.612V197.755H223.88V108.693Z" fill="#00D8C9"/>
<path d="M194.812 226.823V219.555H105.75V226.823H194.812Z" fill="#00D8C9"/>
<path d="M194.812 79.623V86.8906H105.75V79.623H194.812Z" fill="#00FFEE"/>
<path d="M76.6813 108.693H83.9489V197.755H76.6813V108.693Z" fill="#00FFEE"/>
<path d="M231.145 123.225H223.877V183.221H231.145V123.225Z" fill="#00D8C9"/>
<path d="M180.278 234.094V226.826H120.282V234.094H180.278Z" fill="#00D8C9"/>
<path d="M180.278 72.3574V79.625H120.282V72.3574H180.278Z" fill="#00FFEE"/>
<path d="M69.4122 123.225H76.6798V183.221H69.4122V123.225Z" fill="#00FFEE"/>
<path d="M238.414 142.312H231.146V168.675H238.414V142.312Z" fill="#00D8C9"/>
<path d="M69.4134 137.77H62.1458V168.665H69.4134V137.77Z" fill="#00FFEE"/>
<path d="M161.186 241.352V234.084H139.378V241.352H161.186Z" fill="#00D8C9"/>
<path d="M161.186 72.3555V65.0879H139.378V72.3555H161.186Z" fill="#00FFEE"/>
<path d="M76.6798 123.266V115.998H69.4074V123.266H76.6798Z" fill="#00FFEE"/>
<path d="M209.344 205.016H120.282V212.282H209.344V205.016Z" fill="#00BBAF"/>
<path d="M209.343 197.758H139.375V205.025H209.343V197.758Z" fill="#00BBAF"/>
<path d="M209.344 190.486H180.278V197.752H209.344V190.486Z" fill="#00BBAF"/>
<path d="M187.544 175.947H180.278V190.486H187.544V175.947Z" fill="#00BBAF"/>
<path d="M180.275 183.213H173.009V190.482H180.275V183.213Z" fill="#00BBAF"/>
<path d="M161.183 234.092H139.375V241.361H161.183V234.092Z" fill="#D0FFFC"/>
<path d="M139.376 226.803H120.282V234.072H139.376V226.803Z" fill="#D0FFFC"/>
<path d="M180.28 226.826H161.186V234.095H180.28V226.826Z" fill="#D0FFFC"/>
<path d="M194.811 219.555H180.278V226.824H194.811V219.555Z" fill="#D0FFFC"/>
<path d="M202.081 212.281H194.812V219.55H202.081V212.281Z" fill="#D0FFFC"/>
<path d="M209.346 205.016H202.077V212.285H209.346V205.016Z" fill="#D0FFFC"/>
<path d="M216.612 197.758H209.343V205.027H216.612V197.758Z" fill="#D0FFFC"/>
<path d="M223.881 183.221H216.612V197.752H223.881V183.221Z" fill="#D0FFFC"/>
<path d="M223.877 108.727H216.608V123.258H223.877V108.727Z" fill="#D0FFFC"/>
<path d="M216.608 101.422H209.339V108.688H216.608V101.422Z" fill="#D0FFFC"/>
<path d="M231.146 168.682H223.877V183.214H231.146V168.682Z" fill="#D0FFFC"/>
<path d="M231.146 123.139H223.877V142.322H231.146V123.139Z" fill="#D0FFFC"/>
<path d="M238.415 142.312H231.146V168.675H238.415V142.312Z" fill="#D0FFFC"/>
<path d="M98.4843 205.016H91.2179V212.285H98.4843V205.016Z" fill="#00BBAF"/>
<path d="M194.812 164.123H187.543V190.482H194.812V164.123Z" fill="#00BBAF"/>
<path d="M180.28 190.486H161.186V197.752H180.28V190.486Z" fill="#00BBAF"/>
<path d="M209.346 123.225H202.077V137.776H209.346V123.225Z" fill="#00BBAF"/>
<path d="M209.345 183.221H194.812V190.487H209.345V183.221Z" fill="#00BBAF"/>
<path d="M209.345 137.77H194.812V183.216H209.345V137.77Z" fill="#00BBAF"/>
<path d="M173 138.391H158.467V183.837H173V138.391Z" fill="#00BBAF"/>
<path d="M158.471 123.852H151.202V138.391H158.471V123.852Z" fill="#00BBAF"/>
<path d="M142.113 115.97V108.701H127.574V115.97H142.113Z" fill="#00BBAF"/>
<path d="M151.198 138.391H143.929V145.66H151.198V138.391Z" fill="#00BBAF"/>
<path d="M127.571 108.707V101.438H120.302V108.707H127.571Z" fill="#00BBAF"/>
<path d="M134.844 123.244V115.975H127.575V123.244H134.844Z" fill="#00BBAF"/>
<path d="M127.571 129.906V122.637H120.302V129.906H127.571Z" fill="#00BBAF"/>
<path d="M165.736 131.117H158.467V138.386H165.736V131.117Z" fill="#00BBAF"/>
<path d="M159.075 176.551H151.806V183.82H159.075V176.551Z" fill="#00BBAF"/>
<path d="M69.4136 115.975H33.0737V123.243H69.4136V115.975Z" fill="#FEDBFF"/>
<path d="M69.4136 130.504H33.0737V137.772H69.4136V130.504Z" fill="#FEDBFF"/>
<path d="M62.1403 137.762H40.3427V145.03H62.1403V137.762Z" fill="#FEDBFF"/>
<path d="M62.1403 108.709H40.3427V115.977H62.1403V108.709Z" fill="#FEDBFF"/>
<path d="M40.3453 123.24H25.8047V130.506H40.3453V123.24Z" fill="#FEDBFF"/>
<path d="M25.809 123.24H18.5396V130.506H25.809V123.24Z" fill="#777EED"/>
<path d="M54.8754 145.035H47.6078V159.583H54.8754V145.035Z" fill="#FEDBFF"/>
<path d="M54.8754 94.1562H47.6078V108.695H54.8754V94.1562Z" fill="#FEDBFF"/>
<path d="M76.677 123.248H62.1459V130.514H76.677V123.248Z" fill="#FEDBFF"/>
<path d="M83.9472 123.248H76.676V130.514H83.9472V123.248Z" fill="#C7FEE3"/>
<path d="M54.8868 86.8906H47.6156V94.157H54.8868V86.8906Z" fill="#777EED"/>
<path opacity="0.5" d="M47.6099 115.975H40.3387V123.241H47.6099V115.975Z" fill="white"/>
<path opacity="0.5" d="M47.6099 130.512H40.3387V137.778H47.6099V130.512Z" fill="white"/>
<path opacity="0.5" d="M62.1402 130.512H54.869V137.778H62.1402V130.512Z" fill="white"/>
<path opacity="0.5" d="M62.1402 115.959H54.869V123.225H62.1402V115.959Z" fill="white"/>
<path d="M54.8868 159.588H47.6156V166.854H54.8868V159.588Z" fill="#777EED"/>
<path d="M62.1403 123.248H40.3427V130.516H62.1403V123.248Z" fill="white"/>
<path d="M54.8768 137.773V115.975H47.6092V137.773H54.8768Z" fill="white"/>
<path d="M1080.44 591.514H1122.83V619.996H1080.44V591.514Z" fill="#0F1576"/>
<path d="M1080.43 562.43H1101.62V591.508H1080.43V562.43Z" fill="#0F1576"/>
<path d="M1101.61 576.969H1116.15V591.508H1101.61V576.969Z" fill="#0F1576"/>
<path d="M1101.61 562.43H1108.88V576.969H1101.61V562.43Z" fill="#0F1576"/>
<path d="M1116.16 584.312H1122.83V591.581H1116.16V584.312Z" fill="#0F1576"/>
<path d="M1080.44 547.893H1101.62V562.432H1080.44V547.893Z" fill="#0F1576"/>
<path d="M1073.17 533.354H1091.03V547.893H1073.17V533.354Z" fill="#0F1576"/>
<path d="M1058.66 613.342H1073.19V634.564H1058.66V613.342Z" fill="#0F1576"/>
<path d="M1065.89 533.354H1073.16V540.623H1065.89V533.354Z" fill="#0F1576"/>
<path d="M1065.92 540.627H1073.19V591.591H1065.92V540.627Z" fill="#0F1576"/>
<path d="M1058.66 606.076H1065.93V613.345H1058.66V606.076Z" fill="#0F1576"/>
<path d="M1065.92 591.514H1073.19V619.996H1065.92V591.514Z" fill="#0F1576"/>
<path d="M1051.39 613.342H1058.66V641.824H1051.39V613.342Z" fill="#0F1576"/>
<path d="M1065.89 526.082H1073.16V533.351H1065.89V526.082Z" fill="#0F1576"/>
<path d="M1058.62 518.816H1065.89V526.085H1058.62V518.816Z" fill="#0F1576"/>
<path d="M1058.66 526.082H1065.93V533.351H1058.66V526.082Z" fill="#0F1576"/>
<path d="M1058.66 533.354H1065.93V540.623H1058.66V533.354Z" fill="#0F1576"/>
<path d="M1073.16 526.082H1080.43V533.351H1073.16V526.082Z" fill="#0F1576"/>
<path d="M1073.16 547.893H1080.43V627.261H1073.16V547.893Z" fill="#0F1576"/>
<path d="M256.699 79.6094H249.43V86.8788H256.699V79.6094Z" fill="#222DE3"/>
<path d="M1077.02 207.156V199.893H1069.76V207.156H1077.02Z" fill="white"/>
<path opacity="0.6" d="M1077.02 214.419V207.156H1069.76V214.419H1077.02Z" fill="white"/>
<path opacity="0.6" d="M1077.02 199.898V192.635H1069.76V199.898H1077.02Z" fill="white"/>
<path opacity="0.6" d="M1062.5 207.156H1069.76V199.893H1062.5V207.156Z" fill="white"/>
<path opacity="0.6" d="M1077.03 207.156H1084.29V199.893H1077.03V207.156Z" fill="white"/>
<path opacity="0.3" d="M1084.29 207.156H1091.55V199.893H1084.29V207.156Z" fill="white"/>
<path opacity="0.3" d="M1055.24 207.156H1062.5V199.893H1055.24V207.156Z" fill="white"/>
<path opacity="0.3" d="M1069.76 214.425V221.688H1077.02V214.425H1069.76Z" fill="white"/>
<path opacity="0.3" d="M1069.76 185.372V192.635H1077.02V185.372H1069.76Z" fill="white"/>
<path d="M1450 753.248H1033.22V760.517H1450V753.248Z" fill="#19193E"/>
<path d="M1450 760.52H1254.33V767.789H1450V760.52Z" fill="#19193E"/>
<path d="M952.909 113.902H945.64V121.171H952.909V113.902Z" fill="#454EE7"/>
<path d="M989.258 77.5605H981.989V84.8299H989.258V77.5605Z" fill="#07FFEE"/>
<path d="M960.178 106.637H952.909V113.906H960.178V106.637Z" fill="#5E66EA"/>
<path d="M996.523 70.2871H989.254V77.5565H996.523V70.2871Z" fill="#5CFFF4"/>
<path d="M967.447 99.3633H960.178V106.633H967.447V99.3633Z" fill="#5CFFF4"/>
<path d="M1003.8 63.0156H996.527V70.285H1003.8V63.0156Z" fill="#5E66EA"/>
<path d="M974.716 92.0996H967.447V99.369H974.716V92.0996Z" fill="#07FFEE"/>
<path d="M1011.07 55.75H1003.8V63.0194H1011.07V55.75Z" fill="#454EE7"/>
<path d="M981.985 84.8262H974.716V92.0956H981.985V84.8262Z" fill="white"/>
<path d="M974.716 77.5605H967.447V84.8299H974.716V77.5605Z" fill="#07FFEE"/>
<path d="M989.258 92.0996H981.989V99.369H989.258V92.0996Z" fill="#07FFEE"/>
<path d="M6.74052 174.408H-15.0677V181.677H6.74052V174.408Z" fill="#222DE3"/>
<path d="M251.514 183.275V123.312H244.246V183.275H251.514Z" fill="#454EE7"/>
<path d="M258.758 166.906V142.375H251.49V166.906H258.758Z" fill="#454EE7"/>
<path d="M1135.6 536.979H1408.2V682.367H1135.6V536.979Z" fill="#D0E2F4"/>
<path d="M987.187 595.139H1117.43V682.372H987.187V595.139Z" fill="#D0E2F4"/>
<path d="M1346.41 609.67H1491.8V682.364H1346.41V609.67Z" fill="#D0E2F4"/>
<path d="M1346.41 566.055H1455.45V609.671H1346.41V566.055Z" fill="#D0E2F4"/>
<path d="M1237.38 536.978V406.129H1288.27V536.978H1237.38Z" fill="#F4F6F8"/>
<path d="M1251.91 449.745V406.129H1266.45V449.745H1251.91Z" fill="#FD78FF"/>
<path d="M1251.91 413.398V406.129H1266.45V413.398H1251.91Z" fill="#FFF7FF"/>
<path d="M1251.91 420.664V413.395H1259.18V420.664H1251.91Z" fill="#FFF7FF"/>
<path d="M1237.38 420.668V406.129H1251.92V420.668H1237.38Z" fill="#FD78FF"/>
<path d="M1244.64 427.935V420.666H1251.91V427.935H1244.64Z" fill="#FD78FF"/>
<path d="M1266.45 413.398V406.129H1280.99V413.398H1266.45Z" fill="#FD78FF"/>
<path d="M1266.45 420.664V413.395H1273.72V420.664H1266.45Z" fill="#FD78FF"/>
<path d="M1251.91 457.011V449.742H1259.18V457.011H1251.91Z" fill="#FD78FF"/>
<path d="M1244.64 464.285V457.016H1251.91V464.285H1244.64Z" fill="#FD78FF"/>
<path d="M1280.99 551.512V493.357H1324.61V551.512H1280.99Z" fill="#F4F6F8"/>
<path d="M1081.08 573.32H1135.6V609.667H1081.08V573.32Z" fill="#D0E2F4"/>
<path d="M950.841 646.018H987.188V682.365H950.841V646.018Z" fill="#D0E2F4"/>
<path d="M862.397 664.189H898.744V685.997H862.397V664.189Z" fill="#D0E2F4"/>
<path d="M1037.46 566.055H1044.73V573.324H1037.46V566.055Z" fill="#D0E2F4"/>
<path d="M1037.46 580.594H1044.73V587.863H1037.46V580.594Z" fill="#D0E2F4"/>
<path d="M1022.92 587.867H1044.73V595.136H1022.92V587.867Z" fill="#D0E2F4"/>
<path d="M877.54 678.734H892.079V693.273H877.54V678.734Z" fill="#D0E2F4"/>
<path d="M877.537 671.463H884.806V678.732H877.537V671.463Z" fill="#D0E2F4"/>
<path d="M892.079 686H899.348V693.269H892.079V686Z" fill="#D0E2F4"/>
<path d="M906.617 700.539H913.886V707.808H906.617V700.539Z" fill="#D0E2F4"/>
<path d="M833.314 686H847.853V693.269H833.314V686Z" fill="#D0E2F4"/>
<path d="M884.805 693.273H906.613V700.542H884.805V693.273Z" fill="#D0E2F4"/>
<path d="M1044.74 573.32H1052.01V595.128H1044.74V573.32Z" fill="#D0E2F4"/>
<path d="M1052 580.594H1059.27V595.133H1052V580.594Z" fill="#D0E2F4"/>
<path d="M1073.81 587.867H1081.08V595.136H1073.81V587.867Z" fill="#D0E2F4"/>
<path d="M1059.27 587.867H1066.54V595.136H1059.27V587.867Z" fill="#D0E2F4"/>
<path d="M1099.25 566.055H1106.52V573.324H1099.25V566.055Z" fill="#D0E2F4"/>
<path d="M1113.79 551.518H1135.6V558.787H1113.79V551.518Z" fill="#D0E2F4"/>
<path d="M1113.79 544.244H1135.6V551.513H1113.79V544.244Z" fill="#D0E2F4"/>
<path d="M1128.33 536.979H1135.6V544.248H1128.33V536.979Z" fill="#D0E2F4"/>
<path d="M855.125 671.463H862.394V686.002H855.125V671.463Z" fill="#D0E2F4"/>
<path d="M847.853 678.734H855.122V686.003H847.853V678.734Z" fill="#D0E2F4"/>
<path d="M891.475 656.924H898.744V664.193H891.475V656.924Z" fill="#D0E2F4"/>
<path d="M869.664 656.924H876.933V664.193H869.664V656.924Z" fill="#D0E2F4"/>
<path d="M862.395 656.924H869.664V664.193H862.395V656.924Z" fill="#D0E2F4"/>
<path d="M855.125 664.189H862.394V671.458H855.125V664.189Z" fill="#D0E2F4"/>
<path d="M847.853 671.463H855.122V678.732H847.853V671.463Z" fill="#D0E2F4"/>
<path d="M840.584 678.734H847.853V686.003H840.584V678.734Z" fill="#D0E2F4"/>
<path d="M876.932 656.924H891.471V664.193H876.932V656.924Z" fill="#D0E2F4"/>
<path d="M876.932 649.65H891.471V656.919H876.932V649.65Z" fill="#D0E2F4"/>
<path d="M1419.11 529.707H1433.65V566.054H1419.11V529.707Z" fill="#D0E2F4"/>
<path d="M1433.65 544.244H1440.92V566.052H1433.65V544.244Z" fill="#D0E2F4"/>
<path d="M1331.87 522.441H1346.41V536.98H1331.87V522.441Z" fill="#D0E2F4"/>
<path d="M1339.14 522.441H1353.68V536.98H1339.14V522.441Z" fill="#D0E2F4"/>
<path d="M1179.22 522.441H1193.76V536.98H1179.22V522.441Z" fill="#D0E2F4"/>
<path d="M1280.99 427.939H1295.53V457.017H1280.99V427.939Z" fill="#F4F6F8"/>
<path d="M1193.76 500.631H1208.3V536.978H1193.76V500.631Z" fill="#F4F6F8"/>
<path d="M1150.14 551.518H1164.68V566.057H1150.14V551.518Z" fill="#F4F6F8"/>
<path d="M1142.87 558.791H1150.14V566.06H1142.87V558.791Z" fill="#F4F6F8"/>
<path d="M1142.87 566.055H1150.14V573.324H1142.87V566.055Z" fill="#F4F6F8"/>
<path d="M1353.69 529.707H1360.96V536.976H1353.69V529.707Z" fill="#D0E2F4"/>
<path d="M1135.6 529.707H1179.22V536.976H1135.6V529.707Z" fill="#D0E2F4"/>
<path d="M1186.49 515.176H1193.76V522.445H1186.49V515.176Z" fill="#D0E2F4"/>
<path d="M1201.03 493.357H1208.3V500.626H1201.03V493.357Z" fill="#F4F6F8"/>
<path d="M1339.14 515.176H1346.41V522.445H1339.14V515.176Z" fill="#D0E2F4"/>
<path d="M1295.53 449.742H1302.8V457.011H1295.53V449.742Z" fill="#F4F6F8"/>
<path d="M1201.03 449.742H1208.3V464.281H1201.03V449.742Z" fill="#D0E2F4"/>
<path d="M1230.11 413.395H1237.38V435.203H1230.11V413.395Z" fill="#F4F6F8"/>
<path d="M1222.83 427.939H1230.1V435.208H1222.83V427.939Z" fill="#F4F6F8"/>
<path d="M1324.61 529.707H1331.88V536.976H1324.61V529.707Z" fill="#D0E2F4"/>
<path d="M1324.61 500.631H1339.15V536.978H1324.61V500.631Z" fill="#F4F6F8"/>
<path d="M1280.99 457.016H1310.07V493.363H1280.99V457.016Z" fill="#F4F6F8"/>
<path d="M1208.3 435.205H1237.38V536.977H1208.3V435.205Z" fill="#F4F6F8"/>
<path d="M1353.69 500.631H1360.96V507.9H1353.69V500.631Z" fill="#D0E2F4"/>
<path d="M1404.57 500.631H1411.84V507.9H1404.57V500.631Z" fill="#D0E2F4"/>
<path d="M1360.95 493.357H1404.57V507.896H1360.95V493.357Z" fill="#D0E2F4"/>
<path d="M1106.52 558.791H1135.6V573.33H1106.52V558.791Z" fill="#D0E2F4"/>
<path d="M965.38 624.207H987.188V646.015H965.38V624.207Z" fill="#D0E2F4"/>
<path d="M972.649 609.67H987.188V624.209H972.649V609.67Z" fill="#D0E2F4"/>
<path d="M1346.42 551.518H1419.11V566.057H1346.42V551.518Z" fill="#D0E2F4"/>
<path d="M1346.42 507.902H1419.11V551.518H1346.42V507.902Z" fill="#D0E2F4"/>
<path d="M1226.47 682.367H1299.16V696.906H1226.47V682.367Z" fill="#D0E2F4"/>
<path d="M1226.47 696.906H1262.82V711.445H1226.47V696.906Z" fill="#D0E2F4"/>
<path d="M1226.47 711.443H1241.01V725.982H1226.47V711.443Z" fill="#D0E2F4"/>
<path d="M1219.2 718.717H1226.47V725.986H1219.2V718.717Z" fill="#D0E2F4"/>
<path d="M1164.68 529.707H1297.95V566.054H1164.68V529.707Z" fill="#F4F6F8"/>
<path d="M1135.6 566.055H1142.87V580.594H1135.6V566.055Z" fill="#F4F6F8"/>
<path d="M1011.41 609.064H1018.68V623.603H1011.41V609.064Z" fill="#F4F6F8"/>
<path d="M1128.33 573.32H1135.6V580.589H1128.33V573.32Z" fill="#F4F6F8"/>
<path d="M1004.15 616.338H1011.42V623.607H1004.15V616.338Z" fill="#F4F6F8"/>
<path d="M1121.06 580.594H1128.33V587.863H1121.06V580.594Z" fill="#F4F6F8"/>
<path d="M996.881 623.604H1004.15V630.873H996.881V623.604Z" fill="#F4F6F8"/>
<path d="M965.377 624.207H972.646V631.476H965.377V624.207Z" fill="#F4F6F8"/>
<path d="M958.108 646.018H965.377V653.287H958.108V646.018Z" fill="#F4F6F8"/>
<path d="M950.839 646.018H958.108V653.287H950.839V646.018Z" fill="#F4F6F8"/>
<path d="M884.202 649.65H891.471V656.919H884.202V649.65Z" fill="#F4F6F8"/>
<path d="M876.933 649.65H884.202V656.919H876.933V649.65Z" fill="#F4F6F8"/>
<path d="M869.664 656.924H876.933V664.193H869.664V656.924Z" fill="#F4F6F8"/>
<path d="M862.395 656.924H869.664V664.193H862.395V656.924Z" fill="#F4F6F8"/>
<path d="M855.125 664.189H862.394V671.458H855.125V664.189Z" fill="#F4F6F8"/>
<path d="M855.125 664.189H862.394V671.458H855.125V664.189Z" fill="#F4F6F8"/>
<path d="M876.933 664.189H884.202V671.458H876.933V664.189Z" fill="#F4F6F8"/>
<path d="M840.584 678.734H847.853V686.003H840.584V678.734Z" fill="#F4F6F8"/>
<path d="M847.853 671.463H855.122V678.732H847.853V671.463Z" fill="#F4F6F8"/>
<path d="M972.646 609.67H979.915V616.939H972.646V609.67Z" fill="#F4F6F8"/>
<path d="M979.919 609.67H987.188V616.939H979.919V609.67Z" fill="#F4F6F8"/>
<path d="M987.184 602.404H994.453V609.673H987.184V602.404Z" fill="#F4F6F8"/>
<path d="M987.184 595.139H994.453V602.408H987.184V595.139Z" fill="#F4F6F8"/>
<path d="M994.451 595.139H1001.72V602.408H994.451V595.139Z" fill="#F4F6F8"/>
<path d="M1150.14 573.32H1164.68V580.589H1150.14V573.32Z" fill="#F4F6F8"/>
<path d="M1171.95 580.594H1164.68V587.863H1171.95V580.594Z" fill="#F4F6F8"/>
<path d="M1346.42 529.707H1339.15V536.976H1346.42V529.707Z" fill="#F4F6F8"/>
<path d="M1339.15 500.631H1331.88V507.9H1339.15V500.631Z" fill="#D0E2F4"/>
<path d="M1324.61 522.441H1317.34V536.98H1324.61V522.441Z" fill="#D0E2F4"/>
<path d="M1317.34 522.441H1310.07V529.71H1317.34V522.441Z" fill="#D0E2F4"/>
<path d="M1310.07 522.441H1302.8V529.71H1310.07V522.441Z" fill="#D0E2F4"/>
<path d="M1302.8 515.176H1295.53V522.445H1302.8V515.176Z" fill="#D0E2F4"/>
<path d="M1295.53 522.441H1288.26V529.71H1295.53V522.441Z" fill="#D0E2F4"/>
<path d="M1288.26 529.707H1280.99V536.976H1288.26V529.707Z" fill="#D0E2F4"/>
<path d="M1280.99 536.979H1273.72V544.248H1280.99V536.979Z" fill="#D0E2F4"/>
<path d="M1302.8 507.902H1295.53V515.171H1302.8V507.902Z" fill="#D0E2F4"/>
<path d="M1288.26 515.176H1280.99V522.445H1288.26V515.176Z" fill="#D0E2F4"/>
<path d="M1331.88 500.631H1324.61V507.9H1331.88V500.631Z" fill="#D0E2F4"/>
<path d="M1324.61 493.357H1317.34V500.626H1324.61V493.357Z" fill="#D0E2F4"/>
<path d="M1317.34 493.357H1310.07V500.626H1317.34V493.357Z" fill="#D0E2F4"/>
<path d="M1310.07 486.092H1302.8V493.361H1310.07V486.092Z" fill="#D0E2F4"/>
<path d="M1164.68 529.707H1179.22V544.246H1164.68V529.707Z" fill="#D0E2F4"/>
<path d="M1171.95 536.979H1179.22V544.248H1171.95V536.979Z" fill="#F4F6F8"/>
<path d="M1128.33 536.979H1135.6V544.248H1128.33V536.979Z" fill="#F4F6F8"/>
<path d="M1135.6 536.979H1142.87V544.248H1135.6V536.979Z" fill="#F4F6F8"/>
<path d="M1353.69 500.631H1360.96V507.9H1353.69V500.631Z" fill="#F4F6F8"/>
<path d="M1360.95 493.357H1368.22V500.626H1360.95V493.357Z" fill="#F4F6F8"/>
<path d="M1375.49 478.826H1382.76V486.095H1375.49V478.826Z" fill="#F4F6F8"/>
<path d="M1368.22 486.092H1390.03V493.361H1368.22V486.092Z" fill="#F4F6F8"/>
<path d="M1142.87 523.045H1157.41V530.314H1142.87V523.045Z" fill="#F4F6F8"/>
<path d="M1128.33 551.518H1135.6V558.787H1128.33V551.518Z" fill="#F4F6F8"/>
<path d="M1121.06 544.244H1128.33V551.513H1121.06V544.244Z" fill="#F4F6F8"/>
<path d="M1113.79 544.244H1121.06V551.513H1113.79V544.244Z" fill="#F4F6F8"/>
<path d="M1113.79 551.518H1121.06V558.787H1113.79V551.518Z" fill="#F4F6F8"/>
<path d="M1106.52 558.791H1113.79V566.06H1106.52V558.791Z" fill="#F4F6F8"/>
<path d="M1135.6 529.707H1171.95V536.976H1135.6V529.707Z" fill="#F4F6F8"/>
<path d="M1277.36 493.361V486.092H1270.09V493.361H1277.36Z" fill="#FD78FF"/>
<path d="M1244.64 435.208V427.939H1237.37V435.208H1244.64Z" fill="#FD78FF"/>
<path d="M1284.63 500.626V493.357H1277.36V500.626H1284.63Z" fill="#FD78FF"/>
<path d="M1193.76 551.518H1208.3V566.057H1193.76V551.518Z" fill="#D0E2F4"/>
<path d="M1208.29 544.244H1215.56V551.513H1208.29V544.244Z" fill="#D0E2F4"/>
<path d="M1215.57 544.244H1222.84V551.513H1215.57V544.244Z" fill="#D0E2F4"/>
<path d="M1215.57 529.707H1222.84V536.976H1215.57V529.707Z" fill="#D0E2F4"/>
<path d="M1222.83 536.979H1230.1V544.248H1222.83V536.979Z" fill="#D0E2F4"/>
<path d="M266.027 149.875H258.758V157.144H266.027V149.875Z" fill="#454EE7"/>
<path d="M290.106 148.578H278.51V155.413H290.106V148.578Z" fill="#222DE3"/>
<path d="M290.106 123.012H278.51V129.847H290.106V123.012Z" fill="#222DE3"/>
<path d="M297.376 129.846H278.51V142.308H297.376V129.846Z" fill="#1B24CE"/>
<path d="M297.375 117.379H290.106V129.841H297.375V117.379Z" fill="#1B24CE"/>
<path d="M282.837 108.912H271.241V115.747H282.837V108.912Z" fill="#222DE3"/>
<path d="M1013.23 782.324H795.148V789.593H1013.23V782.324Z" fill="#FD9CFF"/>
<path d="M694.587 739.32H645.519V746.589H694.587V739.32Z" fill="#FD78FF"/>
<path d="M732.145 745.982H694.586V753.251H732.145V745.982Z" fill="#FD78FF"/>
<path d="M1450 767.785H1254.33V775.054H1450V767.785Z" fill="#DB00DE"/>
<path d="M1450 782.324H1205.87V789.593H1450V782.324Z" fill="#DB00DE"/>
<path d="M1450.6 775.051H1385.18V782.32H1450.6V775.051Z" fill="#DB00DE"/>
<path d="M1013.23 775.051H947.806V782.32H1013.23V775.051Z" fill="#DB00DE"/>
<path d="M1034.44 782.324H1012.63V789.593H1034.44V782.324Z" fill="#DB00DE"/>
<path d="M472.531 642.957H430.138V671.439H472.531V642.957Z" fill="#0F1576"/>
<path d="M472.53 613.873H451.345V642.951H472.53V613.873Z" fill="#0F1576"/>
<path d="M451.346 628.412H436.807V642.951H451.346V628.412Z" fill="#0F1576"/>
<path d="M451.345 613.873H444.076V628.412H451.345V613.873Z" fill="#0F1576"/>
<path d="M436.808 635.764H430.138V643.033H436.808V635.764Z" fill="#0F1576"/>
<path d="M472.53 599.336H451.345V613.875H472.53V599.336Z" fill="#0F1576"/>
<path d="M479.799 584.797H461.937V599.336H479.799V584.797Z" fill="#0F1576"/>
<path d="M494.3 664.785H479.774V686.008H494.3V664.785Z" fill="#0F1576"/>
<path d="M487.071 584.797H479.802V592.066H487.071V584.797Z" fill="#0F1576"/>
<path d="M487.039 592.07H479.77V643.034H487.039V592.07Z" fill="#0F1576"/>
<path d="M494.308 657.52H487.039V664.789H494.308V657.52Z" fill="#0F1576"/>
<path d="M487.039 642.957H479.77V671.439H487.039V642.957Z" fill="#0F1576"/>
<path d="M501.573 664.785H494.304V693.267H501.573V664.785Z" fill="#0F1576"/>
<path d="M487.071 577.525H479.802V584.794H487.071V577.525Z" fill="#0F1576"/>
<path d="M494.34 570.26H487.071V577.529H494.34V570.26Z" fill="#0F1576"/>
<path d="M494.308 577.525H487.039V584.794H494.308V577.525Z" fill="#0F1576"/>
<path d="M494.308 584.797H487.039V592.066H494.308V584.797Z" fill="#0F1576"/>
<path d="M479.802 577.525H472.533V584.794H479.802V577.525Z" fill="#0F1576"/>
<path d="M479.802 599.336H472.533V678.704H479.802V599.336Z" fill="#0F1576"/>
<path d="M244.764 586.009H252.032L252.047 566.961H259.65V500.022H266.905V486.695L273.568 486.61V472.156H280.838L281.14 442.473H288.107V435.203H295.377V413.395H302.646V406.126H317.791V376.442H325.06V303.748H332.329V289.815H339.599V272.22H346.868V246.805H354.138V233.478H361.118V210.725H368.411V628.075H236.918V599.778H244.764V586.009Z" fill="#0F1576"/>
<path d="M404.788 586.011H397.519V567.999H390.25L390.236 499.774H382.95V486.006H375.682V471.955L281.141 471.956V635.346H412.634V599.78H404.788V586.011Z" fill="#0F1576"/>
<path d="M1404.76 99.0391H1412.03V135.386H1404.76V99.0391Z" fill="#FC35FF"/>
<path d="M1397.49 106.311H1404.76V128.119H1397.49V106.311Z" fill="#FC35FF"/>
<path d="M1433.84 99.0391H1441.11V135.386H1433.84V99.0391Z" fill="#FC35FF"/>
<path d="M1412.03 142.656V135.387H1433.84V142.656H1412.03Z" fill="#FC35FF"/>
<path d="M1412.03 99.0428V91.7734H1433.84V99.0428H1412.03Z" fill="#FC35FF"/>
<path d="M1404.76 106.308V99.0391H1441.11V106.308H1404.76Z" fill="#FC35FF"/>
<path d="M1412.03 135.386V99.0391H1433.84V135.386H1412.03Z" fill="#FC35FF"/>
<path d="M1433.84 91.7754H1441.11V99.0448H1433.84V91.7754Z" fill="#DB00DE"/>
<path d="M1397.49 106.314H1390.22V128.122H1397.49V106.314Z" fill="#DB00DE"/>
<path d="M1390.22 106.314H1382.95V128.122H1390.22V106.314Z" fill="#FD9CFF"/>
<path d="M1382.96 99.041H1375.69V135.387H1382.96V99.041Z" fill="#5E66EA"/>
<path d="M1412.03 149.932V157.201H1433.84V149.932H1412.03Z" fill="#FD9CFF"/>
<path d="M1412.03 77.2422V84.5117H1433.84V77.2422H1412.03Z" fill="#FD9CFF"/>
<path d="M1404.76 69.9689V77.2383H1441.11V69.9689H1404.76Z" fill="#5E66EA"/>
<path d="M1404.76 157.206V164.475H1441.11V157.206H1404.76Z" fill="#5E66EA"/>
<path d="M1404.76 149.932V157.201H1397.5V149.932H1404.76Z" fill="#5E66EA"/>
<path d="M1397.48 142.659V149.928H1390.22V142.659H1397.48Z" fill="#5E66EA"/>
<path d="M1390.23 135.395V142.664H1382.97V135.395H1390.23Z" fill="#5E66EA"/>
<path d="M1404.76 84.5077V77.2383H1397.5V84.5077H1404.76Z" fill="#5E66EA"/>
<path d="M1397.48 91.7811V84.5117H1390.22V91.7811H1397.48Z" fill="#5E66EA"/>
<path d="M1390.23 99.0448V91.7754H1382.97V99.0448H1390.23Z" fill="#5E66EA"/>
<path d="M1397.49 128.125H1390.22V135.395H1397.49V128.125Z" fill="#FD9CFF"/>
<path d="M1404.76 135.391H1397.49V142.661H1404.76V135.391Z" fill="#FD9CFF"/>
<path d="M1412.03 142.664H1404.76V149.934H1412.03V142.664Z" fill="#FD9CFF"/>
<path d="M1412.03 149.928H1404.76V157.198H1412.03V149.928Z" fill="#FD9CFF"/>
<path d="M1441.11 142.664H1433.84V149.934H1441.11V142.664Z" fill="#FD9CFF"/>
<path d="M1441.11 149.928H1433.84V157.198H1441.11V149.928Z" fill="#FD9CFF"/>
<path d="M1397.49 91.7754H1390.22V99.045H1397.49V91.7754Z" fill="#FD9CFF"/>
<path d="M1404.76 84.5117H1397.49V91.7813H1404.76V84.5117Z" fill="#FD9CFF"/>
<path d="M1404.77 142.664H1397.5V149.934H1404.77V142.664Z" fill="#FD9CFF"/>
<path d="M1397.5 135.391H1390.23V142.661H1397.5V135.391Z" fill="#FD9CFF"/>
<path d="M1441.11 84.5117H1433.84V91.7813H1441.11V84.5117Z" fill="#FD9CFF"/>
<path d="M1441.11 77.2383H1433.84V84.5079H1441.11V77.2383Z" fill="#FD9CFF"/>
<path d="M1412.03 84.5117H1404.76V91.7813H1412.03V84.5117Z" fill="#FD9CFF"/>
<path d="M1412.03 77.2383H1404.76V84.5079H1412.03V77.2383Z" fill="#FD9CFF"/>
<path d="M1404.76 91.7754H1397.49V99.045H1404.76V91.7754Z" fill="#FEDBFF"/>
<path d="M1397.49 99.041H1390.22V106.311H1397.49V99.041Z" fill="#FEDBFF"/>
<path d="M1397.49 106.314H1390.22V113.584H1397.49V106.314Z" fill="#FC35FF"/>
<path d="M1390.22 99.041H1382.95V106.311H1390.22V99.041Z" fill="#FD9CFF"/>
<path d="M1390.22 128.125H1382.95V135.395H1390.22V128.125Z" fill="#FD9CFF"/>
<path d="M1404.76 99.041H1397.49V106.31H1404.76V99.041Z" fill="#DB00DE"/>
<path d="M1412.03 91.7754H1404.76V99.0448H1412.03V91.7754Z" fill="#DB00DE"/>
<path d="M1412.03 142.659V149.928H1433.84V142.659H1412.03Z" fill="#DB00DE"/>
<path d="M1412.03 84.506V91.7754H1433.84V84.506H1412.03Z" fill="#DB00DE"/>
<path d="M1404.76 135.395V142.664H1412.03V135.395H1404.76Z" fill="#DB00DE"/>
<path d="M1397.49 128.122V135.391H1404.76V128.122H1397.49Z" fill="#DB00DE"/>
<path d="M1441.11 135.395V142.664H1433.84V135.395H1441.11Z" fill="#DB00DE"/>
<path d="M1441.11 128.122V135.391H1433.84V128.122H1441.11Z" fill="#DB00DE"/>
<path d="M1433.84 128.122V135.391H1426.57V128.122H1433.84Z" fill="#DB00DE"/>
<path d="M1441.11 120.856V128.125H1433.84V120.856H1441.11Z" fill="#DB00DE"/>
<path d="M1433.84 135.395V142.664H1426.57V135.395H1433.84Z" fill="#DB00DE"/>
<path d="M1426.56 135.395V142.664H1419.29V135.395H1426.56Z" fill="#DB00DE"/>
<path d="M1280.99 197.738H1237.37V406.127H1280.99V197.738Z" fill="#0F1576"/>
<path d="M1244.64 197.738H1237.37V406.127H1244.64V197.738Z" fill="#D0E2F4"/>
<path d="M1280.99 197.738H1273.72V406.127H1280.99V197.738Z" fill="#454EE7"/>
<path d="M1251.91 197.738H1244.64V406.127H1251.91V197.738Z" fill="#777EED"/>
<path d="M1280.99 132.32H1237.37V197.745H1280.99V132.32Z" fill="#0F1576"/>
<path d="M1266.45 117.775H1251.91V125.044H1266.45V117.775Z" fill="#777EED"/>
<path d="M1273.72 125.047H1244.64V132.316H1273.72V125.047Z" fill="#777EED"/>
<path d="M1273.72 125.047H1266.45V132.316H1273.72V125.047Z" fill="#080B3E"/>
<path d="M1280.99 125.047H1273.72V132.316H1280.99V125.047Z" fill="#777EED"/>
<path d="M1244.64 125.047H1251.91V132.316H1244.64V125.047Z" fill="#D0E2F4"/>
<path d="M1273.72 117.775H1266.45V125.044H1273.72V117.775Z" fill="#777EED"/>
<path d="M1251.91 117.775H1259.18V125.044H1251.91V117.775Z" fill="#D0E2F4"/>
<path d="M1237.37 209.258V180.18H1230.1V209.258H1237.37Z" fill="#080B3E"/>
<path d="M1280.99 197.748V180.18H1237.37V197.748H1280.99Z" fill="#080B3E"/>
<path d="M1280.99 406.13V398.861H1237.37V406.13H1280.99Z" fill="#0F1576"/>
<path d="M1251.91 180.177V132.32H1244.64V180.177H1251.91Z" fill="#080B3E"/>
<path d="M1244.64 180.177V132.32H1237.37V180.177H1244.64Z" fill="#D0E2F4"/>
<path d="M1273.72 187.449V180.18H1244.64V187.449H1273.72Z" fill="#5E66EA"/>
<path d="M1280.99 187.449V180.18H1273.72V187.449H1280.99Z" fill="#0F1576"/>
<path d="M1280.99 209.258V180.18H1288.26V209.258H1280.99Z" fill="#080B3E"/>
<path d="M1237.37 406.137V377.059H1230.1V406.137H1237.37Z" fill="#080B3E"/>
<path d="M1230.1 216.523V187.445H1222.83V216.523H1230.1Z" fill="#080B3E"/>
<path d="M1230.1 194.714V187.445H1222.83V194.714H1230.1Z" fill="#454EE7"/>
<path d="M1237.37 187.449V180.18H1230.1V187.449H1237.37Z" fill="#454EE7"/>
<path d="M1244.64 187.449V180.18H1237.37V187.449H1244.64Z" fill="#777EED"/>
<path d="M1230.1 201.978V194.709H1222.83V201.978H1230.1Z" fill="#454EE7"/>
<path d="M1288.26 216.523V187.445H1295.53V216.523H1288.26Z" fill="#080B3E"/>
<path d="M1230.1 413.402V384.324H1222.83V413.402H1230.1Z" fill="#080B3E"/>
<path d="M1222.83 427.939V398.861H1215.56V427.939H1222.83Z" fill="#080B3E"/>
<path d="M1310.07 427.939V398.861H1302.8V427.939H1310.07Z" fill="#080B3E"/>
<path d="M1215.56 427.939V398.861H1208.29V427.939H1215.56Z" fill="#080B3E"/>
<path d="M1215.56 427.939V398.861H1208.29V427.939H1215.56Z" fill="#D0E2F4"/>
<path d="M1222.83 406.13V398.861H1215.56V406.13H1222.83Z" fill="#D0E2F4"/>
<path d="M1230.1 391.593V384.324H1222.83V391.593H1230.1Z" fill="#D0E2F4"/>
<path d="M1237.37 384.328V377.059H1230.1V384.328H1237.37Z" fill="#D0E2F4"/>
<path d="M1302.8 427.939V398.861H1295.53V427.939H1302.8Z" fill="#080B3E"/>
<path d="M1280.99 406.137V377.059H1288.26V406.137H1280.99Z" fill="#080B3E"/>
<path d="M1288.26 413.402V384.324H1295.53V413.402H1288.26Z" fill="#080B3E"/>
<path d="M1266.45 110.51H1259.18V117.779H1266.45V110.51Z" fill="#D0E2F4"/>
<path d="M1280.99 132.32H1273.72V180.177H1280.99V132.32Z" fill="#454EE7"/>
<path d="M606.749 707.818H643.096V716.905H577.672V724.174H555.864V731.444H534.055V712.361H526.786V693.279H519.82V686.01H526.786V693.279H534.055H541.325V700.549H606.749V707.818Z" fill="#0C115D"/>
<path d="M606.75 707.814H643.097V716.901H577.672V724.17H555.864V731.44H534.056V738.709H541.325V745.978H577.672V753.316C577.672 753.328 606.75 753.316 606.75 753.316V760.53H657.635V767.787H708.521V775.056H736.993V782.326H751.532V789.607H787.879V796.871H802.418V804.134L-205 803.831V148.07H-195.307V162.609H-180.769V169.879H-173.499V177.148H-129.883V184.417H-115.344V191.687H-93.5359V198.956H-86.2665V206.226H-78.9971V213.495H-71.7277V220.852H-64.4583V228.034H-35.3807V235.303H-28.1113V249.842H-20.8419V264.381H-13.5725V271.65H-6.30309V278.92H0.966324V286.189H15.5051V293.458H22.7745V307.391H37.3133V351.008H44.5827V358.277H51.8521V372.284V394.624H59.1215V401.894H66.3909V416.432H95.4685V409.163H117.277V401.889H204.509V409.163H197.193V430.971H189.971L190.017 474.588H182.701V481.857H168.163V501.848H153.624V569.696H160.893V576.965H175.432V591.541L182.701 591.504V598.773H226.318V613.312H294.165V627.851H352.321V613.312H366.859V606.043H388.668V613.312H395.937V620.581H410.476V627.851H417.745V635.12H432.284V642.39H439.553V649.659H446.823V656.928H461.362V671.467H475.9V678.737H497.709V686.006H526.786V693.275H541.325V700.545H606.75V707.814Z" fill="#19193E"/>
<path d="M1165.71 593.385V600.653H1147.7V607.923L1079.48 607.937V615.223H1065.71V622.491H1051.66V629.761H1022.63V637.037H1015.43V644.306H993.542V651.575H986.34V659.422V666.087H953.218V673.356L883.706 673.371V680.691H869.937V687.961H851.925L851.891 693.411H826.824L826.859 700.653H813.09V707.922H799.388V715.081H869.962V724.854L694.587 724.168V731.43L645.519 732.114V739.313H694.587V746.583L730.934 746.582V753.286H1613.66V651.575H1809.43V585.539H1181.28V593.385H1165.71Z" fill="#19193E"/>
<path d="M1452.47 490.34H1438.41V497.746H1409.37V512.565H1380.26V519.417H1373.06V527.14V534.027H1339.14V541.337L1270.37 541.352L1270.33 549.488H1256.55V556.757H1239.75V564.027H1213.45L1213.34 571.3H1203.42L1203.51 578.512H1181.63V585.782H1452.42L1452.47 490.34Z" fill="#19193E"/>
<path d="M359.589 642.395H352.32V649.664H359.589V642.395Z" fill="#00D8C9"/>
<path d="M352.32 642.395H345.051V649.664H352.32V642.395Z" fill="#00D8C9"/>
<path d="M366.854 635.131H359.585V642.4H366.854V635.131Z" fill="#00D8C9"/>
<path d="M374.127 642.395H366.858V649.664H374.127V642.395Z" fill="#00D8C9"/>
<path d="M345.052 635.131H330.513V642.4H345.052V635.131Z" fill="#5CFFF4"/>
<path d="M352.321 620.592H330.513V627.861H352.321V620.592Z" fill="#5CFFF4"/>
<path d="M330.51 627.857H315.971V635.126H330.51V627.857Z" fill="#5CFFF4"/>
<path d="M294.161 627.857H279.622V635.126H294.161V627.857Z" fill="#5CFFF4"/>
<path d="M226.316 598.781H211.777V606.05H226.316V598.781Z" fill="#5CFFF4"/>
<path d="M294.163 613.318H226.315V620.587H294.163V613.318Z" fill="#5CFFF4"/>
<path d="M315.972 635.131H301.433V642.4H315.972V635.131Z" fill="#5CFFF4"/>
<path d="M301.434 642.395H286.895V649.664H301.434V642.395Z" fill="#5CFFF4"/>
<path d="M352.321 627.857H330.513V635.126H352.321V627.857Z" fill="#5CFFF4"/>
<path d="M366.854 613.318H359.585V620.587H366.854V613.318Z" fill="#5CFFF4"/>
<path d="M359.589 613.318H352.32V620.587H359.589V613.318Z" fill="#5CFFF4"/>
<path d="M374.127 606.047H366.858V613.316H374.127V606.047Z" fill="#5CFFF4"/>
<path d="M374.127 627.857H366.858V635.126H374.127V627.857Z" fill="#00D8C9"/>
<path d="M381.396 635.131H374.127V642.4H381.396V635.131Z" fill="#00D8C9"/>
<path d="M381.396 620.592H374.127V627.861H381.396V620.592Z" fill="#00D8C9"/>
<path d="M388.665 627.857H381.396V635.126H388.665V627.857Z" fill="#00D8C9"/>
<path d="M388.665 613.318H381.396V620.587H388.665V613.318Z" fill="#00D8C9"/>
<path d="M381.396 613.318H374.127V620.587H381.396V613.318Z" fill="#00D8C9"/>
<path d="M374.127 620.592H366.858V627.861H374.127V620.592Z" fill="#00D8C9"/>
<path d="M366.854 627.857H359.585V635.126H366.854V627.857Z" fill="#00D8C9"/>
<path d="M359.589 635.131H352.32V642.4H359.589V635.131Z" fill="#00D8C9"/>
<path d="M359.589 627.857H352.32V635.126H359.589V627.857Z" fill="#07FFEE"/>
<path d="M352.32 635.131H345.051V642.4H352.32V635.131Z" fill="#07FFEE"/>
<path d="M279.626 620.592H272.357V627.861H279.626V620.592Z" fill="#07FFEE"/>
<path d="M211.777 606.047H204.508V613.316H211.777V606.047Z" fill="#07FFEE"/>
<path d="M345.047 642.395H337.778V649.664H345.047V642.395Z" fill="#07FFEE"/>
<path d="M272.357 627.857H265.088V635.126H272.357V627.857Z" fill="#07FFEE"/>
<path d="M204.508 613.318H197.239V620.587H204.508V613.318Z" fill="#07FFEE"/>
<path d="M366.854 620.592H359.585V627.861H366.854V620.592Z" fill="#07FFEE"/>
<path d="M359.589 620.592H352.32V627.861H359.589V620.592Z" fill="#07FFEE"/>
<path d="M374.127 613.318H366.858V620.587H374.127V613.318Z" fill="#07FFEE"/>
<path d="M381.396 606.047H374.127V613.316H381.396V606.047Z" fill="#5CFFF4"/>
<path d="M73.6638 438.248H80.9332V445.517H73.6638V438.248Z" fill="#00D8C9"/>
<path d="M80.9329 438.248H88.2023V445.517H80.9329V438.248Z" fill="#00D8C9"/>
<path d="M66.3948 430.975H73.6642V438.244H66.3948V430.975Z" fill="#00D8C9"/>
<path d="M59.1259 438.248H66.3953V445.517H59.1259V438.248Z" fill="#00D8C9"/>
<path d="M88.2012 430.975H102.74V438.244H88.2012V430.975Z" fill="#5CFFF4"/>
<path d="M80.9318 416.43H102.74V423.699H80.9318V416.43Z" fill="#5CFFF4"/>
<path d="M117.28 401.898H153.627V409.167H117.28V401.898Z" fill="#5CFFF4"/>
<path d="M95.4698 409.164H117.278V416.433H95.4698V409.164Z" fill="#5CFFF4"/>
<path d="M80.9318 423.701H102.74V430.97H80.9318V423.701Z" fill="#5CFFF4"/>
<path d="M66.3948 409.164H73.6642V416.433H66.3948V409.164Z" fill="#5CFFF4"/>
<path d="M73.6638 409.164H80.9332V416.433H73.6638V409.164Z" fill="#5CFFF4"/>
<path d="M59.1259 401.898H66.3953V409.167H59.1259V401.898Z" fill="#5CFFF4"/>
<path d="M51.8529 394.625H59.1223V401.894H51.8529V394.625Z" fill="#5CFFF4"/>
<path d="M37.3187 351.012H44.5881V358.281H37.3187V351.012Z" fill="#5CFFF4"/>
<path d="M22.7764 307.398H37.3152V314.667H22.7764V307.398Z" fill="#5CFFF4"/>
<path d="M8.24219 293.463H22.781V300.732H8.24219V293.463Z" fill="#5CFFF4"/>
<path d="M0.969299 286.191H15.5081V293.46H0.969299V286.191Z" fill="#5CFFF4"/>
<path d="M-6.29932 278.918H0.970087V286.187H-6.29932V278.918Z" fill="#5CFFF4"/>
<path d="M0.969604 300.736H8.239V308.005H0.969604V300.736Z" fill="#07FFEE"/>
<path d="M-6.29932 293.463H0.970087V300.732H-6.29932V293.463Z" fill="#07FFEE"/>
<path d="M44.5878 358.277H51.8572V394.624H44.5878V358.277Z" fill="#5CFFF4"/>
<path d="M59.1259 423.701H66.3953V430.97H59.1259V423.701Z" fill="#00D8C9"/>
<path d="M51.8529 430.975H59.1223V438.244H51.8529V430.975Z" fill="#00D8C9"/>
<path d="M51.8529 416.43H59.1223V423.699H51.8529V416.43Z" fill="#00D8C9"/>
<path d="M44.5878 423.701H51.8572V430.97H44.5878V423.701Z" fill="#00D8C9"/>
<path d="M44.5878 409.164H51.8572V416.433H44.5878V409.164Z" fill="#00D8C9"/>
<path d="M51.8529 409.164H59.1223V416.433H51.8529V409.164Z" fill="#00D8C9"/>
<path d="M59.1259 416.43H66.3953V423.699H59.1259V416.43Z" fill="#00D8C9"/>
<path d="M66.3948 423.701H73.6642V430.97H66.3948V423.701Z" fill="#00D8C9"/>
<path d="M73.6638 430.975H80.9332V438.244H73.6638V430.975Z" fill="#00D8C9"/>
<path d="M73.6638 423.701H80.9332V430.97H73.6638V423.701Z" fill="#07FFEE"/>
<path d="M80.9329 430.975H88.2023V438.244H80.9329V430.975Z" fill="#07FFEE"/>
<path d="M88.2019 438.248H95.4713V445.517H88.2019V438.248Z" fill="#07FFEE"/>
<path d="M66.3948 416.43H73.6642V423.699H66.3948V416.43Z" fill="#07FFEE"/>
<path d="M73.6638 416.43H80.9332V423.699H73.6638V416.43Z" fill="#07FFEE"/>
<path d="M59.1259 409.164H66.3953V416.433H59.1259V409.164Z" fill="#07FFEE"/>
<path d="M51.8529 401.898H59.1223V409.167H51.8529V401.898Z" fill="#5CFFF4"/>
<path d="M332.331 303.752H325.062V376.446H332.331V303.752Z" fill="#777EED"/>
<path d="M325.058 376.451H317.789V406.134H325.058V376.451Z" fill="#777EED"/>
<path d="M354.138 289.826H346.869V311.634H354.138V289.826Z" fill="#777EED"/>
<path d="M332.331 406.139H325.062V413.408H332.331V406.139Z" fill="#777EED"/>
<path d="M317.789 427.941H310.52V435.21H317.789V427.941Z" fill="#777EED"/>
<path d="M325.058 435.215H317.789V442.484H325.058V435.215Z" fill="#777EED"/>
<path d="M317.792 406.139H302.647V413.408H317.792V406.139Z" fill="#777EED"/>
<path d="M317.792 420.668H302.647V427.937H317.792V420.668Z" fill="#777EED"/>
<path d="M302.647 413.404H295.378V420.673H302.647V413.404Z" fill="#777EED"/>
<path d="M295.378 435.215H288.109V442.484H295.378V435.215Z" fill="#777EED"/>
<path d="M288.105 442.48H280.836V449.749H288.105V442.48Z" fill="#777EED"/>
<path d="M288.105 472.168H280.836V479.437H288.105V472.168Z" fill="#777EED"/>
<path d="M280.84 472.168H273.571V479.437H280.84V472.168Z" fill="#777EED"/>
<path d="M280.84 479.434H273.571V486.703H280.84V479.434Z" fill="#777EED"/>
<path d="M339.6 289.826H332.331V303.759H339.6V289.826Z" fill="#777EED"/>
<path d="M346.865 272.26H339.596V289.828H346.865V272.26Z" fill="#777EED"/>
<path d="M354.138 243.176H346.869V272.254H354.138V243.176Z" fill="#777EED"/>
<path d="M1008.06 671.541H1000.79V678.81H1008.06V671.541Z" fill="#00D8C9"/>
<path d="M993.52 671.541H986.251V678.81H993.52V671.541Z" fill="#07FFEE"/>
<path d="M1000.79 664.277H993.52V671.546H1000.79V664.277Z" fill="#07FFEE"/>
<path d="M1000.79 678.814H993.52V686.083H1000.79V678.814Z" fill="#00D8C9"/>
<path d="M986.247 678.814H978.978V686.083H986.247V678.814Z" fill="#07FFEE"/>
<path d="M978.982 686.08H971.713V693.349H978.982V686.08Z" fill="#00D8C9"/>
<path d="M964.436 686.08H957.167V693.349H964.436V686.08Z" fill="#00D8C9"/>
<path d="M949.902 686.08H942.633V693.349H949.902V686.08Z" fill="#00D8C9"/>
<path d="M971.709 678.814H964.44V686.083H971.709V678.814Z" fill="#07FFEE"/>
<path d="M957.171 678.814H949.902V686.083H957.171V678.814Z" fill="#07FFEE"/>
<path d="M935.36 678.814H928.091V686.083H935.36V678.814Z" fill="#07FFEE"/>
<path d="M942.633 678.814H935.364V686.083H942.633V678.814Z" fill="#07FFEE"/>
<path d="M928.091 678.814H920.822V686.083H928.091V678.814Z" fill="#07FFEE"/>
<path d="M913.549 678.814H906.28V686.083H913.549V678.814Z" fill="#07FFEE"/>
<path d="M906.28 686.08H899.011V693.349H906.28V686.08Z" fill="#00D8C9"/>
<path d="M920.818 686.15H913.549V693.419H920.818V686.15Z" fill="#00D8C9"/>
<path d="M1022.61 671.541H1015.34V678.81H1022.61V671.541Z" fill="#00D8C9"/>
<path d="M1029.87 678.814H1022.6V686.083H1029.87V678.814Z" fill="#00D8C9"/>
<path d="M1022.61 686.08H1015.34V693.349H1022.61V686.08Z" fill="#00D8C9"/>
<path d="M1015.34 693.354H1008.07V700.623H1015.34V693.354Z" fill="#00D8C9"/>
<path d="M1008.07 700.625H1000.8V707.894H1008.07V700.625Z" fill="#00D8C9"/>
<path d="M1000.8 707.891H993.528V715.16H1000.8V707.891Z" fill="#00D8C9"/>
<path d="M971.474 707.891H964.205V715.16H971.474V707.891Z" fill="#5CFFF4"/>
<path d="M964.201 715.156H956.932V722.425H964.201V715.156Z" fill="#5CFFF4"/>
<path d="M978.743 707.891H971.474V715.16H978.743V707.891Z" fill="#5CFFF4"/>
<path d="M1015.34 686.08H1008.07V693.349H1015.34V686.08Z" fill="#5CFFF4"/>
<path d="M1008.07 686.08H1000.8V693.349H1008.07V686.08Z" fill="#5CFFF4"/>
<path d="M1008.07 678.814H1000.8V686.083H1008.07V678.814Z" fill="#5CFFF4"/>
<path d="M1015.34 678.814H1008.07V686.083H1015.34V678.814Z" fill="#5CFFF4"/>
<path d="M1000.8 686.08H986.243V693.349H1000.8V686.08Z" fill="#5CFFF4"/>
<path d="M1008.07 671.541H1000.8V678.81H1008.07V671.541Z" fill="#5CFFF4"/>
<path d="M1015.34 671.541H1008.07V678.81H1015.34V671.541Z" fill="#5CFFF4"/>
<path d="M1022.6 664.277H1015.33V671.546H1022.6V664.277Z" fill="#5CFFF4"/>
<path d="M1022.61 700.625H1015.34V707.894H1022.61V700.625Z" fill="#00D8C9"/>
<path d="M1015.33 664.277H1008.06V671.546H1015.33V664.277Z" fill="#5CFFF4"/>
<path d="M1022.6 657.004H1015.33V664.273H1022.6V657.004Z" fill="#5CFFF4"/>
<path d="M1008.06 657.004H1000.79V664.273H1008.06V657.004Z" fill="#07FFEE"/>
<path d="M1000.79 657.004H993.52V664.273H1000.79V657.004Z" fill="#07FFEE"/>
<path d="M993.52 657.004H986.251V664.273H993.52V657.004Z" fill="#5CFFF4"/>
<path d="M993.52 649.738H986.251V657.007H993.52V649.738Z" fill="#5CFFF4"/>
<path d="M993.52 649.738H1000.79V657.008H993.52V649.738Z" fill="#5CFFF4"/>
<path d="M1008.06 642.465H993.52V649.734H1008.06V642.465Z" fill="#5CFFF4"/>
<path d="M993.519 664.277H949.902V671.546H993.519V664.277Z" fill="#5CFFF4"/>
<path d="M1008.07 693.354H978.743V700.623H1008.07V693.354Z" fill="#5CFFF4"/>
<path d="M1000.8 700.625H971.47V707.894H1000.8V700.625Z" fill="#5CFFF4"/>
<path d="M986.25 671.541H891.742V678.81H986.25V671.541Z" fill="#5CFFF4"/>
<path d="M1008.06 649.738H1000.79V657.007H1008.06V649.738Z" fill="#07FFEE"/>
<path d="M1015.33 642.465H1008.06V649.734H1015.33V642.465Z" fill="#5CFFF4"/>
<path d="M1022.6 635.193H1015.33V642.462H1022.6V635.193Z" fill="#5CFFF4"/>
<path d="M1044.41 627.928H1022.6V635.197H1044.41V627.928Z" fill="#5CFFF4"/>
<path d="M1029.87 649.738H1022.6V657.007H1029.87V649.738Z" fill="#00D8C9"/>
<path d="M1037.14 642.465H1029.87V649.734H1037.14V642.465Z" fill="#00D8C9"/>
<path d="M1044.41 635.193H1037.14V642.462H1044.41V635.193Z" fill="#00D8C9"/>
<path d="M1051.68 627.928H1044.41V635.197H1051.68V627.928Z" fill="#00D8C9"/>
<path d="M1015.33 649.738H1008.06V657.007H1015.33V649.738Z" fill="#00D8C9"/>
<path d="M1022.6 642.465H1015.33V649.734H1022.6V642.465Z" fill="#5CFFF4"/>
<path d="M1029.87 635.193H1022.6V642.462H1029.87V635.193Z" fill="#5CFFF4"/>
<path d="M855.395 707.826H848.126V715.095H855.395V707.826Z" fill="#0C115D"/>
<path d="M869.933 707.826H862.664V715.095H869.933V707.826Z" fill="#00D8C9"/>
<path d="M862.664 707.826H855.395V715.095H862.664V707.826Z" fill="#00D8C9"/>
<path d="M877.202 700.553H869.933V707.822H877.202V700.553Z" fill="#00D8C9"/>
<path d="M884.471 707.826H877.202V715.095H884.471V707.826Z" fill="#00D8C9"/>
<path d="M862.664 700.553H855.395V707.822H862.664V700.553Z" fill="#07FFEE"/>
<path d="M855.395 700.553H848.126V707.822H855.395V700.553Z" fill="#5CFFF4"/>
<path d="M848.126 700.553H840.857V707.822H848.126V700.553Z" fill="#5CFFF4"/>
<path d="M848.126 693.287H840.857V700.556H848.126V693.287Z" fill="#5CFFF4"/>
<path d="M855.395 693.287H848.126V700.556H855.395V693.287Z" fill="#5CFFF4"/>
<path d="M862.997 686.014H847.852V693.283H862.997V686.014Z" fill="#5CFFF4"/>
<path d="M841.786 693.287H826.825V700.527H841.786V693.287Z" fill="#5CFFF4"/>
<path d="M826.827 700.553H813.095V707.793H826.827V700.553Z" fill="#5CFFF4"/>
<path d="M813.322 707.779H799.389V715.048H813.322V707.779Z" fill="#5CFFF4"/>
<path d="M800.598 724.184H694.586V731.453H800.598V724.184Z" fill="#5CFFF4"/>
<path d="M862.664 693.287H855.395V700.556H862.664V693.287Z" fill="#5CFFF4"/>
<path d="M869.933 686.014H862.664V693.283H869.933V686.014Z" fill="#5CFFF4"/>
<path d="M877.202 678.742H869.933V686.011H877.202V678.742Z" fill="#5CFFF4"/>
<path d="M884.471 671.477H877.202V678.746H884.471V671.477Z" fill="#5CFFF4"/>
<path d="M884.471 693.287H877.202V700.556H884.471V693.287Z" fill="#00D8C9"/>
<path d="M891.744 700.553H884.475V707.822H891.744V700.553Z" fill="#00D8C9"/>
<path d="M891.744 686.014H884.475V693.283H891.744V686.014Z" fill="#00D8C9"/>
<path d="M899.013 693.287H891.744V700.556H899.013V693.287Z" fill="#00D8C9"/>
<path d="M899.013 678.742H891.744V686.011H899.013V678.742Z" fill="#00D8C9"/>
<path d="M891.744 678.742H884.475V686.011H891.744V678.742Z" fill="#00D8C9"/>
<path d="M884.471 686.014H877.202V693.283H884.471V686.014Z" fill="#00D8C9"/>
<path d="M877.202 693.287H869.933V700.556H877.202V693.287Z" fill="#00D8C9"/>
<path d="M869.933 700.553H862.664V707.822H869.933V700.553Z" fill="#00D8C9"/>
<path d="M869.933 693.287H862.664V700.556H869.933V693.287Z" fill="#07FFEE"/>
<path d="M877.202 686.014H869.933V693.283H877.202V686.014Z" fill="#07FFEE"/>
<path d="M884.471 678.742H877.202V686.011H884.471V678.742Z" fill="#07FFEE"/>
<path d="M891.744 671.477H884.475V678.746H891.744V671.477Z" fill="#5CFFF4"/>
<path d="M1195.8 606.129H1188.53V613.398H1195.8V606.129Z" fill="#00D8C9"/>
<path d="M1181.26 606.129H1173.99V613.398H1181.26V606.129Z" fill="#5CFFF4"/>
<path d="M1188.53 598.865H1181.26V606.134H1188.53V598.865Z" fill="#5CFFF4"/>
<path d="M1188.53 613.402H1181.26V620.671H1188.53V613.402Z" fill="#00D8C9"/>
<path d="M1173.99 613.402H1166.72V620.671H1173.99V613.402Z" fill="#5CFFF4"/>
<path d="M1166.72 620.668H1159.45V627.937H1166.72V620.668Z" fill="#00D8C9"/>
<path d="M1152.18 620.668H1144.91V627.937H1152.18V620.668Z" fill="#00D8C9"/>
<path d="M1137.64 620.668H1130.37V627.937H1137.64V620.668Z" fill="#00D8C9"/>
<path d="M1159.45 613.402H1152.18V620.671H1159.45V613.402Z" fill="#5CFFF4"/>
<path d="M1144.91 613.402H1137.64V620.671H1144.91V613.402Z" fill="#5CFFF4"/>
<path d="M1123.1 613.402H1115.83V620.671H1123.1V613.402Z" fill="#5CFFF4"/>
<path d="M1130.37 613.402H1123.1V620.671H1130.37V613.402Z" fill="#5CFFF4"/>
<path d="M1115.83 613.402H1101.29V620.671H1115.83V613.402Z" fill="#5CFFF4"/>
<path d="M1101.29 613.402H1094.02V620.671H1101.29V613.402Z" fill="#5CFFF4"/>
<path d="M1094.02 620.668H1086.75V627.937H1094.02V620.668Z" fill="#00D8C9"/>
<path d="M1108.56 620.668H1101.29V627.937H1108.56V620.668Z" fill="#00D8C9"/>
<path d="M1123.11 620.668H1115.84V627.937H1123.11V620.668Z" fill="#00D8C9"/>
<path d="M1210.35 606.129H1203.08V613.398H1210.35V606.129Z" fill="#00D8C9"/>
<path d="M1217.61 613.402H1210.34V620.671H1217.61V613.402Z" fill="#00D8C9"/>
<path d="M1210.35 620.668H1203.08V627.937H1210.35V620.668Z" fill="#00D8C9"/>
<path d="M1203.08 627.941H1195.81V635.21H1203.08V627.941Z" fill="#00D8C9"/>
<path d="M1195.81 635.213H1188.54V642.482H1195.81V635.213Z" fill="#00D8C9"/>
<path d="M1188.54 642.479H1181.27V649.748H1188.54V642.479Z" fill="#00D8C9"/>
<path d="M1159.22 642.479H1151.95V649.748H1159.22V642.479Z" fill="#5CFFF4"/>
<path d="M1151.94 649.744H1144.67V657.013H1151.94V649.744Z" fill="#5CFFF4"/>
<path d="M1166.48 642.479H1159.21V649.748H1166.48V642.479Z" fill="#5CFFF4"/>
<path d="M1203.08 620.668H1195.81V627.937H1203.08V620.668Z" fill="#5CFFF4"/>
<path d="M1195.81 620.668H1188.54V627.937H1195.81V620.668Z" fill="#5CFFF4"/>
<path d="M1195.81 613.402H1188.54V620.671H1195.81V613.402Z" fill="#5CFFF4"/>
<path d="M1203.08 613.402H1195.81V620.671H1203.08V613.402Z" fill="#5CFFF4"/>
<path d="M1188.54 620.668H1173.99V627.937H1188.54V620.668Z" fill="#5CFFF4"/>
<path d="M1195.81 606.129H1188.54V613.398H1195.81V606.129Z" fill="#5CFFF4"/>
<path d="M1203.08 606.129H1195.81V613.398H1203.08V606.129Z" fill="#5CFFF4"/>
<path d="M1210.34 598.865H1203.07V606.134H1210.34V598.865Z" fill="#5CFFF4"/>
<path d="M1202.84 635.127H1210.11V642.396H1202.84V635.127Z" fill="#00D8C9"/>
<path d="M1203.07 598.865H1195.8V606.134H1203.07V598.865Z" fill="#5CFFF4"/>
<path d="M1210.34 591.592H1203.07V598.861H1210.34V591.592Z" fill="#5CFFF4"/>
<path d="M1195.8 591.592H1188.53V598.861H1195.8V591.592Z" fill="#5CFFF4"/>
<path d="M1188.53 591.592H1181.26V598.861H1188.53V591.592Z" fill="#5CFFF4"/>
<path d="M1181.26 591.592H1165.8V598.861H1181.26V591.592Z" fill="#5CFFF4"/>
<path d="M1181.26 584.326H1173.99V591.595H1181.26V584.326Z" fill="#5CFFF4"/>
<path d="M1181.26 584.326H1188.53V591.596H1181.26V584.326Z" fill="#5CFFF4"/>
<path d="M1181.26 598.865H1137.64V606.134H1181.26V598.865Z" fill="#5CFFF4"/>
<path d="M1195.81 627.941H1166.48V635.21H1195.81V627.941Z" fill="#5CFFF4"/>
<path d="M1188.54 635.213H1159.21V642.482H1188.54V635.213Z" fill="#5CFFF4"/>
<path d="M1173.99 606.129H1079.48V613.398H1173.99V606.129Z" fill="#5CFFF4"/>
<path d="M1195.8 584.326H1188.53V591.595H1195.8V584.326Z" fill="#5CFFF4"/>
<path d="M1203.07 577.053H1181.34V584.322H1203.07V577.053Z" fill="#5CFFF4"/>
<path d="M1210.34 569.781H1203.07V577.05H1210.34V569.781Z" fill="#5CFFF4"/>
<path d="M1232.15 562.516H1210.34V569.785H1232.15V562.516Z" fill="#5CFFF4"/>
<path d="M1217.61 584.326H1210.34V591.595H1217.61V584.326Z" fill="#00D8C9"/>
<path d="M1224.88 577.053H1217.61V584.322H1224.88V577.053Z" fill="#00D8C9"/>
<path d="M1232.15 569.781H1224.88V577.05H1232.15V569.781Z" fill="#00D8C9"/>
<path d="M1239.42 562.516H1232.15V569.785H1239.42V562.516Z" fill="#00D8C9"/>
<path d="M1203.07 584.326H1195.8V591.595H1203.07V584.326Z" fill="#00D8C9"/>
<path d="M1210.34 577.053H1203.07V584.322H1210.34V577.053Z" fill="#5CFFF4"/>
<path d="M1217.61 569.781H1210.34V577.05H1217.61V569.781Z" fill="#5CFFF4"/>
<path d="M1357.92 685.992H1350.65V693.261H1357.92V685.992Z" fill="#00D8C9"/>
<path d="M1350.65 685.992H1343.38V693.261H1350.65V685.992Z" fill="#00D8C9"/>
<path d="M1365.19 678.729H1357.92V685.998H1365.19V678.729Z" fill="#00D8C9"/>
<path d="M1372.46 685.992H1365.19V693.261H1372.46V685.992Z" fill="#00D8C9"/>
<path d="M1343.38 678.729H1328.84V685.998H1343.38V678.729Z" fill="#5CFFF4"/>
<path d="M1350.65 664.189H1328.84V671.458H1350.65V664.189Z" fill="#5CFFF4"/>
<path d="M1328.84 671.455H1314.3V678.724H1328.84V671.455Z" fill="#5CFFF4"/>
<path d="M1292.49 671.455H1277.95V678.724H1292.49V671.455Z" fill="#5CFFF4"/>
<path d="M1224.65 642.379H1210.11V649.648H1224.65V642.379Z" fill="#5CFFF4"/>
<path d="M1292.5 656.916H1224.65V664.185H1292.5V656.916Z" fill="#5CFFF4"/>
<path d="M1314.3 678.729H1299.76V685.998H1314.3V678.729Z" fill="#5CFFF4"/>
<path d="M1299.77 685.992H1285.23V693.261H1299.77V685.992Z" fill="#5CFFF4"/>
<path d="M1350.65 671.455H1328.84V678.724H1350.65V671.455Z" fill="#5CFFF4"/>
<path d="M1365.19 656.916H1357.92V664.185H1365.19V656.916Z" fill="#5CFFF4"/>
<path d="M1357.92 656.916H1350.65V664.185H1357.92V656.916Z" fill="#5CFFF4"/>
<path d="M1372.46 649.645H1365.19V656.914H1372.46V649.645Z" fill="#5CFFF4"/>
<path d="M1372.46 671.455H1365.19V678.724H1372.46V671.455Z" fill="#00D8C9"/>
<path d="M1379.73 678.729H1372.46V685.998H1379.73V678.729Z" fill="#00D8C9"/>
<path d="M1379.73 664.189H1372.46V671.458H1379.73V664.189Z" fill="#00D8C9"/>
<path d="M1387 671.455H1379.73V678.724H1387V671.455Z" fill="#00D8C9"/>
<path d="M1387 656.916H1379.73V664.185H1387V656.916Z" fill="#00D8C9"/>
<path d="M1379.73 656.916H1372.46V664.185H1379.73V656.916Z" fill="#00D8C9"/>
<path d="M1372.46 664.189H1365.19V671.458H1372.46V664.189Z" fill="#00D8C9"/>
<path d="M1365.19 671.455H1357.92V678.724H1365.19V671.455Z" fill="#00D8C9"/>
<path d="M1357.92 678.729H1350.65V685.998H1357.92V678.729Z" fill="#00D8C9"/>
<path d="M1357.92 671.455H1350.65V678.724H1357.92V671.455Z" fill="#07FFEE"/>
<path d="M1350.65 678.729H1343.38V685.998H1350.65V678.729Z" fill="#07FFEE"/>
<path d="M1277.96 664.189H1270.69V671.458H1277.96V664.189Z" fill="#07FFEE"/>
<path d="M1210.11 649.645H1202.84V656.914H1210.11V649.645Z" fill="#07FFEE"/>
<path d="M1343.38 685.992H1336.11V693.261H1343.38V685.992Z" fill="#07FFEE"/>
<path d="M1270.69 671.455H1263.42V678.724H1270.69V671.455Z" fill="#07FFEE"/>
<path d="M1202.84 656.916H1195.57V664.185H1202.84V656.916Z" fill="#07FFEE"/>
<path d="M1365.19 664.189H1357.92V671.458H1365.19V664.189Z" fill="#07FFEE"/>
<path d="M1357.92 664.189H1350.65V671.458H1357.92V664.189Z" fill="#07FFEE"/>
<path d="M1372.46 656.916H1365.19V664.185H1372.46V656.916Z" fill="#07FFEE"/>
<path d="M1379.73 649.645H1372.46V656.914H1379.73V649.645Z" fill="#5CFFF4"/>
<path d="M1382.75 577.578H1375.48V584.847H1382.75V577.578Z" fill="#00D8C9"/>
<path d="M1375.49 577.578H1368.22V584.847H1375.49V577.578Z" fill="#00D8C9"/>
<path d="M1390.03 570.312H1382.76V577.581H1390.03V570.312Z" fill="#00D8C9"/>
<path d="M1397.3 577.578H1390.03V584.847H1397.3V577.578Z" fill="#00D8C9"/>
<path d="M1368.22 570.312H1353.68V577.581H1368.22V570.312Z" fill="#5CFFF4"/>
<path d="M1375.49 555.768H1353.68V563.037H1375.49V555.768Z" fill="#5CFFF4"/>
<path d="M1339.14 541.229H1302.79V548.498H1339.14V541.229Z" fill="#5CFFF4"/>
<path d="M1360.95 548.502H1339.14V555.771H1360.95V548.502Z" fill="#5CFFF4"/>
<path d="M1375.49 563.041H1353.68V570.31H1375.49V563.041Z" fill="#5CFFF4"/>
<path d="M1390.03 548.502H1382.76V555.771H1390.03V548.502Z" fill="#5CFFF4"/>
<path d="M1382.75 548.502H1375.48V555.771H1382.75V548.502Z" fill="#5CFFF4"/>
<path d="M1397.3 541.229H1390.03V548.498H1397.3V541.229Z" fill="#5CFFF4"/>
<path d="M1404.57 533.965H1397.3V541.234H1404.57V533.965Z" fill="#5CFFF4"/>
<path d="M1411.83 497.615H1404.56V533.962H1411.83V497.615Z" fill="#5CFFF4"/>
<path d="M1397.3 563.041H1390.03V570.31H1397.3V563.041Z" fill="#00D8C9"/>
<path d="M1404.57 570.312H1397.3V577.581H1404.57V570.312Z" fill="#00D8C9"/>
<path d="M1404.57 555.768H1397.3V563.037H1404.57V555.768Z" fill="#00D8C9"/>
<path d="M1411.83 563.041H1404.56V570.31H1411.83V563.041Z" fill="#00D8C9"/>
<path d="M1411.83 548.502H1404.56V555.771H1411.83V548.502Z" fill="#00D8C9"/>
<path d="M1404.57 548.502H1397.3V555.771H1404.57V548.502Z" fill="#00D8C9"/>
<path d="M1397.3 555.768H1390.03V563.037H1397.3V555.768Z" fill="#00D8C9"/>
<path d="M1390.03 563.041H1382.76V570.31H1390.03V563.041Z" fill="#00D8C9"/>
<path d="M1382.75 570.312H1375.48V577.581H1382.75V570.312Z" fill="#00D8C9"/>
<path d="M1382.75 563.041H1375.48V570.31H1382.75V563.041Z" fill="#07FFEE"/>
<path d="M1375.49 570.312H1368.22V577.581H1375.49V570.312Z" fill="#07FFEE"/>
<path d="M1368.22 577.578H1360.95V584.847H1368.22V577.578Z" fill="#07FFEE"/>
<path d="M1390.03 555.768H1382.76V563.037H1390.03V555.768Z" fill="#07FFEE"/>
<path d="M1382.75 555.768H1375.48V563.037H1382.75V555.768Z" fill="#07FFEE"/>
<path d="M1397.3 548.502H1390.03V555.771H1397.3V548.502Z" fill="#07FFEE"/>
<path d="M1404.57 541.229H1397.3V548.498H1404.57V541.229Z" fill="#5CFFF4"/>
<path d="M1047.76 753.258H1033.22V760.527H1047.76V753.258Z" fill="#5CFFF4"/>
<path d="M1062.3 739.322H1047.76V746.591H1062.3V739.322Z" fill="#5CFFF4"/>
<path d="M1069.57 732.051H1055.03V739.32H1069.57V732.051Z" fill="#5CFFF4"/>
<path d="M1076.84 724.777H1069.57V732.046H1076.84V724.777Z" fill="#5CFFF4"/>
<path d="M1084.11 724.777H1076.84V732.046H1084.11V724.777Z" fill="#5CFFF4"/>
<path d="M1069.57 746.596H1062.3V753.865H1069.57V746.596Z" fill="#07FFEE"/>
<path d="M1076.84 739.322H1069.57V746.591H1076.84V739.322Z" fill="#07FFEE"/>
<path d="M1084.11 732.051H1076.84V739.32H1084.11V732.051Z" fill="#07FFEE"/>
<path d="M1091.38 724.777H1084.11V732.046H1091.38V724.777Z" fill="#07FFEE"/>
<path d="M1098.64 717.512H1091.37V724.781H1098.64V717.512Z" fill="#07FFEE"/>
<path d="M1098.64 724.777H1091.37V732.046H1098.64V724.777Z" fill="#00D8C9"/>
<path d="M1120.45 702.975H1113.18V710.244H1120.45V702.975Z" fill="#00D8C9"/>
<path d="M1105.92 724.777H1098.65V732.046H1105.92V724.777Z" fill="#00D8C9"/>
<path d="M1127.72 702.975H1120.45V710.244H1127.72V702.975Z" fill="#00D8C9"/>
<path d="M1134.99 710.246H1127.72V717.515H1134.99V710.246Z" fill="#00D8C9"/>
<path d="M1105.92 717.512H1098.65V724.781H1105.92V717.512Z" fill="#00D8C9"/>
<path d="M1113.18 710.246H1105.91V717.515H1113.18V710.246Z" fill="#00D8C9"/>
<path d="M1134.99 695.701H1127.72V702.97H1134.99V695.701Z" fill="#00D8C9"/>
<path d="M1105.92 710.246H1098.65V717.515H1105.92V710.246Z" fill="#07FFEE"/>
<path d="M1098.64 702.975H1091.37V710.244H1098.64V702.975Z" fill="#07FFEE"/>
<path d="M1105.92 695.701H1098.65V702.97H1105.92V695.701Z" fill="#07FFEE"/>
<path d="M1113.18 702.975H1105.91V710.244H1113.18V702.975Z" fill="#07FFEE"/>
<path d="M1113.18 681.162H1105.91V688.431H1113.18V681.162Z" fill="#5CFFF4"/>
<path d="M1120.45 681.162H1113.18V688.431H1120.45V681.162Z" fill="#07FFEE"/>
<path d="M1120.45 688.436H1113.18V695.705H1120.45V688.436Z" fill="#07FFEE"/>
<path d="M1113.18 688.436H1105.91V695.705H1113.18V688.436Z" fill="#07FFEE"/>
<path d="M1127.72 695.701H1120.45V702.97H1127.72V695.701Z" fill="#07FFEE"/>
<path d="M1084.11 717.512H1076.84V724.781H1084.11V717.512Z" fill="#5CFFF4"/>
<path d="M1091.38 710.246H1084.11V717.515H1091.38V710.246Z" fill="#5CFFF4"/>
<path d="M1098.64 695.701H1091.37V702.97H1098.64V695.701Z" fill="#5CFFF4"/>
<path d="M1105.92 681.162H1098.65V695.701H1105.92V681.162Z" fill="#5CFFF4"/>
<path d="M1134.99 673.898H1105.91V681.167H1134.99V673.898Z" fill="#5CFFF4"/>
<path d="M1142.26 666.625H1134.99V673.894H1142.26V666.625Z" fill="#5CFFF4"/>
<path d="M1134.99 666.625H1127.72V673.894H1134.99V666.625Z" fill="#5CFFF4"/>
<path d="M1149.53 659.359H1142.26V666.628H1149.53V659.359Z" fill="#5CFFF4"/>
<path d="M1156.8 652.086H1149.53V659.355H1156.8V652.086Z" fill="#5CFFF4"/>
<path d="M1164.07 644.814H1156.8V652.083H1164.07V644.814Z" fill="#5CFFF4"/>
<path d="M1171.34 637.549H1164.07V644.818H1171.34V637.549Z" fill="#5CFFF4"/>
<path d="M1149.09 265.133H1156.36V272.402H1149.09V265.133Z" fill="#FD9CFF"/>
<path d="M600.693 34.1797H607.962V41.4491H600.693V34.1797Z" fill="#FD9CFF"/>
<path d="M1178.17 272.398H1185.44V279.667H1178.17V272.398Z" fill="#777EED"/>
<path d="M517.094 85.0664H524.363V92.3358H517.094V85.0664Z" fill="#FD9CFF"/>
<path d="M856.047 65.375H848.778V72.6444H856.047V65.375Z" fill="white"/>
<path d="M868.357 93.3516H861.088V100.621H868.357V93.3516Z" fill="#00FFEE"/>
<path d="M324.145 133.066H316.876V140.335H324.145V133.066Z" fill="#00FFEE"/>
<path d="M1228.4 22.043H1221.13V29.3124H1228.4V22.043Z" fill="white"/>
<path d="M425.664 29.3086H418.395V36.578H425.664V29.3086Z" fill="white"/>
<path d="M352.628 140.332H345.359V147.601H352.628V140.332Z" fill="white"/>
</g>
<path d="M913.276 444.303H927.815V451.572H935.084V458.842H942.353V473.38H949.623V487.919H978.7V495.189H985.97V567.277H978.7V581.816H971.431V589.085H964.162V603.624H949.623V618.163H942.353V671.471H906.006V632.701H898.737V589.085H891.468V532.141H884.198V510.333H898.737V458.842H906.006V451.572H913.276V444.303Z" fill="#0C115D"/>
<path d="M935.081 444.303H927.812V451.572H935.081V444.303Z" fill="#080B3E"/>
<path d="M913.274 545.465H906.005V581.812H913.274V545.465Z" fill="#080B3E"/>
<path d="M964.161 495.189H956.892V516.997H964.161V495.189Z" fill="#080B3E"/>
<path d="M942.354 480.652H935.085V502.46H942.354V480.652Z" fill="#080B3E"/>
<path d="M906.005 495.189H898.736V524.872H906.005V495.189Z" fill="#171FAF"/>
<path d="M906.005 532.135H898.736V581.203H906.005V532.135Z" fill="#171FAF"/>
<path d="M906.005 589.08H898.736V618.158H906.005V589.08Z" fill="#171FAF"/>
<path d="M913.274 632.701H906.005V671.471H913.274V632.701Z" fill="#171FAF"/>
<path d="M906.005 458.84H898.736V466.109H906.005V458.84Z" fill="#171FAF"/>
<path d="M913.274 451.568H906.005V458.837H913.274V451.568Z" fill="#171FAF"/>
<path d="M920.543 444.303H913.274V451.572H920.543V444.303Z" fill="#171FAF"/>
<path d="M964.161 531.531H956.892V581.811H964.161V531.531Z" fill="#080B3E"/>
<path d="M956.892 581.814H949.623V603.622H956.892V581.814Z" fill="#010323"/>
<path d="M942.354 603.625H935.085V610.894H942.354V603.625Z" fill="#010323"/>
<path d="M935.081 610.891H927.812V618.16H935.081V610.891Z" fill="#010323"/>
<path d="M935.081 632.701H927.812V639.97H935.081V632.701Z" fill="#010323"/>
<path d="M935.081 639.975H927.812V647.244H935.081V639.975Z" fill="#010323"/>
<path d="M942.354 618.164H935.085V671.473H942.354V618.164Z" fill="#010323"/>
<path d="M949.623 647.238H942.354V671.469H949.623V647.238Z" fill="#010323"/>
<path d="M927.816 581.814H920.547V589.083H927.816V581.814Z" fill="#D0E2F4"/>
<path d="M927.816 523.662H920.547V545.47H927.816V523.662Z" fill="#D0E2F4"/>
<path d="M978.699 487.916H971.43V495.185H978.699V487.916Z" fill="#D0E2F4"/>
<path d="M942.354 502.455H935.085V509.724H942.354V502.455Z" fill="#D0E2F4"/>
<path d="M971.43 487.916H964.161V495.185H971.43V487.916Z" fill="#D0E2F4"/>
<path d="M935.081 495.189H927.812V502.458H935.081V495.189Z" fill="#D0E2F4"/>
<path d="M985.972 495.189H978.703V502.458H985.972V495.189Z" fill="#D0E2F4"/>
<path d="M906.005 524.869H898.736V532.138H906.005V524.869Z" fill="#D0E2F4"/>
<path d="M935.081 574.549H927.812V581.818H935.081V574.549Z" fill="#D0E2F4"/>
<path d="M935.081 545.465H927.812V574.543H935.081V545.465Z" fill="#D0E2F4"/>
<path d="M898.736 532.135H891.467V589.079H898.736V532.135Z" fill="#D0E2F4"/>
<path d="M898.736 517.605H891.467V524.874H898.736V517.605Z" fill="#080B3E"/>
<path d="M898.736 524.869H891.467V532.138H898.736V524.869Z" fill="#080B3E"/>
<path d="M964.161 581.814H956.892V603.622H964.161V581.814Z" fill="#010323"/>
<path d="M935.081 589.08H927.812V596.349H935.081V589.08Z" fill="#D0E2F4"/>
<path d="M927.816 596.359H920.547V603.628H927.816V596.359Z" fill="#FEDBFF"/>
<path d="M927.816 603.625H920.547V610.894H927.816V603.625Z" fill="#FEDBFF"/>
<path d="M906.005 618.164H898.736V632.703H906.005V618.164Z" fill="#D0E2F4"/>
<path d="M942.354 596.359H935.085V603.628H942.354V596.359Z" fill="#D0E2F4"/>
<path d="M949.623 596.359H942.354V603.628H949.623V596.359Z" fill="#D0E2F4"/>
<path d="M971.43 574.549H964.161V589.088H971.43V574.549Z" fill="#010323"/>
<path d="M971.43 567.275H964.161V574.544H971.43V567.275Z" fill="#010323"/>
<path d="M971.43 560.012H964.161V567.281H971.43V560.012Z" fill="#010323"/>
<path d="M971.43 552.738H964.161V560.007H971.43V552.738Z" fill="#010323"/>
<path d="M971.43 545.465H964.161V552.734H971.43V545.465Z" fill="#010323"/>
<path d="M971.43 538.199H964.161V545.468H971.43V538.199Z" fill="#010323"/>
<path d="M971.43 530.928H964.161V538.197H971.43V530.928Z" fill="#010323"/>
<path d="M971.43 524.266H964.161V531.535H971.43V524.266Z" fill="#010323"/>
<path d="M964.161 517H956.892V531.539H964.161V517Z" fill="#010323"/>
<path d="M920.543 538.199H913.274V581.815H920.543V538.199Z" fill="#010323"/>
<path d="M956.892 517H949.623V524.269H956.892V517Z" fill="#010323"/>
<path d="M913.274 581.814H906.005V589.083H913.274V581.814Z" fill="#010323"/>
<path d="M906.005 581.814H898.736V589.083H906.005V581.814Z" fill="#010323"/>
<path d="M927.816 487.916H920.547V495.185H927.816V487.916Z" fill="#010323"/>
<path d="M935.081 480.652H927.812V487.921H935.081V480.652Z" fill="#010323"/>
<path d="M935.081 473.379H927.812V480.648H935.081V473.379Z" fill="#010323"/>
<path d="M942.354 473.379H935.085V480.648H942.354V473.379Z" fill="#010323"/>
<path d="M942.354 466.113H935.085V473.382H942.354V466.113Z" fill="#010323"/>
<path d="M942.354 458.84H935.085V466.109H942.354V458.84Z" fill="#010323"/>
<path d="M935.081 458.84H927.812V466.109H935.081V458.84Z" fill="#010323"/>
<path d="M935.081 451.568H927.812V458.837H935.081V451.568Z" fill="#010323"/>
<path d="M949.623 480.652H942.354V487.921H949.623V480.652Z" fill="#010323"/>
<path d="M949.623 473.379H942.354V480.648H949.623V473.379Z" fill="#010323"/>
<path d="M935.081 466.113H927.812V473.382H935.081V466.113Z" fill="#010323"/>
<path d="M927.816 458.84H920.547V466.109H927.816V458.84Z" fill="#010323"/>
<path d="M971.43 517H964.161V524.269H971.43V517Z" fill="#010323"/>
<path d="M971.43 509.729H964.161V516.998H971.43V509.729Z" fill="#010323"/>
<path d="M971.43 502.455H964.161V509.724H971.43V502.455Z" fill="#010323"/>
<path d="M971.43 495.189H964.161V502.458H971.43V495.189Z" fill="#010323"/>
<path d="M964.161 487.916H956.892V495.185H964.161V487.916Z" fill="#010323"/>
<path d="M906.005 466.113H898.736V473.382H906.005V466.113Z" fill="#FEDBFF"/>
<path d="M913.274 466.113H906.005V473.382H913.274V466.113Z" fill="white"/>
<path d="M920.543 466.113H913.274V473.382H920.543V466.113Z" fill="white"/>
<path d="M927.816 466.113H920.547V473.382H927.816V466.113Z" fill="#010323"/>
<path d="M906.005 473.379H898.736V480.648H906.005V473.379Z" fill="white"/>
<path d="M898.736 473.379H891.467V480.648H898.736V473.379Z" fill="#FEDBFF"/>
<path d="M913.274 473.379H906.005V480.648H913.274V473.379Z" fill="white"/>
<path d="M920.543 473.379H913.274V480.648H920.543V473.379Z" fill="white"/>
<path d="M927.816 473.379H920.547V480.648H927.816V473.379Z" fill="#D0E2F4"/>
<path d="M906.005 480.652H898.736V487.921H906.005V480.652Z" fill="white"/>
<path d="M898.736 480.652H891.467V487.921H898.736V480.652Z" fill="#FEDBFF"/>
<path d="M891.467 510.332H884.198V517.601H891.467V510.332Z" fill="#D0E2F4"/>
<path d="M898.736 510.332H891.467V517.601H898.736V510.332Z" fill="#D0E2F4"/>
<path d="M906.005 451.568H898.736V458.837H906.005V451.568Z" fill="#D0E2F4"/>
<path d="M913.274 444.303H906.005V451.572H913.274V444.303Z" fill="#D0E2F4"/>
<path d="M891.467 517.605H884.198V524.874H891.467V517.605Z" fill="#D0E2F4"/>
<path d="M913.274 480.652H906.005V487.921H913.274V480.652Z" fill="white"/>
<path d="M920.543 480.652H913.274V487.921H920.543V480.652Z" fill="white"/>
<path d="M906.005 487.916H898.736V495.185H906.005V487.916Z" fill="white"/>
<path d="M913.274 487.916H906.005V495.185H913.274V487.916Z" fill="white"/>
<path d="M920.543 487.916H913.274V495.185H920.543V487.916Z" fill="#D0E2F4"/>
<path d="M927.816 480.652H920.547V487.921H927.816V480.652Z" fill="#D0E2F4"/>
</g>
</g>
</g>
</g>
<defs>
<clipPath id="clip0_0_1">
<rect width="1440" height="789" fill="white"/>
</clipPath>
</defs>
</svg>
