<svg width="375" height="381" viewBox="0 0 375 381" fill="none" xmlns="http://www.w3.org/2000/svg">
<g clip-path="url(#clip0_0_1)">
<g opacity="0.8">
<path d="M-36.1621 33.2227H59.6657V21.7507H49.3765L49.3889 19.8249H40.5237V17.9107H-11.9475V21.7387H-25.3657V25.5667H-36.1621V33.2227Z" fill="#19193E"/>
<path d="M451.289 259.592H204.641V278.683H451.289V259.592Z" fill="#454EE7"/>
<path d="M335.399 274.82H200.784V278.679H335.399V274.82Z" fill="#454EE7"/>
<path d="M341.582 278.682H200.784V282.541H341.582V278.682Z" fill="#454EE7"/>
<path d="M322.347 282.539H200.784V286.398H322.347V282.539Z" fill="#454EE7"/>
<path d="M288.486 290.26H197.237V294.119H288.486V290.26Z" fill="#454EE7"/>
<path d="M491.944 244.125H208.586V251.844H491.944V244.125Z" fill="#454EE7"/>
<path d="M291.675 253.762H-69.5691V363.091H291.675V253.762Z" fill="#454EE7"/>
<path d="M375.396 301.314H-69.5691V349.449H375.396V301.314Z" fill="#454EE7"/>
<path d="M388.335 220.936H254.773V224.796H388.335V220.936Z" fill="#454EE7"/>
<path d="M363.977 217.08H253.888V220.94H363.977V217.08Z" fill="#454EE7"/>
<path d="M527.646 224.826H262.621V228.686H527.646V224.826Z" fill="#454EE7"/>
<path d="M40.1722 27.4043H-16.2173V66.1654H40.1722V27.4043Z" fill="#222DE3"/>
<path d="M44.0004 58.0195H45.9146V38.9449H44.0004V58.0195Z" fill="#222DE3"/>
<path d="M45.9144 54.1992H47.8286V42.6582H45.9144V54.1992Z" fill="#222DE3"/>
<path d="M49.2359 25.4883H40.1711V27.402H49.2359V25.4883Z" fill="#222DE3"/>
<path d="M43.9995 29.3164H40.1711V31.2302H43.9995V29.3164Z" fill="#222DE3"/>
<path d="M56.305 47.5547H47.7056V49.4685H56.305V47.5547Z" fill="#222DE3"/>
<path d="M43.9995 36.9727H40.1711V62.3384H43.9995V36.9727Z" fill="#222DE3"/>
<path d="M59.6658 33.1348H78.8079V27.3922L59.6658 27.3922V33.1348Z" fill="#19193E"/>
<path d="M59.6654 27.3926H69.8745V25.4784H59.6654V27.3926Z" fill="#19193E"/>
<path d="M31.5297 21.6602H-1.48999V23.574H31.5297V21.6602Z" fill="#222DE3"/>
<path d="M21.9618 19.7461H6.16333V21.6598H21.9618V19.7461Z" fill="#222DE3"/>
<path d="M31.6701 16H-1.34961V17.9137H31.6701V16Z" fill="#19193E"/>
<path d="M220.101 293.871H-17.8789V296.895H220.101V293.871Z" fill="#777EED"/>
<path d="M177.785 284.881H3.37451V287.905H177.785V284.881Z" fill="#777EED"/>
<path d="M144.768 281.855H39.6675V284.879H144.768V281.855Z" fill="#777EED"/>
<path d="M175.447 260.66H-24.1787V263.684H175.447V260.66Z" fill="#777EED"/>
<path d="M177.412 296.896H-50.3071V299.92H177.412V296.896Z" fill="#777EED"/>
<path d="M193.596 299.918H-50.3071V305.967H193.596V299.918Z" fill="#777EED"/>
<path d="M244.392 318.008H223.852V321.032H244.392V318.008Z" fill="#777EED"/>
<path d="M236.485 314.986H223.852V318.01H236.485V314.986Z" fill="#777EED"/>
<path d="M229.69 324.059H223.852V327.083H229.69V324.059Z" fill="#777EED"/>
<path d="M241.545 337.385H223.852V340.409H241.545V337.385Z" fill="#777EED"/>
<path d="M237.518 334.275H223.152V338.812H237.518V334.275Z" fill="#777EED"/>
<path d="M241.545 321.035H223.852V324.059H241.545V321.035Z" fill="#777EED"/>
<path d="M309.469 308.934H223.852V311.958H309.469V308.934Z" fill="#777EED"/>
<path d="M253.626 311.957H223.852V314.981H253.626V311.957Z" fill="#777EED"/>
<path d="M193.664 287.902H-33.6743V291.683H193.664V287.902Z" fill="#777EED"/>
<path d="M413.34 263.684H-66.8062V266.708H413.34V263.684Z" fill="#777EED"/>
<path d="M223.853 305.91H-76.8191V350.65H223.853V305.91Z" fill="#777EED"/>
<path d="M385.116 291.086H3.90649V297.135H385.116V291.086Z" fill="#777EED"/>
<path d="M455.278 275.555H-68.959V278.579H455.278V275.555Z" fill="#777EED"/>
<path d="M222.243 326.535H30.1353V338.114H222.243V326.535Z" fill="#FEB8FF"/>
<path d="M153.66 326.535H52.0044V322.676H153.66V326.535Z" fill="#FEB8FF"/>
<path d="M123.452 322.676H67.7129V318.817H123.452V322.676Z" fill="#FEB8FF"/>
<path d="M102.832 318.812H47.0933V314.953H102.832V318.812Z" fill="#FEB8FF"/>
<path d="M115.889 314.951H60.1501V311.092H115.889V314.951Z" fill="#FEB8FF"/>
<path d="M98.748 311.125H74.9629V307.266H98.748V311.125Z" fill="#FEB8FF"/>
<path d="M40.1721 27.4043H-12.0874V23.5759H40.1721V27.4043Z" fill="#222DE3"/>
<path d="M0.313783 31.2289V27.3982H6.05374V25.4883H21.8581V28.3586H27.5924V31.2289H33.4478V36.9669H38.9283V62.3367H35.2469V64.2515H33.2614V68.078H27.5945V71.9061H23.7107V75.7342H12.0125H6.16333V71.9061H0.420375V68.078H-5.3187V62.3367H-9.14639V58.4883H-11.0535V35.0351H-9.14639V33.1647H-5.42833V31.2289H0.313783Z" fill="#454EE7"/>
<path d="M436.564 232.51H228.564V236.37H436.564V232.51Z" fill="#454EE7"/>
<path d="M479.079 251.838H270.34V259.557H479.079V251.838Z" fill="#454EE7"/>
<path d="M496.771 240.264H269.055V244.124H496.771V240.264Z" fill="#454EE7"/>
<path d="M335.399 236.371H268.955V240.231H335.399V236.371Z" fill="#454EE7"/>
<path d="M98.7565 324.447H82.0037V338.114H98.7565V324.447Z" fill="white"/>
<path d="M88.6227 341.197H85.1069V344.713H88.6227V341.197Z" fill="white"/>
<path d="M88.6227 320.932H85.1069V324.448H88.6227V320.932Z" fill="white"/>
<path d="M92.1386 341.197H88.6228V344.713H92.1386V341.197Z" fill="white"/>
<path d="M92.1386 320.932H88.6228V324.448H92.1386V320.932Z" fill="white"/>
<path d="M95.6523 341.197H92.1365V344.713H95.6523V341.197Z" fill="white"/>
<path d="M95.6523 320.932H92.1365V324.448H95.6523V320.932Z" fill="white"/>
<path d="M82.0037 331.067V327.551H78.4879V331.067H82.0037Z" fill="white"/>
<path d="M102.271 331.067V327.551H98.7552V331.067H102.271Z" fill="white"/>
<path d="M82.0037 334.582V331.066H78.4879V334.582H82.0037Z" fill="white"/>
<path d="M102.271 334.582V331.066H98.7552V334.582H102.271Z" fill="white"/>
<path d="M82.0037 338.098V334.582H78.4879V338.098H82.0037Z" fill="white"/>
<path d="M78.4839 338.115V330.709H74.9681V338.115H78.4839Z" fill="white"/>
<path d="M105.787 338.111V330.709H102.271V338.111H105.787Z" fill="white"/>
<path d="M102.271 338.116V333.889H98.7552V338.116H102.271Z" fill="white"/>
<path d="M514.795 349.449H-75.8396V466.607H514.795V349.449Z" fill="#FEDBFF"/>
<path d="M514.757 356.209H-75.7661V466.601H514.757V356.209Z" fill="#FEB8FF"/>
<path d="M564.311 373.74H-189.273V487.598H564.311V373.74Z" fill="#FC5CFF"/>
<path d="M33.5835 35.0625H2.47754V66.1685H33.5835V35.0625Z" fill="#00FFEE"/>
<path d="M35.4975 36.9746H33.5837V64.2537H35.4975V36.9746Z" fill="#00D8C9"/>
<path d="M31.6697 68.0817V66.168H4.39061V68.0817H31.6697Z" fill="#00D8C9"/>
<path d="M31.6697 33.1487L31.6697 35.0625L4.39061 35.0625L4.39061 33.1488L31.6697 33.1487Z" fill="#00FFEE"/>
<path d="M0.563789 36.9746L2.47754 36.9746L2.47754 64.2537L0.563791 64.2537L0.563789 36.9746Z" fill="#00FFEE"/>
<path d="M37.4105 38.8906H35.4968V62.3428H37.4105V38.8906Z" fill="#00D8C9"/>
<path d="M29.7566 69.9977V68.084H6.30439V69.9977H29.7566Z" fill="#00D8C9"/>
<path d="M29.7566 31.2347L29.7566 33.1484L6.30439 33.1484L6.30439 31.2347L29.7566 31.2347Z" fill="#00FFEE"/>
<path d="M-1.35027 38.8906L0.563477 38.8906L0.563479 62.3428L-1.35027 62.3428L-1.35027 38.8906Z" fill="#00FFEE"/>
<path d="M39.3237 42.7148H37.4099V58.5133H39.3237V42.7148Z" fill="#00D8C9"/>
<path d="M25.9294 71.9118V69.998H10.1309V71.9118H25.9294Z" fill="#00D8C9"/>
<path d="M25.9294 29.3225L25.9294 31.2363L10.1309 31.2363L10.1309 29.3225L25.9294 29.3225Z" fill="#00FFEE"/>
<path d="M41.2378 47.7422H39.324V54.6843H41.2378V47.7422Z" fill="#00D8C9"/>
<path d="M20.9019 73.822V71.9082H15.1592V73.822H20.9019Z" fill="#00D8C9"/>
<path d="M20.9019 29.322V27.4082H15.1593V29.322H20.9019Z" fill="#00FFEE"/>
<path d="M33.5831 64.2539H10.1309V66.1673H33.5831V64.2539Z" fill="#00BBAF"/>
<path d="M33.5827 62.3438H15.1584V64.2573H33.5827V62.3438Z" fill="#00BBAF"/>
<path d="M33.5832 60.4277H25.9294V62.3411H33.5832V60.4277Z" fill="#00BBAF"/>
<path d="M27.8428 56.5996H25.9294V60.428H27.8428V56.5996Z" fill="#00BBAF"/>
<path d="M25.9288 58.5137H24.0154V60.4279H25.9288V58.5137Z" fill="#00BBAF"/>
<path d="M20.901 71.9102H15.1584V73.8244H20.901V71.9102Z" fill="#D0FFFC"/>
<path d="M15.1588 69.9922H10.1309V71.9064H15.1588V69.9922Z" fill="#D0FFFC"/>
<path d="M25.9298 69.998H20.9019V71.9122H25.9298V69.998Z" fill="#D0FFFC"/>
<path d="M29.7563 68.084H25.9294V69.9982H29.7563V68.084Z" fill="#D0FFFC"/>
<path d="M31.6708 66.168H29.7566V68.0822H31.6708V66.168Z" fill="#D0FFFC"/>
<path d="M33.5839 64.2539H31.6697V66.1681H33.5839V64.2539Z" fill="#D0FFFC"/>
<path d="M35.497 62.3438H33.5828V64.258H35.497V62.3438Z" fill="#D0FFFC"/>
<path d="M37.411 58.5156H35.4968V62.3421H37.411V58.5156Z" fill="#D0FFFC"/>
<path d="M37.41 38.9004H35.4958V42.7269H37.41V38.9004Z" fill="#D0FFFC"/>
<path d="M35.496 36.9746H33.5818V38.888H35.496V36.9746Z" fill="#D0FFFC"/>
<path d="M39.3241 54.6875H37.4099V58.5141H39.3241V54.6875Z" fill="#D0FFFC"/>
<path d="M39.3241 42.6953H37.4099V47.7467H39.3241V42.6953Z" fill="#D0FFFC"/>
<path d="M41.2382 47.7422H39.324V54.6843H41.2382V47.7422Z" fill="#D0FFFC"/>
<path d="M4.39097 64.2539H2.47754V66.1681H4.39097V64.2539Z" fill="#00BBAF"/>
<path d="M29.7567 53.4863H27.8425V60.4273H29.7567V53.4863Z" fill="#00BBAF"/>
<path d="M25.9298 60.4277H20.9019V62.3411H25.9298V60.4277Z" fill="#00BBAF"/>
<path d="M33.5839 42.7148H31.6697V46.5464H33.5839V42.7148Z" fill="#00BBAF"/>
<path d="M33.5835 58.5156H29.7566V60.429H33.5835V58.5156Z" fill="#00BBAF"/>
<path d="M33.5835 46.5469H29.7566V58.5139H33.5835V46.5469Z" fill="#00BBAF"/>
<path d="M24.0129 46.709H20.186V58.676H24.0129V46.709Z" fill="#00BBAF"/>
<path d="M20.1871 42.8809H18.2729V46.7093H20.1871V42.8809Z" fill="#00BBAF"/>
<path d="M15.8794 40.8068V38.8926H12.051V40.8068H15.8794Z" fill="#00BBAF"/>
<path d="M18.2719 46.709H16.3577V48.6232H18.2719V46.709Z" fill="#00BBAF"/>
<path d="M12.0503 38.8947V36.9805H10.1361V38.8947H12.0503Z" fill="#00BBAF"/>
<path d="M13.9653 42.7228V40.8086H12.0511V42.7228H13.9653Z" fill="#00BBAF"/>
<path d="M12.0503 44.4767V42.5625H10.1361V44.4767H12.0503Z" fill="#00BBAF"/>
<path d="M22.1002 44.7949H20.186V46.7091H22.1002V44.7949Z" fill="#00BBAF"/>
<path d="M20.3463 56.7598H18.4321V58.674H20.3463V56.7598Z" fill="#00BBAF"/>
<path d="M0.563118 42.7227H-1.35156V44.6361H0.563118V42.7227Z" fill="#C7FEE3"/>
<path d="M6.42189 307.465H-16.0862V322.587H6.42189V307.465Z" fill="#0F1576"/>
<path d="M6.42134 292.021H-4.82666V307.459H6.42134V292.021Z" fill="#0F1576"/>
<path d="M6.42104 284.303H-4.82666V292.022H6.42104V284.303Z" fill="#0F1576"/>
<path d="M10.2803 276.584H0.796875V284.303H10.2803V276.584Z" fill="#0F1576"/>
<path d="M17.9799 319.053H10.2673V330.321H17.9799V319.053Z" fill="#0F1576"/>
<path d="M14.1413 276.584H10.2817V280.444H14.1413V276.584Z" fill="#0F1576"/>
<path d="M14.1247 280.443H10.2651V307.502H14.1247V280.443Z" fill="#0F1576"/>
<path d="M17.9841 315.195H14.1245V319.055H17.9841V315.195Z" fill="#0F1576"/>
<path d="M14.1247 307.465H10.2651V322.587H14.1247V307.465Z" fill="#0F1576"/>
<path d="M21.8415 319.053H17.9819V334.175H21.8415V319.053Z" fill="#0F1576"/>
<path d="M14.1413 272.723H10.2817V276.583H14.1413V272.723Z" fill="#0F1576"/>
<path d="M18.0007 268.865H14.1411V272.725H18.0007V268.865Z" fill="#0F1576"/>
<path d="M17.9841 272.723H14.1245V276.583H17.9841V272.723Z" fill="#0F1576"/>
<path d="M17.9841 276.584H14.1245V280.444H17.9841V276.584Z" fill="#0F1576"/>
<path d="M10.282 272.723H6.42236V276.583H10.282V272.723Z" fill="#0F1576"/>
<path d="M10.282 284.303H6.42236V326.443H10.282V284.303Z" fill="#0F1576"/>
<path d="M329.179 280.154H351.687V295.276H329.179V280.154Z" fill="#0F1576"/>
<path d="M329.179 264.711H340.427V280.149H329.179V264.711Z" fill="#0F1576"/>
<path d="M340.425 272.432H348.144V280.151H340.425V272.432Z" fill="#0F1576"/>
<path d="M340.425 264.711H344.285V272.43H340.425V264.711Z" fill="#0F1576"/>
<path d="M348.146 276.328H351.687V280.188H348.146V276.328Z" fill="#0F1576"/>
<path d="M329.179 256.992H340.427V264.711H329.179V256.992Z" fill="#0F1576"/>
<path d="M325.321 249.273H334.804V256.992H325.321V249.273Z" fill="#0F1576"/>
<path d="M317.62 291.74H325.333V303.008H317.62V291.74Z" fill="#0F1576"/>
<path d="M321.459 249.273H325.319V253.133H321.459V249.273Z" fill="#0F1576"/>
<path d="M321.475 253.133H325.335V280.192H321.475V253.133Z" fill="#0F1576"/>
<path d="M317.618 287.885H321.478V291.745H317.618V287.885Z" fill="#0F1576"/>
<path d="M321.475 280.154H325.335V295.276H321.475V280.154Z" fill="#0F1576"/>
<path d="M313.759 291.74H317.619V306.862H313.759V291.74Z" fill="#0F1576"/>
<path d="M321.459 245.412H325.319V249.272H321.459V245.412Z" fill="#0F1576"/>
<path d="M317.599 241.555H321.459V245.415H317.599V241.555Z" fill="#0F1576"/>
<path d="M317.618 245.412H321.478V249.272H317.618V245.412Z" fill="#0F1576"/>
<path d="M317.618 249.273H321.478V253.133H317.618V249.273Z" fill="#0F1576"/>
<path d="M325.318 245.412H329.178V249.272H325.318V245.412Z" fill="#0F1576"/>
<path d="M325.318 256.992H329.178V299.132H325.318V256.992Z" fill="#0F1576"/>
<path d="M-14.1703 309.163H-11.728L-11.7232 302.763H-9.16836V280.269H-6.7304V275.791L-4.49123 275.762V270.905H-2.0485L-1.94713 260.931H0.394222L0.394224 258.488H2.83696V251.16H5.27969V248.717H10.3687V238.743H12.8114V214.315H15.2541V209.633H17.6969V203.721H20.1396V195.181H22.5823V190.702H24.9281V183.057H27.3787V323.299H-16.8069V313.79H-14.1703V309.163Z" fill="#19193E"/>
<path d="M39.6022 309.162H37.1599V303.109H34.7172L34.7124 280.184H32.2641V275.557H29.8218V270.836H-1.94681V325.74H42.2388V313.789H39.6022V309.162Z" fill="#19193E"/>
<path d="M42.0853 31.2305H40.1711V33.1447H42.0853V31.2305Z" fill="#222DE3"/>
<path d="M107.467 350.09H119.681V353.144H97.6964V355.586H90.3682V358.029H83.0401V360.472H85.4828V362.915H97.6964V365.38C97.6964 365.384 107.467 365.38 107.467 365.38V367.804H124.566V370.243H141.666V372.686H151.233V375.128H156.118V377.575H168.332V380.016H173.217V382.456L-165.304 382.355V162H-162.047V166.885H-157.162V169.328H-154.719V171.771H-140.063V174.214H-135.177V176.656H-127.849V179.099H-125.406V181.542H-122.964V183.985H-120.521V186.457H-118.078V188.87H-108.307V191.313H-105.864V196.198H-103.422V201.084H-100.979V203.526H-98.5362V205.969H-96.0935V208.412H-91.208V210.855H-88.7653V215.537H-83.8799V230.193H-81.4371V232.636H-78.9944V237.342V244.849H-76.5517V247.292H-74.1089V252.177H-64.338V249.735H-57.0098V247.29H-27.6971V249.735H-30.1555V257.063H-32.5825L-32.5668 271.719H-35.0253V274.162H-39.9107V280.88H-44.7962V303.678H-42.3534V306.121H-37.468V311.019L-35.0253 311.007V313.449H-20.3689V318.335H2.42993V323.22H21.9718V318.335H26.8573V315.892H34.1854V318.335H36.6282V320.778H41.5136V323.22H43.9564V325.663H48.8418V328.106H51.2846V330.548H53.7273V332.991H58.6127V337.877H63.4982V340.319H70.8264V342.762H80.5973V345.205H85.4828V347.648H107.467V350.09Z" fill="#19193E"/>
<path d="M77.683 341.903H96.981V346.727H62.2447V350.587H50.6659V354.447H39.0872V344.315H35.2276V334.184H31.5288V330.324H35.2276V334.184H39.0872H42.9468V338.043H77.683V341.903Z" fill="#19193E"/>
<path d="M327.368 108.083V104.227H323.512V108.083H327.368Z" fill="white"/>
<path opacity="0.6" d="M327.368 111.938V108.082H323.512V111.938H327.368Z" fill="white"/>
<path opacity="0.6" d="M327.368 104.227V100.371H323.512V104.227H327.368Z" fill="white"/>
<path opacity="0.6" d="M319.657 108.082H323.513V104.226H319.657V108.082Z" fill="white"/>
<path opacity="0.6" d="M327.369 108.082H331.225V104.226H327.369V108.082Z" fill="white"/>
<path opacity="0.3" d="M331.227 108.082H335.083V104.226H331.227V108.082Z" fill="white"/>
<path opacity="0.3" d="M315.801 108.082H319.657V104.226H315.801V108.082Z" fill="white"/>
<path opacity="0.3" d="M323.513 111.941V115.797H327.369V111.941H323.513Z" fill="white"/>
<path opacity="0.3" d="M323.513 96.5146V100.371H327.369V96.5146H323.513Z" fill="white"/>
<path d="M525.396 366.021H304.113V369.881H525.396V366.021Z" fill="#0C115D"/>
<path d="M277.472 50.5703H273.612V54.4299H277.472V50.5703Z" fill="#454EE7"/>
<path d="M296.771 31.2715H292.911V35.1311H296.771V31.2715Z" fill="#07FFEE"/>
<path d="M281.331 46.7109H277.471V50.5705H281.331V46.7109Z" fill="#5E66EA"/>
<path d="M300.628 27.4121H296.768V31.2717H300.628V27.4121Z" fill="#5CFFF4"/>
<path d="M285.191 42.8496H281.331V46.7092H285.191V42.8496Z" fill="#5CFFF4"/>
<path d="M304.49 23.5508H300.63V27.4104H304.49V23.5508Z" fill="#5E66EA"/>
<path d="M289.05 38.9922H285.19V42.8518H289.05V38.9922Z" fill="#07FFEE"/>
<path d="M308.349 19.6934H304.489V23.553H308.349V19.6934Z" fill="#454EE7"/>
<path d="M292.91 35.1309H289.05V38.9905H292.91V35.1309Z" fill="white"/>
<path d="M289.05 31.2715H285.19V35.1311H289.05V31.2715Z" fill="#07FFEE"/>
<path d="M296.771 38.9922H292.911V42.8518H296.771V38.9922Z" fill="#07FFEE"/>
<path d="M40.72 58.5282V42.7383H38.8063V58.5282H40.72Z" fill="#454EE7"/>
<path d="M42.6274 54.2175V47.7578H40.7137V54.2175H42.6274Z" fill="#454EE7"/>
<path d="M290.329 281.172H402.851V341.184H290.329V281.172Z" fill="#D0E2F4"/>
<path d="M229.068 305.182H282.829V341.189H229.068V305.182Z" fill="#D0E2F4"/>
<path d="M332.339 281.173L332.339 227.162L353.343 227.162L353.343 281.173L332.339 281.173Z" fill="#F4F6F8"/>
<path d="M338.338 245.165L338.338 227.162L344.339 227.162L344.339 245.165L338.338 245.165Z" fill="#FD78FF"/>
<path d="M338.338 230.163L338.338 227.162L344.339 227.162L344.339 230.163L338.338 230.163Z" fill="#FFF7FF"/>
<path d="M338.338 233.161L338.338 230.16L341.339 230.16L341.339 233.161L338.338 233.161Z" fill="#FFF7FF"/>
<path d="M332.339 233.163L332.339 227.162L338.34 227.162L338.34 233.163L332.339 233.163Z" fill="#FD78FF"/>
<path d="M335.339 236.163L335.339 233.162L338.34 233.162L338.34 236.163L335.339 236.163Z" fill="#FD78FF"/>
<path d="M344.34 230.163L344.34 227.162L350.341 227.162L350.341 230.163L344.34 230.163Z" fill="#FD78FF"/>
<path d="M344.34 233.161L344.34 230.16L347.341 230.16L347.341 233.161L344.34 233.161Z" fill="#FD78FF"/>
<path d="M338.338 248.165L338.338 245.164L341.339 245.164L341.339 248.165L338.338 248.165Z" fill="#FD78FF"/>
<path d="M335.339 251.167L335.339 248.166L338.34 248.166L338.34 251.167L335.339 251.167Z" fill="#FD78FF"/>
<path d="M350.341 287.173L350.341 263.168L368.345 263.168L368.345 287.173L350.341 287.173Z" fill="#F4F6F8"/>
<path d="M267.825 296.174H290.329V311.177H267.825V296.174Z" fill="#D0E2F4"/>
<path d="M214.066 326.18H229.069V341.183H214.066V326.18Z" fill="#D0E2F4"/>
<path d="M177.559 333.68H192.562V342.682H177.559V333.68Z" fill="#D0E2F4"/>
<path d="M249.821 293.174H252.822V296.175H249.821V293.174Z" fill="#D0E2F4"/>
<path d="M249.821 299.178H252.822V302.179H249.821V299.178Z" fill="#D0E2F4"/>
<path d="M243.82 302.18H252.822V305.181H243.82V302.18Z" fill="#D0E2F4"/>
<path d="M183.81 339.686H189.811V345.687H183.81V339.686Z" fill="#D0E2F4"/>
<path d="M183.808 336.684H186.809V339.685H183.808V336.684Z" fill="#D0E2F4"/>
<path d="M189.81 342.684H192.811V345.685H189.81V342.684Z" fill="#D0E2F4"/>
<path d="M195.811 348.686H198.812V351.687H195.811V348.686Z" fill="#D0E2F4"/>
<path d="M165.555 342.684H171.556V345.685H165.555V342.684Z" fill="#D0E2F4"/>
<path d="M186.808 345.686H195.81V348.687H186.808V345.686Z" fill="#D0E2F4"/>
<path d="M252.823 296.174H255.824V305.176H252.823V296.174Z" fill="#D0E2F4"/>
<path d="M255.823 299.178H258.824V305.179H255.823V299.178Z" fill="#D0E2F4"/>
<path d="M264.824 302.18H267.825V305.181H264.824V302.18Z" fill="#D0E2F4"/>
<path d="M258.823 302.18H261.824V305.181H258.823V302.18Z" fill="#D0E2F4"/>
<path d="M275.327 293.174H278.328V296.175H275.327V293.174Z" fill="#D0E2F4"/>
<path d="M281.327 287.174H290.329V290.175H281.327V287.174Z" fill="#D0E2F4"/>
<path d="M281.327 284.172H290.329V287.173H281.327V284.172Z" fill="#D0E2F4"/>
<path d="M287.328 281.172H290.329V284.173H287.328V281.172Z" fill="#D0E2F4"/>
<path d="M174.557 336.684H177.558V342.685H174.557V336.684Z" fill="#D0E2F4"/>
<path d="M171.555 339.686H174.556V342.687H171.555V339.686Z" fill="#D0E2F4"/>
<path d="M189.561 330.684H192.562V333.685H189.561V330.684Z" fill="#D0E2F4"/>
<path d="M180.558 330.684H183.559V333.685H180.558V330.684Z" fill="#D0E2F4"/>
<path d="M177.558 330.684H180.559V333.685H177.558V330.684Z" fill="#D0E2F4"/>
<path d="M174.557 333.68H177.558V336.681H174.557V333.68Z" fill="#D0E2F4"/>
<path d="M171.555 336.684H174.556V339.685H171.555V336.684Z" fill="#D0E2F4"/>
<path d="M168.555 339.686H171.556V342.687H168.555V339.686Z" fill="#D0E2F4"/>
<path d="M183.559 330.684H189.56V333.685H183.559V330.684Z" fill="#D0E2F4"/>
<path d="M183.559 327.682H189.56V330.683H183.559V327.682Z" fill="#D0E2F4"/>
<path d="M371.346 275.174H377.347V281.175H371.346V275.174Z" fill="#D0E2F4"/>
<path d="M374.346 275.174H380.347V281.175H374.346V275.174Z" fill="#D0E2F4"/>
<path d="M308.333 275.174H314.334V281.175H308.333V275.174Z" fill="#D0E2F4"/>
<path d="M350.341 236.164H356.342V248.166H350.341V236.164Z" fill="#F4F6F8"/>
<path d="M314.334 266.17H320.335V281.173H314.334V266.17Z" fill="#F4F6F8"/>
<path d="M296.332 287.174H302.333V293.175H296.332V287.174Z" fill="#F4F6F8"/>
<path d="M293.329 290.178H296.33V293.179H293.329V290.178Z" fill="#F4F6F8"/>
<path d="M293.329 293.174H296.33V296.175H293.329V293.174Z" fill="#F4F6F8"/>
<path d="M290.33 278.17H308.333V281.171H290.33V278.17Z" fill="#D0E2F4"/>
<path d="M311.333 272.174H314.334V275.175H311.333V272.174Z" fill="#D0E2F4"/>
<path d="M317.334 263.168H320.335V266.169H317.334V263.168Z" fill="#F4F6F8"/>
<path d="M374.346 272.174H377.347V275.175H374.346V272.174Z" fill="#D0E2F4"/>
<path d="M356.343 245.164H359.344V248.165H356.343V245.164Z" fill="#F4F6F8"/>
<path d="M317.334 245.164H320.335V251.165H317.334V245.164Z" fill="#D0E2F4"/>
<path d="M329.338 230.16H332.339V239.162H329.338V230.16Z" fill="#F4F6F8"/>
<path d="M326.336 236.164H329.337V239.165H326.336V236.164Z" fill="#F4F6F8"/>
<path d="M368.345 278.17H371.346V281.171H368.345V278.17Z" fill="#D0E2F4"/>
<path d="M368.345 266.17H374.346V281.173H368.345V266.17Z" fill="#F4F6F8"/>
<path d="M350.341 248.166H362.343V263.169H350.341V248.166Z" fill="#F4F6F8"/>
<path d="M320.337 239.164H332.339V281.172H320.337V239.164Z" fill="#F4F6F8"/>
<path d="M278.327 290.178H290.329V296.179H278.327V290.178Z" fill="#D0E2F4"/>
<path d="M220.067 317.178H229.069V326.18H220.067V317.178Z" fill="#D0E2F4"/>
<path d="M223.068 311.178H229.069V317.179H223.068V311.178Z" fill="#D0E2F4"/>
<path d="M327.837 341.184H357.843V347.185H327.837V341.184Z" fill="#D0E2F4"/>
<path d="M327.838 347.188H342.841V353.189H327.838V347.188Z" fill="#D0E2F4"/>
<path d="M327.837 353.186H333.838V359.187H327.837V353.186Z" fill="#D0E2F4"/>
<path d="M324.836 356.189H327.837V359.19H324.836V356.189Z" fill="#D0E2F4"/>
<path d="M302.332 278.17H357.343V293.173H302.332V278.17Z" fill="#F4F6F8"/>
<path d="M290.329 293.174H293.33V299.175H290.329V293.174Z" fill="#F4F6F8"/>
<path d="M239.069 310.93H242.07V316.931H239.069V310.93Z" fill="#F4F6F8"/>
<path d="M287.328 296.174H290.329V299.175H287.328V296.174Z" fill="#F4F6F8"/>
<path d="M236.068 313.93H239.069V316.931H236.068V313.93Z" fill="#F4F6F8"/>
<path d="M284.328 299.178H287.329V302.179H284.328V299.178Z" fill="#F4F6F8"/>
<path d="M233.068 316.93H236.069V319.931H233.068V316.93Z" fill="#F4F6F8"/>
<path d="M220.066 317.178H223.067V320.179H220.066V317.178Z" fill="#F4F6F8"/>
<path d="M217.065 326.18H220.066V329.181H217.065V326.18Z" fill="#F4F6F8"/>
<path d="M214.065 326.18H217.066V329.181H214.065V326.18Z" fill="#F4F6F8"/>
<path d="M186.559 327.682H189.56V330.683H186.559V327.682Z" fill="#F4F6F8"/>
<path d="M183.558 327.682H186.559V330.683H183.558V327.682Z" fill="#F4F6F8"/>
<path d="M180.558 330.684H183.559V333.685H180.558V330.684Z" fill="#F4F6F8"/>
<path d="M177.558 330.684H180.559V333.685H177.558V330.684Z" fill="#F4F6F8"/>
<path d="M174.557 333.68H177.558V336.681H174.557V333.68Z" fill="#F4F6F8"/>
<path d="M174.557 333.68H177.558V336.681H174.557V333.68Z" fill="#F4F6F8"/>
<path d="M183.558 333.68H186.559V336.681H183.558V333.68Z" fill="#F4F6F8"/>
<path d="M168.555 339.686H171.556V342.687H168.555V339.686Z" fill="#F4F6F8"/>
<path d="M171.555 336.684H174.556V339.685H171.555V336.684Z" fill="#F4F6F8"/>
<path d="M223.066 311.178H226.067V314.179H223.066V311.178Z" fill="#F4F6F8"/>
<path d="M226.068 311.178H229.069V314.179H226.068V311.178Z" fill="#F4F6F8"/>
<path d="M229.067 308.18H232.068V311.181H229.067V308.18Z" fill="#F4F6F8"/>
<path d="M229.067 305.182H232.068V308.183H229.067V305.182Z" fill="#F4F6F8"/>
<path d="M232.067 305.182H235.068V308.183H232.067V305.182Z" fill="#F4F6F8"/>
<path d="M296.332 296.174H302.333V299.175H296.332V296.174Z" fill="#F4F6F8"/>
<path d="M305.334 299.178H302.333V302.179H305.334V299.178Z" fill="#F4F6F8"/>
<path d="M377.347 278.17H374.346V281.171H377.347V278.17Z" fill="#F4F6F8"/>
<path d="M374.347 266.17H371.346V269.171H374.347V266.17Z" fill="#D0E2F4"/>
<path d="M368.346 275.174H365.345V281.175H368.346V275.174Z" fill="#D0E2F4"/>
<path d="M365.344 275.174H362.343V278.175H365.344V275.174Z" fill="#D0E2F4"/>
<path d="M362.345 275.174H359.344V278.175H362.345V275.174Z" fill="#D0E2F4"/>
<path d="M359.343 272.174H356.342V275.175H359.343V272.174Z" fill="#D0E2F4"/>
<path d="M356.343 275.174H353.342V278.175H356.343V275.174Z" fill="#D0E2F4"/>
<path d="M353.342 278.17H350.341V281.171H353.342V278.17Z" fill="#D0E2F4"/>
<path d="M350.342 281.172H347.341V284.173H350.342V281.172Z" fill="#D0E2F4"/>
<path d="M359.343 269.172H356.342V272.173H359.343V269.172Z" fill="#D0E2F4"/>
<path d="M353.342 272.174H350.341V275.175H353.342V272.174Z" fill="#D0E2F4"/>
<path d="M371.346 266.17H368.345V269.171H371.346V266.17Z" fill="#D0E2F4"/>
<path d="M368.346 263.168H365.345V266.169H368.346V263.168Z" fill="#D0E2F4"/>
<path d="M365.344 263.168H362.343V266.169H365.344V263.168Z" fill="#D0E2F4"/>
<path d="M362.345 260.168H359.344V263.169H362.345V260.168Z" fill="#D0E2F4"/>
<path d="M302.332 278.17H308.333V284.171H302.332V278.17Z" fill="#D0E2F4"/>
<path d="M305.332 281.172H308.333V284.173H305.332V281.172Z" fill="#F4F6F8"/>
<path d="M287.328 281.172H290.329V284.173H287.328V281.172Z" fill="#F4F6F8"/>
<path d="M290.329 281.172H293.33V284.173H290.329V281.172Z" fill="#F4F6F8"/>
<path d="M293.331 275.422H299.332V278.423H293.331V275.422Z" fill="#F4F6F8"/>
<path d="M287.328 287.174H290.329V290.175H287.328V287.174Z" fill="#F4F6F8"/>
<path d="M284.328 284.172H287.329V287.173H284.328V284.172Z" fill="#F4F6F8"/>
<path d="M281.328 284.172H284.329V287.173H281.328V284.172Z" fill="#F4F6F8"/>
<path d="M281.328 287.174H284.329V290.175H281.328V287.174Z" fill="#F4F6F8"/>
<path d="M278.327 290.178H281.328V293.179H278.327V290.178Z" fill="#F4F6F8"/>
<path d="M290.329 278.17H305.332V281.171H290.329V278.17Z" fill="#F4F6F8"/>
<path d="M348.842 263.169V260.168H345.841V263.169H348.842Z" fill="#FD78FF"/>
<path d="M335.339 239.165V236.164H332.338V239.165H335.339Z" fill="#FD78FF"/>
<path d="M351.842 266.169V263.168H348.841V266.169H351.842Z" fill="#FD78FF"/>
<path d="M314.334 287.174H320.335V293.175H314.334V287.174Z" fill="#D0E2F4"/>
<path d="M320.335 284.172H323.336V287.173H320.335V284.172Z" fill="#D0E2F4"/>
<path d="M323.337 284.172H326.338V287.173H323.337V284.172Z" fill="#D0E2F4"/>
<path d="M323.337 278.17H326.338V281.171H323.337V278.17Z" fill="#D0E2F4"/>
<path d="M326.336 281.172H329.337V284.173H326.336V281.172Z" fill="#D0E2F4"/>
<path d="M44.5416 49.7305H42.6274V51.6447H44.5416V49.7305Z" fill="#454EE7"/>
<path d="M50.8822 49.3906H47.8286V51.1904H50.8822V49.3906Z" fill="#222DE3"/>
<path d="M50.8822 42.6582H47.8286V44.458H50.8822V42.6582Z" fill="#222DE3"/>
<path d="M52.7964 44.457H47.8286V47.7385H52.7964V44.457Z" fill="#1B24CE"/>
<path d="M52.7963 41.1758H50.8821V44.4573H52.7963V41.1758Z" fill="#1B24CE"/>
<path d="M48.9682 38.9453H45.9146V40.7451H48.9682V38.9453Z" fill="#222DE3"/>
<path d="M355.374 65.6816H359.234V84.9795H355.374V65.6816Z" fill="#FC35FF"/>
<path d="M351.517 69.543H355.377V81.1218H351.517V69.543Z" fill="#FC35FF"/>
<path d="M374.673 69.543H378.533V81.1218H374.673V69.543Z" fill="#FC35FF"/>
<path d="M370.814 65.6816H374.674V84.9795H370.814V65.6816Z" fill="#FC35FF"/>
<path d="M359.234 88.8401L359.234 84.9805L370.813 84.9805L370.813 88.8401L359.234 88.8401Z" fill="#FC35FF"/>
<path d="M359.234 65.6838L359.234 61.8242L370.813 61.8242L370.813 65.6838L359.234 65.6838Z" fill="#FC35FF"/>
<path d="M355.377 69.5412L355.377 65.6816L374.675 65.6816L374.675 69.5412L355.377 69.5412Z" fill="#FC35FF"/>
<path d="M359.234 84.9797L359.234 65.6816L370.813 65.6816L370.813 84.9797L359.234 84.9797Z" fill="#FC35FF"/>
<path d="M374.673 65.6816H378.533V69.5412H374.673V65.6816Z" fill="#DB00DE"/>
<path d="M370.813 61.8262H374.673V65.6858H370.813V61.8262Z" fill="#DB00DE"/>
<path d="M351.516 69.5449H347.656V81.1237H351.516V69.5449Z" fill="#DB00DE"/>
<path d="M347.656 69.5449H343.796V81.1237H347.656V69.5449Z" fill="#FD9CFF"/>
<path d="M343.799 65.6816H339.939V84.9793H343.799V65.6816Z" fill="#5E66EA"/>
<path d="M359.236 92.7009V96.5605H370.815V92.7009H359.236Z" fill="#FD9CFF"/>
<path d="M359.236 54.1092V57.9688H370.815V54.1092H359.236Z" fill="#FD9CFF"/>
<path d="M355.376 50.2478V54.1074H374.676V50.2478H355.376Z" fill="#5E66EA"/>
<path d="M355.376 96.5644V100.424H374.676V96.5644H355.376Z" fill="#5E66EA"/>
<path d="M374.682 92.7009V96.5605H378.538V92.7009H374.682Z" fill="#5E66EA"/>
<path d="M355.374 92.7009L355.374 96.5605L351.518 96.5605L351.518 92.7009L355.374 92.7009Z" fill="#5E66EA"/>
<path d="M351.513 88.8416L351.513 92.7012L347.657 92.7012L347.657 88.8416L351.513 88.8416Z" fill="#5E66EA"/>
<path d="M347.659 84.9842L347.659 88.8438L343.803 88.8438L343.803 84.9842L347.659 84.9842Z" fill="#5E66EA"/>
<path d="M374.682 57.967L374.682 54.1074L378.538 54.1074L378.538 57.967L374.682 57.967Z" fill="#5E66EA"/>
<path d="M355.374 57.967V54.1074H351.518V57.967H355.374Z" fill="#5E66EA"/>
<path d="M351.513 61.8284V57.9688H347.657V61.8284H351.513Z" fill="#5E66EA"/>
<path d="M347.659 65.6858V61.8262H343.803V65.6858H347.659Z" fill="#5E66EA"/>
<path d="M351.515 81.123H347.655V84.9827H351.515V81.123Z" fill="#FD9CFF"/>
<path d="M355.377 84.9824H351.517V88.8421H355.377V84.9824Z" fill="#FD9CFF"/>
<path d="M359.236 88.8438H355.376V92.7035H359.236V88.8438Z" fill="#FD9CFF"/>
<path d="M359.236 92.7012H355.376V96.5609H359.236V92.7012Z" fill="#FD9CFF"/>
<path d="M374.674 88.8438H370.814V92.7035H374.674V88.8438Z" fill="#FD9CFF"/>
<path d="M374.674 92.7012H370.814V96.5609H374.674V92.7012Z" fill="#FD9CFF"/>
<path d="M378.535 84.9824H374.675V88.8421H378.535V84.9824Z" fill="#FD9CFF"/>
<path d="M378.535 88.8438H374.675V92.7035H378.535V88.8438Z" fill="#FD9CFF"/>
<path d="M351.516 61.8262H347.656V65.6859H351.516V61.8262Z" fill="#FD9CFF"/>
<path d="M355.375 57.9688H351.515V61.8285H355.375V57.9688Z" fill="#FD9CFF"/>
<path d="M374.675 57.9688H378.535V61.8285H374.675V57.9688Z" fill="#FD9CFF"/>
<path d="M355.379 88.8438H351.519V92.7035H355.379V88.8438Z" fill="#FD9CFF"/>
<path d="M351.519 84.9824H347.659V88.8421H351.519V84.9824Z" fill="#FD9CFF"/>
<path d="M378.533 61.8262H374.673V65.6859H378.533V61.8262Z" fill="#FD9CFF"/>
<path d="M374.674 57.9688H370.814V61.8285H374.674V57.9688Z" fill="#FD9CFF"/>
<path d="M374.674 54.1074H370.814V57.9671H374.674V54.1074Z" fill="#FD9CFF"/>
<path d="M359.236 57.9688H355.376V61.8285H359.236V57.9688Z" fill="#FD9CFF"/>
<path d="M359.236 54.1074H355.376V57.9671H359.236V54.1074Z" fill="#FD9CFF"/>
<path d="M355.377 61.8262H351.517V65.6859H355.377V61.8262Z" fill="#FEDBFF"/>
<path d="M351.515 65.6816H347.655V69.5413H351.515V65.6816Z" fill="#FEDBFF"/>
<path d="M351.516 69.5449H347.656V73.4046H351.516V69.5449Z" fill="#FC35FF"/>
<path d="M347.656 65.6816H343.796V69.5413H347.656V65.6816Z" fill="#FD9CFF"/>
<path d="M347.656 81.123H343.796V84.9827H347.656V81.123Z" fill="#FD9CFF"/>
<path d="M355.377 65.6816H351.517V69.5412H355.377V65.6816Z" fill="#DB00DE"/>
<path d="M359.236 61.8262H355.376V65.6858H359.236V61.8262Z" fill="#DB00DE"/>
<path d="M359.236 88.8416V92.7012H370.815V88.8416H359.236Z" fill="#DB00DE"/>
<path d="M359.236 57.9666V61.8262H370.815V57.9666H359.236Z" fill="#DB00DE"/>
<path d="M355.376 84.9842V88.8438H359.236V84.9842H355.376Z" fill="#DB00DE"/>
<path d="M351.517 81.1228V84.9824H355.377V81.1228H351.517Z" fill="#DB00DE"/>
<path d="M374.673 84.9842L374.673 88.8438L370.813 88.8438L370.813 84.9842L374.673 84.9842Z" fill="#DB00DE"/>
<path d="M378.533 81.1228L378.533 84.9824L374.673 84.9824L374.673 81.1228L378.533 81.1228Z" fill="#DB00DE"/>
<path d="M374.675 81.1228L374.675 84.9824L370.815 84.9824L370.815 81.1228L374.675 81.1228Z" fill="#DB00DE"/>
<path d="M370.814 81.1228L370.814 84.9824L366.954 84.9824L366.954 81.1228L370.814 81.1228Z" fill="#DB00DE"/>
<path d="M374.675 77.2634L374.675 81.123L370.815 81.123L370.815 77.2634L374.675 77.2634Z" fill="#DB00DE"/>
<path d="M370.814 84.9842L370.814 88.8438L366.954 88.8438L366.954 84.9842L370.814 84.9842Z" fill="#DB00DE"/>
<path d="M366.952 84.9842L366.952 88.8438L363.092 88.8438L363.092 84.9842L366.952 84.9842Z" fill="#DB00DE"/>
<path d="M378.533 77.2634L378.533 81.123L374.673 81.123L374.673 77.2634L378.533 77.2634Z" fill="#DB00DE"/>
<path d="M378.533 73.4041L378.533 77.2637L374.673 77.2637L374.673 73.4041L378.533 73.4041Z" fill="#DB00DE"/>
<path d="M378.533 69.5408L378.533 73.4004L374.673 73.4004L374.673 69.5408L378.533 69.5408Z" fill="#DB00DE"/>
<path d="M124.32 358.629H98.2673V362.489H124.32V358.629Z" fill="#FD78FF"/>
<path d="M144.26 362.166H124.319V366.026H144.26V362.166Z" fill="#FD78FF"/>
<path d="M293.498 377.6H258.762V381.46H293.498V377.6Z" fill="#DB00DE"/>
<path d="M36.863 325.211H33.8386V328.235H36.863V325.211Z" fill="#00D8C9"/>
<path d="M33.839 325.211H30.8145V328.235H33.839V325.211Z" fill="#00D8C9"/>
<path d="M39.8857 322.188H36.8613V325.212H39.8857V322.188Z" fill="#00D8C9"/>
<path d="M42.9117 325.211H39.8872V328.235H42.9117V325.211Z" fill="#00D8C9"/>
<path d="M30.8148 322.188H24.7659V325.212H30.8148V322.188Z" fill="#5CFFF4"/>
<path d="M33.8392 316.137H24.7659V319.161H33.8392V316.137Z" fill="#5CFFF4"/>
<path d="M24.7645 319.162H18.7156V322.186H24.7645V319.162Z" fill="#5CFFF4"/>
<path d="M9.64142 319.162H3.59253V322.186H9.64142V319.162Z" fill="#5CFFF4"/>
<path d="M9.64199 313.113H-18.5862V316.137H9.64199V313.113Z" fill="#5CFFF4"/>
<path d="M18.7159 322.188H12.667V325.212H18.7159V322.188Z" fill="#5CFFF4"/>
<path d="M12.6673 325.211H6.61841V328.235H12.6673V325.211Z" fill="#5CFFF4"/>
<path d="M33.8392 319.162H24.7659V322.186H33.8392V319.162Z" fill="#5CFFF4"/>
<path d="M39.8857 313.113H36.8613V316.137H39.8857V313.113Z" fill="#5CFFF4"/>
<path d="M36.863 313.113H33.8386V316.137H36.863V313.113Z" fill="#5CFFF4"/>
<path d="M42.9117 310.088H39.8872V313.112H42.9117V310.088Z" fill="#5CFFF4"/>
<path d="M42.9117 319.162H39.8872V322.186H42.9117V319.162Z" fill="#00D8C9"/>
<path d="M45.936 322.188H42.9116V325.212H45.936V322.188Z" fill="#00D8C9"/>
<path d="M45.936 316.137H42.9116V319.161H45.936V316.137Z" fill="#00D8C9"/>
<path d="M48.9605 319.162H45.936V322.186H48.9605V319.162Z" fill="#00D8C9"/>
<path d="M48.9605 313.113H45.936V316.137H48.9605V313.113Z" fill="#00D8C9"/>
<path d="M45.936 313.113H42.9116V316.137H45.936V313.113Z" fill="#00D8C9"/>
<path d="M42.9117 316.137H39.8872V319.161H42.9117V316.137Z" fill="#00D8C9"/>
<path d="M39.8857 319.162H36.8613V322.186H39.8857V319.162Z" fill="#00D8C9"/>
<path d="M36.863 322.188H33.8386V325.212H36.863V322.188Z" fill="#00D8C9"/>
<path d="M36.863 319.162H33.8386V322.186H36.863V319.162Z" fill="#07FFEE"/>
<path d="M33.839 322.188H30.8145V325.212H33.839V322.188Z" fill="#07FFEE"/>
<path d="M3.59427 316.137H0.569824V319.161H3.59427V316.137Z" fill="#07FFEE"/>
<path d="M30.8131 325.211H27.7886V328.235H30.8131V325.211Z" fill="#07FFEE"/>
<path d="M0.570104 319.162H-2.45435V322.186H0.570104V319.162Z" fill="#07FFEE"/>
<path d="M39.8857 316.137H36.8613V319.161H39.8857V316.137Z" fill="#07FFEE"/>
<path d="M36.863 316.137H33.8386V319.161H36.863V316.137Z" fill="#07FFEE"/>
<path d="M42.9117 313.113H39.8872V316.137H42.9117V313.113Z" fill="#07FFEE"/>
<path d="M45.936 310.088H42.9116V313.112H45.936V310.088Z" fill="#5CFFF4"/>
<path d="M350.341 141.146H332.337V227.163H350.341V141.146Z" fill="#0F1576"/>
<path d="M335.338 141.146H332.337V227.163H335.338V141.146Z" fill="#D0E2F4"/>
<path d="M350.342 141.146H347.341V227.163H350.342V141.146Z" fill="#454EE7"/>
<path d="M338.34 141.146H335.339V227.163H338.34V141.146Z" fill="#777EED"/>
<path d="M350.341 114.143H332.337V141.148H350.341V114.143Z" fill="#0F1576"/>
<path d="M344.339 108.139H338.338V111.14H344.339V108.139Z" fill="#777EED"/>
<path d="M347.341 111.141H335.339V114.142H347.341V111.141Z" fill="#777EED"/>
<path d="M347.341 111.141H344.34V114.142H347.341V111.141Z" fill="#080B3E"/>
<path d="M350.342 111.141H347.341V114.142H350.342V111.141Z" fill="#777EED"/>
<path d="M335.337 111.141H338.338V114.142H335.337V111.141Z" fill="#D0E2F4"/>
<path d="M347.341 108.139H344.34V111.14H347.341V108.139Z" fill="#777EED"/>
<path d="M338.337 108.139H341.338V111.14H338.337V108.139Z" fill="#D0E2F4"/>
<path d="M332.337 145.9V133.898H329.336V145.9H332.337Z" fill="#080B3E"/>
<path d="M350.34 141.149V133.898H332.336V141.149H350.34Z" fill="#080B3E"/>
<path d="M350.34 227.163V224.162H332.336V227.163H350.34Z" fill="#0F1576"/>
<path d="M338.338 133.897V114.143H335.337V133.897H338.338Z" fill="#080B3E"/>
<path d="M335.339 133.897V114.143H332.338V133.897H335.339Z" fill="#D0E2F4"/>
<path d="M347.341 136.899V133.898H335.339V136.899H347.341Z" fill="#5E66EA"/>
<path d="M350.34 136.899V133.898H347.339V136.899H350.34Z" fill="#0F1576"/>
<path d="M350.34 145.9L350.34 133.898L353.341 133.898L353.341 145.9L350.34 145.9Z" fill="#080B3E"/>
<path d="M332.337 227.166V215.164H329.336V227.166H332.337Z" fill="#080B3E"/>
<path d="M329.337 148.898V136.896H326.336V148.898H329.337Z" fill="#080B3E"/>
<path d="M329.337 139.897V136.896H326.336V139.897H329.337Z" fill="#454EE7"/>
<path d="M332.337 136.899V133.898H329.336V136.899H332.337Z" fill="#454EE7"/>
<path d="M335.339 136.899V133.898H332.338V136.899H335.339Z" fill="#777EED"/>
<path d="M329.337 142.896V139.895H326.336V142.896H329.337Z" fill="#454EE7"/>
<path d="M353.342 148.898L353.342 136.896L356.343 136.896L356.343 148.898L353.342 148.898Z" fill="#080B3E"/>
<path d="M329.337 230.166V218.164H326.336V230.166H329.337Z" fill="#080B3E"/>
<path d="M326.336 236.164V224.162H323.335V236.164H326.336Z" fill="#080B3E"/>
<path d="M362.343 236.164V224.162H359.342V236.164H362.343Z" fill="#080B3E"/>
<path d="M323.336 236.164V224.162H320.335V236.164H323.336Z" fill="#080B3E"/>
<path d="M323.336 236.164V224.162H320.335V236.164H323.336Z" fill="#D0E2F4"/>
<path d="M326.336 227.163V224.162H323.335V227.163H326.336Z" fill="#D0E2F4"/>
<path d="M329.337 221.165V218.164H326.336V221.165H329.337Z" fill="#D0E2F4"/>
<path d="M332.337 218.165V215.164H329.336V218.165H332.337Z" fill="#D0E2F4"/>
<path d="M359.343 236.164V224.162H356.342V236.164H359.343Z" fill="#080B3E"/>
<path d="M350.34 227.166L350.34 215.164L353.341 215.164L353.341 227.166L350.34 227.166Z" fill="#080B3E"/>
<path d="M353.342 230.166L353.342 218.164L356.343 218.164L356.343 230.166L353.342 230.166Z" fill="#080B3E"/>
<path d="M344.339 105.141H341.338V108.142H344.339V105.141Z" fill="#D0E2F4"/>
<path d="M350.342 114.143H347.341V133.897H350.342V114.143Z" fill="#454EE7"/>
<path d="M15.255 214.314H12.8123V238.741H15.255V214.314Z" fill="#777EED"/>
<path d="M12.8109 238.746H10.3682V248.72H12.8109V238.746Z" fill="#777EED"/>
<path d="M22.5826 209.637H20.1399V216.965H22.5826V209.637Z" fill="#777EED"/>
<path d="M15.255 248.721H12.8123V251.164H15.255V248.721Z" fill="#777EED"/>
<path d="M13.2034 235.988H10.179V239.012H13.2034V235.988Z" fill="#777EED"/>
<path d="M15.2275 238.012H12.2031V241.036H15.2275V238.012Z" fill="#777EED"/>
<path d="M10.369 248.721H5.28003V251.164H10.369V248.721Z" fill="#777EED"/>
<path d="M10.369 253.602H5.28003V256.045H10.369V253.602Z" fill="#777EED"/>
<path d="M5.28013 251.162H2.8374V253.605H5.28013V251.162Z" fill="#777EED"/>
<path d="M0.853307 254.387H-2.17114V257.411H0.853307V254.387Z" fill="#777EED"/>
<path d="M17.6976 209.637H15.2549V214.319H17.6976V209.637Z" fill="#777EED"/>
<path d="M20.1387 203.734H17.696V209.637H20.1387V203.734Z" fill="#777EED"/>
<path d="M22.5826 193.961H20.1399V203.732H22.5826V193.961Z" fill="#777EED"/>
<path d="M287.988 316.897V319.897H280.553V322.898L252.392 322.903V325.911H246.709V328.911H240.909V331.912H228.927V334.915H225.955V337.915H216.921V340.916H213.948V344.155V346.906H200.276V349.907L171.583 349.912V352.934H165.9V355.935H158.465L158.451 358.185H148.104L148.119 361.174H142.435V364.174H136.78V367.129H165.91V371.163L93.5211 370.88V373.878L73.2671 374.16V377.131H93.5211V380.132H108.524V382.899H472.887L472.884 340.916H553.696L553.693 313.658H294.413V316.897H287.988Z" fill="#19193E"/>
<path d="M222.913 349.156H219.912V352.157H222.913V349.156Z" fill="#00D8C9"/>
<path d="M216.912 349.156H213.911V352.157H216.912V349.156Z" fill="#07FFEE"/>
<path d="M219.913 346.158H216.912V349.159H219.913V346.158Z" fill="#07FFEE"/>
<path d="M219.913 352.158H216.912V355.159H219.913V352.158Z" fill="#00D8C9"/>
<path d="M213.91 352.158H210.909V355.159H213.91V352.158Z" fill="#07FFEE"/>
<path d="M210.911 355.16H207.91V358.161H210.911V355.16Z" fill="#00D8C9"/>
<path d="M204.907 355.16H201.906V358.161H204.907V355.16Z" fill="#00D8C9"/>
<path d="M198.908 355.16H195.907V358.161H198.908V355.16Z" fill="#00D8C9"/>
<path d="M207.909 352.158H204.908V355.159H207.909V352.158Z" fill="#07FFEE"/>
<path d="M201.908 352.158H198.907V355.159H201.908V352.158Z" fill="#07FFEE"/>
<path d="M192.905 352.158H189.904V355.159H192.905V352.158Z" fill="#07FFEE"/>
<path d="M195.907 352.158H192.906V355.159H195.907V352.158Z" fill="#07FFEE"/>
<path d="M189.905 352.158H186.904V355.159H189.905V352.158Z" fill="#07FFEE"/>
<path d="M183.902 352.158H180.901V355.159H183.902V352.158Z" fill="#07FFEE"/>
<path d="M180.902 355.16H177.901V358.161H180.902V355.16Z" fill="#00D8C9"/>
<path d="M186.903 355.188H183.902V358.189H186.903V355.188Z" fill="#00D8C9"/>
<path d="M228.917 349.156H225.916V352.157H228.917V349.156Z" fill="#00D8C9"/>
<path d="M231.918 352.158H228.917V355.159H231.918V352.158Z" fill="#00D8C9"/>
<path d="M228.917 355.16H225.916V358.161H228.917V355.16Z" fill="#00D8C9"/>
<path d="M225.917 358.16H222.916V361.161H225.917V358.16Z" fill="#00D8C9"/>
<path d="M222.916 361.162H219.915V364.163H222.916V361.162Z" fill="#00D8C9"/>
<path d="M219.916 364.16H216.915V367.161H219.916V364.16Z" fill="#00D8C9"/>
<path d="M207.812 364.16H204.811V367.161H207.812V364.16Z" fill="#5CFFF4"/>
<path d="M204.81 367.16H201.809V370.161H204.81V367.16Z" fill="#5CFFF4"/>
<path d="M210.813 364.16H207.812V367.161H210.813V364.16Z" fill="#5CFFF4"/>
<path d="M225.917 355.16H222.916V358.161H225.917V355.16Z" fill="#5CFFF4"/>
<path d="M222.916 355.16H219.915V358.161H222.916V355.16Z" fill="#5CFFF4"/>
<path d="M222.916 352.158H219.915V355.159H222.916V352.158Z" fill="#5CFFF4"/>
<path d="M225.917 352.158H222.916V355.159H225.917V352.158Z" fill="#5CFFF4"/>
<path d="M219.916 355.16H213.908V358.161H219.916V355.16Z" fill="#5CFFF4"/>
<path d="M222.916 349.156H219.915V352.157H222.916V349.156Z" fill="#5CFFF4"/>
<path d="M225.917 349.156H222.916V352.157H225.917V349.156Z" fill="#5CFFF4"/>
<path d="M228.916 346.158H225.915V349.159H228.916V346.158Z" fill="#5CFFF4"/>
<path d="M228.917 361.162H225.916V364.163H228.917V361.162Z" fill="#00D8C9"/>
<path d="M225.913 346.158H222.912V349.159H225.913V346.158Z" fill="#5CFFF4"/>
<path d="M228.916 343.156H225.915V346.157H228.916V343.156Z" fill="#5CFFF4"/>
<path d="M222.913 343.156H219.912V346.157H222.913V343.156Z" fill="#07FFEE"/>
<path d="M219.913 343.156H216.912V346.157H219.913V343.156Z" fill="#07FFEE"/>
<path d="M216.912 343.156H213.911V346.157H216.912V343.156Z" fill="#5CFFF4"/>
<path d="M216.912 340.156H213.911V343.157H216.912V340.156Z" fill="#5CFFF4"/>
<path d="M216.912 340.156H219.912V343.157H216.912V340.156Z" fill="#5CFFF4"/>
<path d="M222.913 337.154H216.912V340.155H222.913V337.154Z" fill="#5CFFF4"/>
<path d="M216.911 346.158H198.907V349.159H216.911V346.158Z" fill="#5CFFF4"/>
<path d="M222.917 358.16H210.812V361.161H222.917V358.16Z" fill="#5CFFF4"/>
<path d="M219.915 361.162H207.81V364.163H219.915V361.162Z" fill="#5CFFF4"/>
<path d="M213.911 349.156H174.901V352.157H213.911V349.156Z" fill="#5CFFF4"/>
<path d="M222.913 340.156H219.912V343.157H222.913V340.156Z" fill="#07FFEE"/>
<path d="M225.913 337.154H222.912V340.155H225.913V337.154Z" fill="#5CFFF4"/>
<path d="M228.916 334.152H225.915V337.153H228.916V334.152Z" fill="#5CFFF4"/>
<path d="M237.917 331.154H228.915V334.155H237.917V331.154Z" fill="#5CFFF4"/>
<path d="M231.916 340.156H228.915V343.157H231.916V340.156Z" fill="#00D8C9"/>
<path d="M234.915 337.154H231.914V340.155H234.915V337.154Z" fill="#00D8C9"/>
<path d="M237.917 334.152H234.916V337.153H237.917V334.152Z" fill="#00D8C9"/>
<path d="M240.917 331.154H237.916V334.155H240.917V331.154Z" fill="#00D8C9"/>
<path d="M225.913 340.156H222.912V343.157H225.913V340.156Z" fill="#00D8C9"/>
<path d="M228.916 337.154H225.915V340.155H228.916V337.154Z" fill="#5CFFF4"/>
<path d="M231.916 334.152H228.915V337.153H231.916V334.152Z" fill="#5CFFF4"/>
<path d="M159.898 364.131H156.897V367.132H159.898V364.131Z" fill="#0C115D"/>
<path d="M165.899 364.131H162.898V367.132H165.899V364.131Z" fill="#00D8C9"/>
<path d="M162.899 364.131H159.898V367.132H162.899V364.131Z" fill="#00D8C9"/>
<path d="M168.899 361.129H165.898V364.13H168.899V361.129Z" fill="#00D8C9"/>
<path d="M171.9 364.131H168.899V367.132H171.9V364.131Z" fill="#00D8C9"/>
<path d="M162.899 361.129H159.898V364.13H162.899V361.129Z" fill="#07FFEE"/>
<path d="M159.898 361.129H156.897V364.13H159.898V361.129Z" fill="#5CFFF4"/>
<path d="M156.898 361.129H153.897V364.13H156.898V361.129Z" fill="#5CFFF4"/>
<path d="M156.898 358.129H153.897V361.13H156.898V358.129Z" fill="#5CFFF4"/>
<path d="M159.898 358.129H156.897V361.13H159.898V358.129Z" fill="#5CFFF4"/>
<path d="M163.035 355.127H156.784V358.128H163.035V355.127Z" fill="#5CFFF4"/>
<path d="M154.28 358.129H148.105V361.117H154.28V358.129Z" fill="#5CFFF4"/>
<path d="M148.106 361.129H142.438V364.117H148.106V361.129Z" fill="#5CFFF4"/>
<path d="M142.531 364.111H136.78V367.112H142.531V364.111Z" fill="#5CFFF4"/>
<path d="M137.279 370.883H93.5205V373.884H137.279V370.883Z" fill="#5CFFF4"/>
<path d="M162.899 358.129H159.898V361.13H162.899V358.129Z" fill="#5CFFF4"/>
<path d="M165.899 355.127H162.898V358.128H165.899V355.127Z" fill="#5CFFF4"/>
<path d="M168.899 352.125H165.898V355.126H168.899V352.125Z" fill="#5CFFF4"/>
<path d="M171.9 349.127H168.899V352.128H171.9V349.127Z" fill="#5CFFF4"/>
<path d="M171.9 358.129H168.899V361.13H171.9V358.129Z" fill="#00D8C9"/>
<path d="M174.902 361.129H171.901V364.13H174.902V361.129Z" fill="#00D8C9"/>
<path d="M174.902 355.127H171.901V358.128H174.902V355.127Z" fill="#00D8C9"/>
<path d="M177.902 358.129H174.901V361.13H177.902V358.129Z" fill="#00D8C9"/>
<path d="M177.902 352.125H174.901V355.126H177.902V352.125Z" fill="#00D8C9"/>
<path d="M174.902 352.125H171.901V355.126H174.902V352.125Z" fill="#00D8C9"/>
<path d="M171.9 355.127H168.899V358.128H171.9V355.127Z" fill="#00D8C9"/>
<path d="M168.899 358.129H165.898V361.13H168.899V358.129Z" fill="#00D8C9"/>
<path d="M165.899 361.129H162.898V364.13H165.899V361.129Z" fill="#00D8C9"/>
<path d="M165.899 358.129H162.898V361.13H165.899V358.129Z" fill="#07FFEE"/>
<path d="M168.899 355.127H165.898V358.128H168.899V355.127Z" fill="#07FFEE"/>
<path d="M171.9 352.125H168.899V355.126H171.9V352.125Z" fill="#07FFEE"/>
<path d="M174.902 349.127H171.901V352.128H174.902V349.127Z" fill="#5CFFF4"/>
<path d="M406.353 274.361H400.55V277.418H388.561V283.535H376.548V286.364H373.573V289.552V292.394H359.572V295.412L331.185 295.418L331.171 298.776H325.484V301.776H318.55V304.777H307.692L307.647 307.779H303.552L303.59 310.756H294.559V313.757H406.331L406.353 274.361Z" fill="#19193E"/>
<path d="M300.407 322.156H297.406V325.157H300.407V322.156Z" fill="#00D8C9"/>
<path d="M294.406 322.156H291.405V325.157H294.406V322.156Z" fill="#5CFFF4"/>
<path d="M297.406 319.158H294.405V322.159H297.406V319.158Z" fill="#5CFFF4"/>
<path d="M297.406 325.158H294.405V328.159H297.406V325.158Z" fill="#00D8C9"/>
<path d="M291.404 325.158H288.403V328.159H291.404V325.158Z" fill="#5CFFF4"/>
<path d="M288.405 328.16H285.404V331.161H288.405V328.16Z" fill="#00D8C9"/>
<path d="M282.401 328.16H279.4V331.161H282.401V328.16Z" fill="#00D8C9"/>
<path d="M276.401 328.16H273.4V331.161H276.401V328.16Z" fill="#00D8C9"/>
<path d="M285.403 325.158H282.402V328.159H285.403V325.158Z" fill="#5CFFF4"/>
<path d="M279.402 325.158H276.401V328.159H279.402V325.158Z" fill="#5CFFF4"/>
<path d="M270.399 325.158H267.398V328.159H270.399V325.158Z" fill="#5CFFF4"/>
<path d="M273.401 325.158H270.4V328.159H273.401V325.158Z" fill="#5CFFF4"/>
<path d="M267.398 325.158H261.396V328.159H267.398V325.158Z" fill="#5CFFF4"/>
<path d="M261.396 325.158H258.395V328.159H261.396V325.158Z" fill="#5CFFF4"/>
<path d="M258.396 328.16H255.395V331.161H258.396V328.16Z" fill="#00D8C9"/>
<path d="M264.397 328.16H261.396V331.161H264.397V328.16Z" fill="#00D8C9"/>
<path d="M270.401 328.16H267.4V331.161H270.401V328.16Z" fill="#00D8C9"/>
<path d="M306.411 322.156H303.41V325.157H306.411V322.156Z" fill="#00D8C9"/>
<path d="M309.411 325.158H306.41V328.159H309.411V325.158Z" fill="#00D8C9"/>
<path d="M306.411 328.16H303.41V331.161H306.411V328.16Z" fill="#00D8C9"/>
<path d="M303.41 331.16H300.409V334.161H303.41V331.16Z" fill="#00D8C9"/>
<path d="M300.41 334.162H297.409V337.163H300.41V334.162Z" fill="#00D8C9"/>
<path d="M297.409 337.16H294.408V340.161H297.409V337.16Z" fill="#00D8C9"/>
<path d="M285.306 337.16H282.305V340.161H285.306V337.16Z" fill="#5CFFF4"/>
<path d="M282.304 340.16H279.303V343.161H282.304V340.16Z" fill="#5CFFF4"/>
<path d="M288.306 337.16H285.305V340.161H288.306V337.16Z" fill="#5CFFF4"/>
<path d="M303.41 328.16H300.409V331.161H303.41V328.16Z" fill="#5CFFF4"/>
<path d="M300.41 328.16H297.409V331.161H300.41V328.16Z" fill="#5CFFF4"/>
<path d="M300.41 325.158H297.409V328.159H300.41V325.158Z" fill="#5CFFF4"/>
<path d="M303.41 325.158H300.409V328.159H303.41V325.158Z" fill="#5CFFF4"/>
<path d="M297.411 328.16H291.403V331.161H297.411V328.16Z" fill="#5CFFF4"/>
<path d="M300.41 322.156H297.409V325.157H300.41V322.156Z" fill="#5CFFF4"/>
<path d="M303.41 322.156H300.409V325.157H303.41V322.156Z" fill="#5CFFF4"/>
<path d="M306.409 319.158H303.408V322.159H306.409V319.158Z" fill="#5CFFF4"/>
<path d="M303.312 334.127H306.313V337.128H303.312V334.127Z" fill="#00D8C9"/>
<path d="M303.407 319.158H300.406V322.159H303.407V319.158Z" fill="#5CFFF4"/>
<path d="M306.409 316.156H303.408V319.157H306.409V316.156Z" fill="#5CFFF4"/>
<path d="M300.407 316.156H297.406V319.157H300.407V316.156Z" fill="#5CFFF4"/>
<path d="M297.406 316.156H294.405V319.157H297.406V316.156Z" fill="#5CFFF4"/>
<path d="M294.405 316.156H288.024V319.157H294.405V316.156Z" fill="#5CFFF4"/>
<path d="M294.406 313.156H291.405V316.157H294.406V313.156Z" fill="#5CFFF4"/>
<path d="M294.405 313.156H297.406V316.157H294.405V313.156Z" fill="#5CFFF4"/>
<path d="M294.405 319.158H276.401V322.159H294.405V319.158Z" fill="#5CFFF4"/>
<path d="M300.411 331.16H288.306V334.161H300.411V331.16Z" fill="#5CFFF4"/>
<path d="M297.408 334.162H285.303V337.163H297.408V334.162Z" fill="#5CFFF4"/>
<path d="M291.404 322.156H252.394V325.157H291.404V322.156Z" fill="#5CFFF4"/>
<path d="M300.407 313.156H297.406V316.157H300.407V313.156Z" fill="#5CFFF4"/>
<path d="M303.408 310.154H294.438V313.155H303.408V310.154Z" fill="#5CFFF4"/>
<path d="M306.409 307.152H303.408V310.153H306.409V307.152Z" fill="#5CFFF4"/>
<path d="M315.411 304.154H306.409V307.155H315.411V304.154Z" fill="#5CFFF4"/>
<path d="M309.41 313.156H306.409V316.157H309.41V313.156Z" fill="#00D8C9"/>
<path d="M312.408 310.154H309.407V313.155H312.408V310.154Z" fill="#00D8C9"/>
<path d="M315.41 307.152H312.409V310.153H315.41V307.152Z" fill="#00D8C9"/>
<path d="M318.411 304.154H315.41V307.155H318.411V304.154Z" fill="#00D8C9"/>
<path d="M303.407 313.156H300.406V316.157H303.407V313.156Z" fill="#00D8C9"/>
<path d="M306.409 310.154H303.408V313.155H306.409V310.154Z" fill="#5CFFF4"/>
<path d="M309.41 307.152H306.409V310.153H309.41V307.152Z" fill="#5CFFF4"/>
<path d="M367.325 355.119H364.324V358.12H367.325V355.119Z" fill="#00D8C9"/>
<path d="M364.325 355.119H361.324V358.12H364.325V355.119Z" fill="#00D8C9"/>
<path d="M370.324 352.121H367.323V355.122H370.324V352.121Z" fill="#00D8C9"/>
<path d="M373.326 355.119H370.325V358.12H373.326V355.119Z" fill="#00D8C9"/>
<path d="M361.324 352.121H355.323V355.122H361.324V352.121Z" fill="#5CFFF4"/>
<path d="M364.325 346.119H355.323V349.12H364.325V346.119Z" fill="#5CFFF4"/>
<path d="M355.322 349.119H349.321V352.12H355.322V349.119Z" fill="#5CFFF4"/>
<path d="M340.318 349.119H334.317V352.12H340.318V349.119Z" fill="#5CFFF4"/>
<path d="M312.313 337.117H306.312V340.118H312.313V337.117Z" fill="#5CFFF4"/>
<path d="M340.319 343.117H312.313V346.118H340.319V343.117Z" fill="#5CFFF4"/>
<path d="M349.321 352.121H343.32V355.122H349.321V352.121Z" fill="#5CFFF4"/>
<path d="M343.32 355.119H337.319V358.12H343.32V355.119Z" fill="#5CFFF4"/>
<path d="M364.325 349.119H355.323V352.12H364.325V349.119Z" fill="#5CFFF4"/>
<path d="M370.324 343.117H367.323V346.118H370.324V343.117Z" fill="#5CFFF4"/>
<path d="M367.325 343.117H364.324V346.118H367.325V343.117Z" fill="#5CFFF4"/>
<path d="M373.326 340.115H370.325V343.116H373.326V340.115Z" fill="#5CFFF4"/>
<path d="M373.326 349.119H370.325V352.12H373.326V349.119Z" fill="#00D8C9"/>
<path d="M376.327 352.121H373.326V355.122H376.327V352.121Z" fill="#00D8C9"/>
<path d="M376.327 346.119H373.326V349.12H376.327V346.119Z" fill="#00D8C9"/>
<path d="M376.327 343.117H373.326V346.118H376.327V343.117Z" fill="#00D8C9"/>
<path d="M373.326 346.119H370.325V349.12H373.326V346.119Z" fill="#00D8C9"/>
<path d="M370.324 349.119H367.323V352.12H370.324V349.119Z" fill="#00D8C9"/>
<path d="M367.325 352.121H364.324V355.122H367.325V352.121Z" fill="#00D8C9"/>
<path d="M367.325 349.119H364.324V352.12H367.325V349.119Z" fill="#07FFEE"/>
<path d="M364.325 352.121H361.324V355.122H364.325V352.121Z" fill="#07FFEE"/>
<path d="M334.319 346.119H331.318V349.12H334.319V346.119Z" fill="#07FFEE"/>
<path d="M306.313 340.115H303.312V343.116H306.313V340.115Z" fill="#07FFEE"/>
<path d="M361.323 355.119H358.322V358.12H361.323V355.119Z" fill="#07FFEE"/>
<path d="M331.319 349.119H328.318V352.12H331.319V349.119Z" fill="#07FFEE"/>
<path d="M303.313 343.117H300.312V346.118H303.313V343.117Z" fill="#07FFEE"/>
<path d="M370.324 346.119H367.323V349.12H370.324V346.119Z" fill="#07FFEE"/>
<path d="M367.325 346.119H364.324V349.12H367.325V346.119Z" fill="#07FFEE"/>
<path d="M373.326 343.117H370.325V346.118H373.326V343.117Z" fill="#07FFEE"/>
<path d="M376.327 340.115H373.326V343.116H376.327V340.115Z" fill="#5CFFF4"/>
<path d="M377.576 310.367H374.575V313.368H377.576V310.367Z" fill="#00D8C9"/>
<path d="M374.577 310.367H371.576V313.368H374.577V310.367Z" fill="#00D8C9"/>
<path d="M371.574 307.369H365.573V310.37H371.574V307.369Z" fill="#5CFFF4"/>
<path d="M374.575 301.367H365.573V304.368H374.575V301.367Z" fill="#5CFFF4"/>
<path d="M359.573 295.363H344.57V298.364H359.573V295.363Z" fill="#5CFFF4"/>
<path d="M368.576 298.365H359.574V301.366H368.576V298.365Z" fill="#5CFFF4"/>
<path d="M374.575 304.367H365.573V307.368H374.575V304.367Z" fill="#5CFFF4"/>
<path d="M377.576 298.365H374.575V301.366H377.576V298.365Z" fill="#5CFFF4"/>
<path d="M377.576 307.369H374.575V310.37H377.576V307.369Z" fill="#00D8C9"/>
<path d="M377.576 304.367H374.575V307.368H377.576V304.367Z" fill="#07FFEE"/>
<path d="M374.577 307.369H371.576V310.37H374.577V307.369Z" fill="#07FFEE"/>
<path d="M371.576 310.367H368.575V313.368H371.576V310.367Z" fill="#07FFEE"/>
<path d="M377.576 301.367H374.575V304.368H377.576V301.367Z" fill="#07FFEE"/>
<path d="M245.3 377.135H239.299V380.136H245.3V377.135Z" fill="#5CFFF4"/>
<path d="M248.302 374.133H242.301V377.134H248.302V374.133Z" fill="#5CFFF4"/>
<path d="M251.303 371.131H248.302V374.132H251.303V371.131Z" fill="#5CFFF4"/>
<path d="M254.303 371.131H251.302V374.132H254.303V371.131Z" fill="#5CFFF4"/>
<path d="M248.302 380.137H245.301V383.138H248.302V380.137Z" fill="#07FFEE"/>
<path d="M251.303 377.135H248.302V380.136H251.303V377.135Z" fill="#07FFEE"/>
<path d="M254.303 374.133H251.302V377.134H254.303V374.133Z" fill="#07FFEE"/>
<path d="M257.303 371.131H254.302V374.132H257.303V371.131Z" fill="#07FFEE"/>
<path d="M260.304 368.131H257.303V371.132H260.304V368.131Z" fill="#07FFEE"/>
<path d="M260.304 371.131H257.303V374.132H260.304V371.131Z" fill="#00D8C9"/>
<path d="M269.305 362.131H266.304V365.132H269.305V362.131Z" fill="#00D8C9"/>
<path d="M263.306 371.131H260.305V374.132H263.306V371.131Z" fill="#00D8C9"/>
<path d="M272.307 362.131H269.306V365.132H272.307V362.131Z" fill="#00D8C9"/>
<path d="M275.308 365.133H272.307V368.134H275.308V365.133Z" fill="#00D8C9"/>
<path d="M263.306 368.131H260.305V371.132H263.306V368.131Z" fill="#00D8C9"/>
<path d="M266.305 365.133H263.304V368.134H266.305V365.133Z" fill="#00D8C9"/>
<path d="M275.308 359.131H272.307V362.132H275.308V359.131Z" fill="#00D8C9"/>
<path d="M263.306 365.133H260.305V368.134H263.306V365.133Z" fill="#07FFEE"/>
<path d="M260.304 362.131H257.303V365.132H260.304V362.131Z" fill="#07FFEE"/>
<path d="M263.306 359.131H260.305V362.132H263.306V359.131Z" fill="#07FFEE"/>
<path d="M266.305 362.131H263.304V365.132H266.305V362.131Z" fill="#07FFEE"/>
<path d="M266.305 353.127H263.304V356.128H266.305V353.127Z" fill="#5CFFF4"/>
<path d="M269.305 353.127H266.304V356.128H269.305V353.127Z" fill="#07FFEE"/>
<path d="M269.305 356.129H266.304V359.13H269.305V356.129Z" fill="#07FFEE"/>
<path d="M266.305 356.129H263.304V359.13H266.305V356.129Z" fill="#07FFEE"/>
<path d="M272.307 359.131H269.306V362.132H272.307V359.131Z" fill="#07FFEE"/>
<path d="M254.303 368.131H251.302V371.132H254.303V368.131Z" fill="#5CFFF4"/>
<path d="M257.303 365.133H254.302V368.134H257.303V365.133Z" fill="#5CFFF4"/>
<path d="M260.304 359.131H257.303V362.132H260.304V359.131Z" fill="#5CFFF4"/>
<path d="M263.306 353.127H260.305V359.128H263.306V353.127Z" fill="#5CFFF4"/>
<path d="M275.306 350.129H263.304V353.13H275.306V350.129Z" fill="#5CFFF4"/>
<path d="M278.306 347.127H275.305V350.128H278.306V347.127Z" fill="#5CFFF4"/>
<path d="M275.308 347.127H272.307V350.128H275.308V347.127Z" fill="#5CFFF4"/>
<path d="M281.308 344.127H278.307V347.128H281.308V344.127Z" fill="#5CFFF4"/>
<path d="M284.309 341.125H281.308V344.126H284.309V341.125Z" fill="#5CFFF4"/>
<path d="M287.309 338.123H284.308V341.124H287.309V338.123Z" fill="#5CFFF4"/>
<path d="M290.31 335.125H287.309V338.126H290.31V335.125Z" fill="#5CFFF4"/>
<path d="M193.998 18.0684H197.858V21.928H193.998V18.0684Z" fill="#FD9CFF"/>
<path d="M346.86 29H343V32.8596H346.86V29Z" fill="white"/>
<path d="M91.5554 43.5527H87.6958V47.4123H91.5554V43.5527Z" fill="#00FFEE"/>
<path d="M106.679 47.4082H102.819V51.2678H106.679V47.4082Z" fill="white"/>
</g>
<path d="M197.783 260.801H203.784V263.801H206.785V266.802H209.785V272.803H212.786V278.804H224.788V281.805H227.789V311.561H224.788V317.562H221.788V320.563H218.787V326.564H212.786V332.565H209.785V354.569H194.782V338.566H191.782V320.563H188.781V297.058H185.781V288.056H191.782V266.802H194.782V263.801H197.783V260.801Z" fill="#0C115D"/>
<path d="M206.784 260.801H203.783V263.802H206.784V260.801Z" fill="#080B3E"/>
<path d="M197.783 302.559H194.782V317.562H197.783V302.559Z" fill="#080B3E"/>
<path d="M218.787 281.805H215.786V290.807H218.787V281.805Z" fill="#080B3E"/>
<path d="M209.786 275.805H206.785V284.807H209.786V275.805Z" fill="#080B3E"/>
<path d="M194.782 281.805H191.781V294.057H194.782V281.805Z" fill="#171FAF"/>
<path d="M194.782 297.057H191.781V317.311H194.782V297.057Z" fill="#171FAF"/>
<path d="M194.782 320.561H191.781V332.563H194.782V320.561Z" fill="#171FAF"/>
<path d="M197.783 338.566H194.782V354.569H197.783V338.566Z" fill="#171FAF"/>
<path d="M194.782 266.801H191.781V269.802H194.782V266.801Z" fill="#171FAF"/>
<path d="M197.783 263.799H194.782V266.8H197.783V263.799Z" fill="#171FAF"/>
<path d="M200.783 260.801H197.782V263.802H200.783V260.801Z" fill="#171FAF"/>
<path d="M218.787 296.807H215.786V317.561H218.787V296.807Z" fill="#080B3E"/>
<path d="M215.787 317.561H212.786V326.563H215.787V317.561Z" fill="#010323"/>
<path d="M209.786 326.564H206.785V329.565H209.786V326.564Z" fill="#010323"/>
<path d="M206.784 329.562H203.783V332.563H206.784V329.562Z" fill="#010323"/>
<path d="M206.784 338.566H203.783V341.567H206.784V338.566Z" fill="#010323"/>
<path d="M206.784 341.568H203.783V344.569H206.784V341.568Z" fill="#010323"/>
<path d="M209.786 332.566H206.785V354.57H209.786V332.566Z" fill="#010323"/>
<path d="M212.787 344.568H209.786V354.57H212.787V344.568Z" fill="#010323"/>
<path d="M203.785 317.561H200.784V320.562H203.785V317.561Z" fill="#D0E2F4"/>
<path d="M203.785 293.559H200.784V302.561H203.785V293.559Z" fill="#D0E2F4"/>
<path d="M224.788 278.803H221.787V281.804H224.788V278.803Z" fill="#D0E2F4"/>
<path d="M209.786 284.807H206.785V287.808H209.786V284.807Z" fill="#D0E2F4"/>
<path d="M221.788 278.803H218.787V281.804H221.788V278.803Z" fill="#D0E2F4"/>
<path d="M206.784 281.805H203.783V284.806H206.784V281.805Z" fill="#D0E2F4"/>
<path d="M227.79 281.805H224.789V284.806H227.79V281.805Z" fill="#D0E2F4"/>
<path d="M194.782 294.057H191.781V297.058H194.782V294.057Z" fill="#D0E2F4"/>
<path d="M206.784 314.562H203.783V317.563H206.784V314.562Z" fill="#D0E2F4"/>
<path d="M206.784 302.559H203.783V314.561H206.784V302.559Z" fill="#D0E2F4"/>
<path d="M191.782 297.057H188.781V320.562H191.782V297.057Z" fill="#D0E2F4"/>
<path d="M191.782 291.057H188.781V294.058H191.782V291.057Z" fill="#080B3E"/>
<path d="M191.782 294.057H188.781V297.058H191.782V294.057Z" fill="#080B3E"/>
<path d="M218.787 317.561H215.786V326.563H218.787V317.561Z" fill="#010323"/>
<path d="M206.784 320.561H203.783V323.562H206.784V320.561Z" fill="#D0E2F4"/>
<path d="M203.785 323.564H200.784V326.565H203.785V323.564Z" fill="#FEDBFF"/>
<path d="M203.785 326.564H200.784V329.565H203.785V326.564Z" fill="#FEDBFF"/>
<path d="M194.782 332.566H191.781V338.567H194.782V332.566Z" fill="#D0E2F4"/>
<path d="M209.786 323.564H206.785V326.565H209.786V323.564Z" fill="#D0E2F4"/>
<path d="M212.787 323.564H209.786V326.565H212.787V323.564Z" fill="#D0E2F4"/>
<path d="M221.788 314.562H218.787V320.563H221.788V314.562Z" fill="#010323"/>
<path d="M221.788 311.559H218.787V314.56H221.788V311.559Z" fill="#010323"/>
<path d="M221.788 308.562H218.787V311.563H221.788V308.562Z" fill="#010323"/>
<path d="M221.788 305.561H218.787V308.562H221.788V305.561Z" fill="#010323"/>
<path d="M221.788 302.559H218.787V305.56H221.788V302.559Z" fill="#010323"/>
<path d="M221.788 299.559H218.787V302.56H221.788V299.559Z" fill="#010323"/>
<path d="M221.788 296.557H218.787V299.558H221.788V296.557Z" fill="#010323"/>
<path d="M221.788 293.807H218.787V296.808H221.788V293.807Z" fill="#010323"/>
<path d="M218.787 290.809H215.786V296.81H218.787V290.809Z" fill="#010323"/>
<path d="M200.783 299.559H197.782V317.562H200.783V299.559Z" fill="#010323"/>
<path d="M215.787 290.809H212.786V293.81H215.787V290.809Z" fill="#010323"/>
<path d="M197.783 317.561H194.782V320.562H197.783V317.561Z" fill="#010323"/>
<path d="M194.782 317.561H191.781V320.562H194.782V317.561Z" fill="#010323"/>
<path d="M203.785 278.803H200.784V281.804H203.785V278.803Z" fill="#010323"/>
<path d="M206.784 275.805H203.783V278.806H206.784V275.805Z" fill="#010323"/>
<path d="M206.784 272.803H203.783V275.804H206.784V272.803Z" fill="#010323"/>
<path d="M209.786 272.803H206.785V275.804H209.786V272.803Z" fill="#010323"/>
<path d="M209.786 269.803H206.785V272.804H209.786V269.803Z" fill="#010323"/>
<path d="M209.786 266.801H206.785V269.802H209.786V266.801Z" fill="#010323"/>
<path d="M206.784 266.801H203.783V269.802H206.784V266.801Z" fill="#010323"/>
<path d="M206.784 263.799H203.783V266.8H206.784V263.799Z" fill="#010323"/>
<path d="M212.787 275.805H209.786V278.806H212.787V275.805Z" fill="#010323"/>
<path d="M212.787 272.803H209.786V275.804H212.787V272.803Z" fill="#010323"/>
<path d="M206.784 269.803H203.783V272.804H206.784V269.803Z" fill="#010323"/>
<path d="M203.785 266.801H200.784V269.802H203.785V266.801Z" fill="#010323"/>
<path d="M221.788 290.809H218.787V293.81H221.788V290.809Z" fill="#010323"/>
<path d="M221.788 287.807H218.787V290.808H221.788V287.807Z" fill="#010323"/>
<path d="M221.788 284.807H218.787V287.808H221.788V284.807Z" fill="#010323"/>
<path d="M221.788 281.805H218.787V284.806H221.788V281.805Z" fill="#010323"/>
<path d="M218.787 278.803H215.786V281.804H218.787V278.803Z" fill="#010323"/>
<path d="M194.782 269.803H191.781V272.804H194.782V269.803Z" fill="#FEDBFF"/>
<path d="M197.783 269.803H194.782V272.804H197.783V269.803Z" fill="white"/>
<path d="M200.783 269.803H197.782V272.804H200.783V269.803Z" fill="white"/>
<path d="M203.785 269.803H200.784V272.804H203.785V269.803Z" fill="#010323"/>
<path d="M194.782 272.803H191.781V275.804H194.782V272.803Z" fill="white"/>
<path d="M191.782 272.803H188.781V275.804H191.782V272.803Z" fill="#FEDBFF"/>
<path d="M197.783 272.803H194.782V275.804H197.783V272.803Z" fill="white"/>
<path d="M200.783 272.803H197.782V275.804H200.783V272.803Z" fill="white"/>
<path d="M203.785 272.803H200.784V275.804H203.785V272.803Z" fill="#D0E2F4"/>
<path d="M194.782 275.805H191.781V278.806H194.782V275.805Z" fill="white"/>
<path d="M191.782 275.805H188.781V278.806H191.782V275.805Z" fill="#FEDBFF"/>
<path d="M188.782 288.055H185.781V291.056H188.782V288.055Z" fill="#D0E2F4"/>
<path d="M191.782 288.055H188.781V291.056H191.782V288.055Z" fill="#D0E2F4"/>
<path d="M194.782 263.799H191.781V266.8H194.782V263.799Z" fill="#D0E2F4"/>
<path d="M197.783 260.801H194.782V263.802H197.783V260.801Z" fill="#D0E2F4"/>
<path d="M188.782 291.057H185.781V294.058H188.782V291.057Z" fill="#D0E2F4"/>
<path d="M197.783 275.805H194.782V278.806H197.783V275.805Z" fill="white"/>
<path d="M200.783 275.805H197.782V278.806H200.783V275.805Z" fill="white"/>
<path d="M194.782 278.803H191.781V281.804H194.782V278.803Z" fill="white"/>
<path d="M197.783 278.803H194.782V281.804H197.783V278.803Z" fill="white"/>
<path d="M200.783 278.803H197.782V281.804H200.783V278.803Z" fill="#D0E2F4"/>
<path d="M203.785 275.805H200.784V278.806H203.785V275.805Z" fill="#D0E2F4"/>
</g>
<defs>
<clipPath id="clip0_0_1">
<rect width="375" height="381" fill="white"/>
</clipPath>
</defs>
</svg>
